<svg width="9" height="14" fill="none" xmlns="http://www.w3.org/2000/svg"><path d="M2.18 13.02c.127.068.261-.078.183-.2-.422-.656-.821-1.76-.185-3.184C3.24 7.263 3.886 6.034 3.886 6.034s.344 1.434 1.275 2.71c.896 1.227 1.387 2.77.596 4.057-.074.12.057.263.183.198.979-.5 2.077-1.505 2.201-3.505.046-.61-.023-1.466-.365-2.545-.441-1.368-.983-2.006-1.296-2.28a.14.14 0 00-.232.115c.092 1.476-.464 1.85-.78 1.006-.126-.337-.2-.92-.2-1.63 0-1.183-.343-2.4-1.099-3.389A3.837 3.837 0 003.48.07a.14.14 0 00-.226.12c.058.802.006 3.1-2.01 5.844-1.827 2.545-1.119 4.5-.868 5.03.48 1.014 1.15 1.61 1.805 1.957z" fill="#fff"/></svg>