<svg width="40" height="40" fill="none" xmlns="http://www.w3.org/2000/svg"><g filter="url(#filter0_d)"><circle cx="20" cy="16" r="16" fill="url(#paint0_linear)"/><circle cx="20" cy="16" r="15" stroke="#fff" stroke-width="2"/></g><path d="M25.78 12.653h-1.929l-1.114-1.218h-4.26v1.827H16.65v1.826h-1.826v6.087c0 .67.548 1.217 1.218 1.217h9.739a1.22 1.22 0 001.217-1.217V13.87a1.22 1.22 0 00-1.217-1.217zm-4.869 7.913a3.045 3.045 0 010-6.087 3.045 3.045 0 010 6.087z" fill="#fff"/><path d="M14.826 14.479h1.218v-1.826h1.826v-1.218h-1.826V9.61h-1.218v1.826H13v1.218h1.826v1.826zm6.087 1.095c-1.078 0-1.948.87-1.948 1.948 0 1.077.87 1.948 1.948 1.948 1.077 0 1.947-.87 1.947-1.948 0-1.077-.87-1.948-1.947-1.948z" fill="#fff"/><defs><linearGradient id="paint0_linear" x1="4" y1="16" x2="36" y2="16" gradientUnits="userSpaceOnUse"><stop stop-color="#FF2517"/><stop offset="1" stop-color="#FF5F1B"/></linearGradient><filter id="filter0_d" x="0" y="0" width="40" height="40" filterUnits="userSpaceOnUse" color-interpolation-filters="sRGB"><feFlood flood-opacity="0" result="BackgroundImageFix"/><feColorMatrix in="SourceAlpha" values="0 0 0 0 0 0 0 0 0 0 0 0 0 0 0 0 0 0 127 0"/><feOffset dy="4"/><feGaussianBlur stdDeviation="2"/><feColorMatrix values="0 0 0 0 0 0 0 0 0 0 0 0 0 0 0 0 0 0 0.1 0"/><feBlend in2="BackgroundImageFix" result="effect1_dropShadow"/><feBlend in="SourceGraphic" in2="effect1_dropShadow" result="shape"/></filter></defs></svg>