<svg width="40" height="40" fill="none" xmlns="http://www.w3.org/2000/svg"><path d="M31.654 12.522l1.909-1.908c.86-.86.86-2.255 0-3.115v0a2.203 2.203 0 00-3.115 0l-1.909 1.908a13.615 13.615 0 00-15.874 0L10.756 7.5a2.203 2.203 0 00-3.115 0v0c-.86.86-.86 2.255 0 3.115l1.909 1.908a13.616 13.616 0 000 15.875l-1.91 1.907a2.203 2.203 0 103.115 3.115l1.909-1.908a13.615 13.615 0 0015.874 0l1.909 1.908a2.203 2.203 0 003.115-3.115l-1.909-1.908a13.616 13.616 0 000-15.875z" stroke="#000" stroke-width="1.364" stroke-miterlimit="10"/><path d="M20.61 30.17c5.363 0 9.71-4.348 9.71-9.71 0-5.364-4.347-9.712-9.71-9.712-5.364 0-9.712 4.348-9.712 9.711 0 5.364 4.348 9.711 9.712 9.711z" stroke="#000" stroke-width="1.364" stroke-miterlimit="10"/><path d="M20.603 25.443a4.985 4.985 0 100-9.97 4.985 4.985 0 000 9.97z" stroke="#FF531A" stroke-width="1.364" stroke-miterlimit="10"/><path d="M31.985 9.78a.731.731 0 100-1.462.731.731 0 000 1.463zM9.23 9.783c.398 0 .72-.328.72-.732a.725.725 0 00-.72-.73.725.725 0 00-.718.73c0 .404.322.732.719.732zm22.755 22.841a.731.731 0 100-1.462.731.731 0 000 1.462zm-22.742.002a.731.731 0 100-1.462.731.731 0 000 1.462z" fill="#000"/></svg>