<svg width="12" height="16" fill="none" xmlns="http://www.w3.org/2000/svg"><path d="M3.002 6.003A3.002 3.002 0 01.004 3.004 3.002 3.002 0 013.002.006a3.002 3.002 0 012.999 2.998 3.002 3.002 0 01-2.999 2.999zm0-3.998a1 1 0 10.001 2 1 1 0 000-2zm5.997 13.992A3.002 3.002 0 016 12.998 3.002 3.002 0 019 10a3.002 3.002 0 012.998 2.998A3.002 3.002 0 019 15.997zm0-3.998c-.55 0-1 .45-1 1s.45.999 1 .999 1-.45 1-1-.45-.999-1-.999zm-7.996 3.998a1 1 0 01-.812-1.581L10.186.422a1 1 0 111.627 1.161L1.82 15.577c-.198.274-.504.42-.816.42z" fill="#fff"/></svg>