<svg width="13" height="20" fill="none" xmlns="http://www.w3.org/2000/svg"><path d="M3.442 19.974c.203.104.418-.121.293-.308-.675-1.01-1.314-2.71-.296-4.9 1.699-3.651 2.733-5.543 2.733-5.543s.55 2.207 2.04 4.17c1.434 1.888 2.219 4.264.953 6.243-.119.185.09.404.293.305 1.566-.77 3.323-2.316 3.522-5.393.073-.94-.037-2.256-.585-3.916-.705-2.105-1.571-3.087-2.073-3.509-.15-.126-.383-.014-.37.177.146 2.271-.743 2.847-1.249 1.548-.202-.518-.32-1.416-.32-2.508 0-1.82-.548-3.692-1.758-5.214A6.022 6.022 0 005.52.046c-.153-.115-.375 0-.361.186.093 1.233.009 4.767-3.216 8.99-2.923 3.916-1.79 6.924-1.388 7.74.768 1.56 1.84 2.476 2.887 3.012z" fill="#fff"/></svg>