<svg width="24" height="24" fill="none" xmlns="http://www.w3.org/2000/svg"><g clip-path="url(#clip0)" fill="#fff"><path d="M7.656 18.666a2.506 2.506 0 100 5.011 2.506 2.506 0 000-5.011zm0 3.898a1.392 1.392 0 110-2.784 1.392 1.392 0 010 2.784zm10.579-3.898a2.506 2.506 0 100 5.011 2.506 2.506 0 000-5.011zm0 3.898a1.392 1.392 0 110-2.784 1.392 1.392 0 010 2.784zM23.887 4.05a.696.696 0 00-.446-.222l-18.124-.25-.5-1.532A2.561 2.561 0 002.421.32H.557a.557.557 0 100 1.114h1.865a1.448 1.448 0 011.336.974l3.536 10.663-.278.64c-.31.8-.218 1.702.25 2.422a2.59 2.59 0 002.088 1.17h10.83a.557.557 0 000-1.114H9.354a1.42 1.42 0 01-1.17-.668c-.249-.4-.3-.893-.138-1.337l.222-.5 11.721-1.226a3.063 3.063 0 002.645-2.338l1.336-5.596a.473.473 0 00-.083-.473zm-2.339 5.82c-.18.81-.87 1.41-1.698 1.475L8.268 12.542 5.68 4.692l17.066.25-1.197 4.927z"/></g><defs><clipPath id="clip0"><path fill="#fff" d="M0 0h24v24H0z"/></clipPath></defs></svg>