<svg width="14" height="14" fill="none" xmlns="http://www.w3.org/2000/svg"><path d="M8.18 5.754a1.406 1.406 0 00-1.13-.508c-.554 0-1.062.16-1.062.628 0 .441.528.521 1.089.588.975.12 2.018.294 2.018 1.47a1.539 1.539 0 01-1.584 1.47v.668h-.848v-.634a1.988 1.988 0 01-1.757-1.143l.788-.334a1.461 1.461 0 001.33.701c.6 0 1.155-.207 1.155-.728 0-.44-.554-.601-1.176-.675-.955-.107-1.89-.274-1.89-1.383 0-.875.775-1.276 1.55-1.37v-.58h.848v.58a1.68 1.68 0 011.39.916l-.722.334z" fill="#fff"/><path d="M7 12.716A5.72 5.72 0 117 1.278a5.72 5.72 0 010 11.438zM7 1.79a5.207 5.207 0 100 10.415A5.207 5.207 0 007 1.79z" fill="#fff"/><path d="M13.574 9.024a.171.171 0 01-.17-.151.167.167 0 01.006-.066 6.66 6.66 0 00-11.345-6.28.17.17 0 01-.253-.23A7.002 7.002 0 0113.738 8.9a.17.17 0 01-.164.124z" fill="#fff"/><path d="M3.425 2.115a.09.09 0 00-.11-.065l-1.342.337.262-1.36a.09.09 0 10-.178-.033l-.289 1.499a.09.09 0 00.111.104l1.48-.372a.09.09 0 00.067-.11zM7 13.997A7.002 7.002 0 01.85 3.652a.17.17 0 11.3.163 6.66 6.66 0 0011.602 6.538.17.17 0 01.294.172A7.03 7.03 0 017 13.997z" fill="#fff"/><path d="M11.493 11.017a.09.09 0 00.12.043l1.254-.59.004 1.385a.09.09 0 10.181 0l-.005-1.527a.09.09 0 00-.042-.076.09.09 0 00-.087-.006l-1.381.65a.091.091 0 00-.044.12v.001z" fill="#fff"/></svg>