<svg width="14" height="14" fill="none" xmlns="http://www.w3.org/2000/svg"><path fill-rule="evenodd" clip-rule="evenodd" d="M7 14A7 7 0 107 0a7 7 0 000 14zM4 5.678v.975h2.416c-.643.26-.953.424-1.25.649H4v.975h.5l-.027.075a1.2 1.2 0 00-.093.454c0 .295.06.57.182.825.123.255.294.482.515.682.246.22.525.389.837.508.312.12.701.179 1.169.179.556 0 1.029-.057 1.42-.173.298-.088.52-.201.762-.325l.234-.117v-1.38c-.335.33-.685.548-1.11.729a3.14 3.14 0 01-1.23.272c-.565 0-.825-.191-1.113-.41-.289-.22-.35-.28-.35-.67 0-.328.084-.49.22-.65H10v-.974H7a1.4 1.4 0 01.349-.091c.144-.025.3-.052.483-.133.189-.08.394-.207.566-.313.068-.042.13-.08.186-.112H10V5.68h-.583c.098-.16.098-.169.09-.276a2.24 2.24 0 01-.007-.182c0-.628-.24-1.156-.717-1.582C8.305 3.213 7.695 3 6.951 3c-.424 0-.824.042-1.201.123-.377.084-.926.29-1.25.444v1.46c.237-.22.82-.62 1.195-.785a2.89 2.89 0 011.182-.25c.462 0 .671.117.958.347.288.23.431.371.431.747a9.913 9.913 0 00-.061.17c-.07.201-.131.372-.205.422H4z" fill="#fff"/></svg>