<svg width="16" height="16" viewBox="0 0 16 16" fill="none" xmlns="http://www.w3.org/2000/svg">
<g clip-path="url(#clip0)">
<path d="M12.0634 0.988281H2.80938C1.81156 0.988281 1 1.79984 1 2.79766V10.907C1 11.2911 1.43434 11.5076 1.74094 11.2886L4.31813 9.44984C4.53437 9.29578 4.78875 9.21422 5.05438 9.21422H10.7228C11.7206 9.21422 12.5322 8.40266 12.5322 7.40484V1.45703C12.5322 1.19828 12.3222 0.988281 12.0634 0.988281ZM9.78656 6.66672H4.37063C4.11188 6.66672 3.90188 6.45703 3.90188 6.19797C3.90188 5.93922 4.11188 5.72922 4.37063 5.72922H9.78656C10.0453 5.72922 10.2553 5.93922 10.2553 6.19797C10.2553 6.45703 10.0453 6.66672 9.78656 6.66672ZM9.78656 4.47922H4.37063C4.11188 4.47922 3.90188 4.26953 3.90188 4.01047C3.90188 3.75172 4.11188 3.54172 4.37063 3.54172H9.78656C10.0453 3.54172 10.2553 3.75172 10.2553 4.01047C10.2553 4.26953 10.0453 4.47922 9.78656 4.47922Z" fill="white"/>
<path d="M17.0009 6.43273V14.5418C17.0009 14.9233 16.5688 15.1439 16.26 14.9234L13.6828 13.0849C13.4666 12.9309 13.2122 12.8493 12.9466 12.8493H7.27813C6.28031 12.8493 5.46875 12.0374 5.46875 11.0396V10.1509H10.7238C12.2384 10.1509 13.4706 8.91867 13.4706 7.40398V4.62305H15.1916C16.1894 4.62305 17.0009 5.43492 17.0009 6.43273Z" fill="white"/>
</g>
<defs>
<clipPath id="clip0">
<rect width="16" height="16" fill="white"/>
</clipPath>
</defs>
</svg>
