<svg width="22" height="22" viewBox="0 0 22 22" fill="none" xmlns="http://www.w3.org/2000/svg">
<mask id="path-1-outside-1" maskUnits="userSpaceOnUse" x="0" y="1" width="22" height="20" fill="black">
<rect fill="white" y="1" width="22" height="20"/>
<path d="M11 20C10.7153 20 10.4408 19.8957 10.2268 19.7061C9.41888 18.9914 8.63992 18.3198 7.95267 17.7274L7.94916 17.7243C5.93423 15.9873 4.19427 14.4873 2.98364 13.0096C1.63034 11.3576 1 9.79138 1 8.08032C1 6.41788 1.56351 4.88418 2.58661 3.76153C3.62192 2.62561 5.04251 2 6.58716 2C7.74164 2 8.79892 2.36922 9.72955 3.09733C10.1992 3.46486 10.6249 3.91466 11 4.43932C11.3752 3.91466 11.8008 3.46486 12.2706 3.09733C13.2012 2.36922 14.2585 2 15.413 2C16.9575 2 18.3782 2.62561 19.4135 3.76153C20.4366 4.88418 21 6.41788 21 8.08032C21 9.79138 20.3698 11.3576 19.0165 13.0094C17.8059 14.4873 16.0661 15.9872 14.0515 17.724C13.363 18.3173 12.5828 18.99 11.773 19.7064C11.5592 19.8957 11.2846 20 11 20ZM6.58716 3.18516C5.37363 3.18516 4.25882 3.67509 3.44781 4.56481C2.62476 5.46796 2.17142 6.71641 2.17142 8.08032C2.17142 9.5194 2.70013 10.8064 3.88559 12.2534C5.03137 13.652 6.73563 15.1212 8.70889 16.8224L8.71255 16.8255C9.4024 17.4202 10.1844 18.0944 10.9983 18.8144C11.8171 18.0931 12.6003 17.4177 13.2916 16.8221C15.2647 15.1209 16.9688 13.652 18.1146 12.2534C19.2999 10.8064 19.8286 9.5194 19.8286 8.08032C19.8286 6.71641 19.3752 5.46796 18.5522 4.56481C17.7413 3.67509 16.6264 3.18516 15.413 3.18516C14.524 3.18516 13.7078 3.47103 12.9872 4.03475C12.3449 4.53734 11.8975 5.17268 11.6352 5.61723C11.5003 5.84583 11.2629 5.98228 11 5.98228C10.7371 5.98228 10.4997 5.84583 10.3648 5.61723C10.1026 5.17268 9.65524 4.53734 9.01285 4.03475C8.29218 3.47103 7.47598 3.18516 6.58716 3.18516Z"/>
</mask>
<path d="M11 20C10.7153 20 10.4408 19.8957 10.2268 19.7061C9.41888 18.9914 8.63992 18.3198 7.95267 17.7274L7.94916 17.7243C5.93423 15.9873 4.19427 14.4873 2.98364 13.0096C1.63034 11.3576 1 9.79138 1 8.08032C1 6.41788 1.56351 4.88418 2.58661 3.76153C3.62192 2.62561 5.04251 2 6.58716 2C7.74164 2 8.79892 2.36922 9.72955 3.09733C10.1992 3.46486 10.6249 3.91466 11 4.43932C11.3752 3.91466 11.8008 3.46486 12.2706 3.09733C13.2012 2.36922 14.2585 2 15.413 2C16.9575 2 18.3782 2.62561 19.4135 3.76153C20.4366 4.88418 21 6.41788 21 8.08032C21 9.79138 20.3698 11.3576 19.0165 13.0094C17.8059 14.4873 16.0661 15.9872 14.0515 17.724C13.363 18.3173 12.5828 18.99 11.773 19.7064C11.5592 19.8957 11.2846 20 11 20ZM6.58716 3.18516C5.37363 3.18516 4.25882 3.67509 3.44781 4.56481C2.62476 5.46796 2.17142 6.71641 2.17142 8.08032C2.17142 9.5194 2.70013 10.8064 3.88559 12.2534C5.03137 13.652 6.73563 15.1212 8.70889 16.8224L8.71255 16.8255C9.4024 17.4202 10.1844 18.0944 10.9983 18.8144C11.8171 18.0931 12.6003 17.4177 13.2916 16.8221C15.2647 15.1209 16.9688 13.652 18.1146 12.2534C19.2999 10.8064 19.8286 9.5194 19.8286 8.08032C19.8286 6.71641 19.3752 5.46796 18.5522 4.56481C17.7413 3.67509 16.6264 3.18516 15.413 3.18516C14.524 3.18516 13.7078 3.47103 12.9872 4.03475C12.3449 4.53734 11.8975 5.17268 11.6352 5.61723C11.5003 5.84583 11.2629 5.98228 11 5.98228C10.7371 5.98228 10.4997 5.84583 10.3648 5.61723C10.1026 5.17268 9.65524 4.53734 9.01285 4.03475C8.29218 3.47103 7.47598 3.18516 6.58716 3.18516Z" fill="white"/>
<path d="M11 20C10.7153 20 10.4408 19.8957 10.2268 19.7061C9.41888 18.9914 8.63992 18.3198 7.95267 17.7274L7.94916 17.7243C5.93423 15.9873 4.19427 14.4873 2.98364 13.0096C1.63034 11.3576 1 9.79138 1 8.08032C1 6.41788 1.56351 4.88418 2.58661 3.76153C3.62192 2.62561 5.04251 2 6.58716 2C7.74164 2 8.79892 2.36922 9.72955 3.09733C10.1992 3.46486 10.6249 3.91466 11 4.43932C11.3752 3.91466 11.8008 3.46486 12.2706 3.09733C13.2012 2.36922 14.2585 2 15.413 2C16.9575 2 18.3782 2.62561 19.4135 3.76153C20.4366 4.88418 21 6.41788 21 8.08032C21 9.79138 20.3698 11.3576 19.0165 13.0094C17.8059 14.4873 16.0661 15.9872 14.0515 17.724C13.363 18.3173 12.5828 18.99 11.773 19.7064C11.5592 19.8957 11.2846 20 11 20ZM6.58716 3.18516C5.37363 3.18516 4.25882 3.67509 3.44781 4.56481C2.62476 5.46796 2.17142 6.71641 2.17142 8.08032C2.17142 9.5194 2.70013 10.8064 3.88559 12.2534C5.03137 13.652 6.73563 15.1212 8.70889 16.8224L8.71255 16.8255C9.4024 17.4202 10.1844 18.0944 10.9983 18.8144C11.8171 18.0931 12.6003 17.4177 13.2916 16.8221C15.2647 15.1209 16.9688 13.652 18.1146 12.2534C19.2999 10.8064 19.8286 9.5194 19.8286 8.08032C19.8286 6.71641 19.3752 5.46796 18.5522 4.56481C17.7413 3.67509 16.6264 3.18516 15.413 3.18516C14.524 3.18516 13.7078 3.47103 12.9872 4.03475C12.3449 4.53734 11.8975 5.17268 11.6352 5.61723C11.5003 5.84583 11.2629 5.98228 11 5.98228C10.7371 5.98228 10.4997 5.84583 10.3648 5.61723C10.1026 5.17268 9.65524 4.53734 9.01285 4.03475C8.29218 3.47103 7.47598 3.18516 6.58716 3.18516Z" stroke="white" stroke-width="0.6" mask="url(#path-1-outside-1)"/>
</svg>
