<svg width="22" height="23" viewBox="0 0 22 23" fill="none" xmlns="http://www.w3.org/2000/svg">
<path d="M18.5209 11.1777C18.6638 11.2772 18.6638 11.4885 18.5209 11.588L16.8161 12.7753C16.7162 12.845 16.6809 12.9765 16.7327 13.0868L17.616 14.967C17.69 15.1247 17.5842 15.3079 17.4105 15.3224L15.3402 15.4959C15.2187 15.5061 15.1222 15.6025 15.112 15.7241L14.9385 17.7944C14.9239 17.968 14.7407 18.0739 14.583 17.9998L12.703 17.1166C12.5927 17.0647 12.4612 17.1 12.3915 17.1999L11.2042 18.9047C11.1047 19.0475 10.8934 19.0475 10.7939 18.9047L9.60654 17.1999C9.53691 17.1 9.40536 17.0647 9.2951 17.1165L7.41488 17.9997C7.2572 18.0738 7.07401 17.9679 7.05946 17.7943L6.88599 15.724C6.8758 15.6024 6.77933 15.506 6.65775 15.4958L4.58746 15.3223C4.41385 15.3077 4.30799 15.1245 4.38207 14.9668L5.26533 13.0868C5.31714 12.9765 5.28191 12.8449 5.18194 12.7753L3.47717 11.588C3.33434 11.4885 3.33434 11.2772 3.47716 11.1777L5.18196 9.99032C5.28192 9.9207 5.31715 9.78915 5.26535 9.67889L4.38214 7.79867C4.30807 7.64099 4.41394 7.4578 4.58754 7.44325L6.65785 7.26978C6.77944 7.25959 6.87591 7.16312 6.8861 7.04153L7.05962 4.97125C7.07417 4.79764 7.25737 4.69178 7.41505 4.76585L9.29511 5.64912C9.40538 5.70092 9.53694 5.6657 9.60657 5.56573L10.7939 3.86095C10.8934 3.71813 11.1047 3.71813 11.2042 3.86095L12.3916 5.56574C12.4612 5.66571 12.5927 5.70094 12.703 5.64914L14.5832 4.76593C14.7409 4.69186 14.9241 4.79773 14.9386 4.97133L15.1121 7.04164C15.1223 7.16323 15.2188 7.2597 15.3403 7.26989L17.4106 7.44341C17.5842 7.45796 17.6901 7.64116 17.616 7.79884L16.7328 9.6789C16.681 9.78917 16.7162 9.92073 16.8162 9.99035L18.5209 11.1777Z" stroke="black" stroke-width="0.75" stroke-miterlimit="10"/>
<path d="M9.32308 12.6973H8.67189L7.70911 11.0615V12.6973H7.0542V10.0684H7.70911L8.67003 11.7043V10.0684H9.32308V12.6973Z" fill="#FF531A"/>
<path d="M11.4227 11.5833H10.3927V12.2098H11.6092V12.6973H9.73779V10.0684H11.613V10.5577H10.3927V11.112H11.4227V11.5833Z" fill="#FF531A"/>
<path d="M13.9802 11.7169L14.2918 10.0684H14.9412L14.3646 12.6973H13.6854L13.3216 11.1987L12.9652 12.6973H12.2879L11.7095 10.0684H12.3607L12.6723 11.7169L13.0455 10.0684H13.6015L13.9802 11.7169Z" fill="#FF531A"/>
</svg>
