<svg width="22" height="23" viewBox="0 0 22 23" fill="none" xmlns="http://www.w3.org/2000/svg">
<path d="M19.0867 6.71875H2.91685C2.40159 6.71875 1.98389 7.13983 1.98389 7.65926V17.3198C1.98389 17.8392 2.40159 18.2603 2.91685 18.2603H19.0867C19.602 18.2603 20.0197 17.8392 20.0197 17.3198V7.65926C20.0197 7.13983 19.602 6.71875 19.0867 6.71875Z" stroke="black" stroke-width="0.75" stroke-miterlimit="10" stroke-linecap="round"/>
<path d="M4.78271 6.71869V5.54374C4.78271 5.39176 4.8426 5.24601 4.94921 5.13854C5.05581 5.03108 5.2004 4.9707 5.35116 4.9707H7.27324C7.34789 4.9707 7.42181 4.98552 7.49078 5.01432C7.55975 5.04312 7.62241 5.08533 7.6752 5.13854C7.72798 5.19175 7.76986 5.25492 7.79842 5.32445C7.82699 5.39397 7.84169 5.46849 7.84169 5.54374V6.71869" stroke="black" stroke-width="0.75" stroke-miterlimit="10" stroke-linecap="round"/>
<path d="M14.1611 6.71869V5.54374C14.1611 5.46849 14.1758 5.39397 14.2044 5.32445C14.233 5.25492 14.2748 5.19175 14.3276 5.13854C14.3804 5.08533 14.4431 5.04312 14.512 5.01432C14.581 4.98552 14.6549 4.9707 14.7296 4.9707H16.6517C16.8024 4.9707 16.947 5.03108 17.0536 5.13854C17.1602 5.24601 17.2201 5.39176 17.2201 5.54374V6.71869" stroke="black" stroke-width="0.75" stroke-miterlimit="10" stroke-linecap="round"/>
<line x1="5.65625" y1="12.2559" x2="8.41822" y2="12.2559" stroke="#FF531A" stroke-width="0.75" stroke-linecap="round" stroke-linejoin="round"/>
<line x1="13.3691" y1="12.2559" x2="16.4578" y2="12.2559" stroke="#FF531A" stroke-width="0.75" stroke-linecap="round" stroke-linejoin="round"/>
<line x1="14.9224" y1="13.7676" x2="14.9224" y2="10.7671" stroke="#FF531A" stroke-width="0.75" stroke-linecap="round" stroke-linejoin="round"/>
</svg>
