<svg width="22" height="23" viewBox="0 0 22 23" fill="none" xmlns="http://www.w3.org/2000/svg">
<path d="M11.4389 2.89768L20.1078 17.9127C20.1522 17.9897 20.1756 18.077 20.1756 18.1658C20.1756 18.2547 20.1522 18.342 20.1078 18.419C20.0634 18.496 19.9994 18.5599 19.9225 18.6043C19.8455 18.6487 19.7582 18.6721 19.6693 18.6721H2.3315C2.24263 18.6721 2.15532 18.6487 2.07835 18.6043C2.00138 18.5599 1.93746 18.496 1.89303 18.419C1.84859 18.342 1.82519 18.2547 1.8252 18.1658C1.8252 18.077 1.84859 17.9897 1.89303 17.9127L10.5619 2.89768C10.6064 2.82071 10.6703 2.7568 10.7473 2.71236C10.8242 2.66792 10.9115 2.64453 11.0004 2.64453C11.0893 2.64453 11.1766 2.66792 11.2536 2.71236C11.3305 2.7568 11.3944 2.82071 11.4389 2.89768Z" stroke="black" stroke-width="0.75" stroke-miterlimit="10" stroke-linecap="round"/>
<path d="M6.63721 15.3125H16.7566" stroke="#FF531A" stroke-width="0.75" stroke-miterlimit="10" stroke-linecap="round"/>
<path d="M10.2104 6.96289L15.3602 15.3111" stroke="#FF531A" stroke-width="0.75" stroke-miterlimit="10" stroke-linecap="round"/>
<path d="M10.9963 8.24414L5.86475 16.5628" stroke="#FF531A" stroke-width="0.75" stroke-miterlimit="10" stroke-linecap="round"/>
<path d="M10.9961 18.6719V19.8143" stroke="black" stroke-width="0.75" stroke-miterlimit="10" stroke-linecap="round"/>
<path d="M4.9989 18.7246L4.0957 19.6278" stroke="black" stroke-width="0.75" stroke-miterlimit="10" stroke-linecap="round"/>
<path d="M16.9922 18.7246L17.8954 19.6278" stroke="black" stroke-width="0.75" stroke-miterlimit="10" stroke-linecap="round"/>
</svg>
