<svg width="22" height="23" viewBox="0 0 22 23" fill="none" xmlns="http://www.w3.org/2000/svg">
<circle cx="11.093" cy="11.2519" r="5.02657" transform="rotate(-60 11.093 11.2519)" stroke="black" stroke-width="0.75"/>
<circle cx="11.0943" cy="11.2523" r="3.78611" transform="rotate(-60 11.0943 11.2523)" stroke="#FF531A" stroke-width="0.75"/>
<mask id="path-3-inside-1" fill="white">
<rect x="1.33594" y="15.5625" width="3.06279" height="3.72462" rx="0.5" transform="rotate(-60 1.33594 15.5625)"/>
</mask>
<rect x="1.33594" y="15.5625" width="3.06279" height="3.72462" rx="0.5" transform="rotate(-60 1.33594 15.5625)" stroke="black" stroke-width="1.5" mask="url(#path-3-inside-1)"/>
<mask id="path-4-inside-2" fill="white">
<rect x="20.6602" y="7.35742" width="3.06279" height="3.72462" rx="0.5" transform="rotate(120 20.6602 7.35742)"/>
</mask>
<rect x="20.6602" y="7.35742" width="3.06279" height="3.72462" rx="0.5" transform="rotate(120 20.6602 7.35742)" stroke="black" stroke-width="1.5" mask="url(#path-4-inside-2)"/>
<line x1="3.94868" y1="13.6479" x2="6.35713" y2="9.47633" stroke="black" stroke-width="0.75" stroke-linecap="round"/>
<line x1="18.0084" y1="9.39117" x2="15.5999" y2="13.5627" stroke="black" stroke-width="0.75" stroke-linecap="round"/>
<line x1="4.85102" y1="14.3139" x2="6.09288" y2="12.163" stroke="black" stroke-width="0.75" stroke-linecap="round"/>
<line x1="17.1724" y1="8.62163" x2="16.1823" y2="10.3365" stroke="black" stroke-width="0.75" stroke-linecap="round"/>
<line x1="2.1607" y1="15.8359" x2="1.65815" y2="16.7064" stroke="black" stroke-width="0.75"/>
<line y1="-0.375" x2="1.00509" y2="-0.375" transform="matrix(-0.5 0.866025 0.866025 0.5 4.23828 17.0391)" stroke="black" stroke-width="0.75"/>
<line x1="19.8393" y1="7.08594" x2="20.3418" y2="6.21551" stroke="black" stroke-width="0.75"/>
<line y1="-0.375" x2="1.00509" y2="-0.375" transform="matrix(0.5 -0.866025 -0.866025 -0.5 17.7578 5.88281)" stroke="black" stroke-width="0.75"/>
</svg>
