<svg width="29" height="28" viewBox="0 0 29 28" fill="none" xmlns="http://www.w3.org/2000/svg">
<path fill-rule="evenodd" clip-rule="evenodd" d="M25.3054 5.59885H27.5868C27.8258 5.59885 28.0192 5.79232 28.019 6.03131V11.8255C28.019 12.0643 27.8256 12.258 27.5868 12.258H26.0444V23.3268C26.0444 23.5658 25.851 23.7592 25.612 23.7592C25.3732 23.7592 25.1795 23.5658 25.1795 23.3268V12.258H22.8761C23.7885 14.4617 24.4322 16.7777 24.7774 19.1328C24.8039 19.3128 24.7148 19.49 24.5547 19.5762C24.3945 19.6626 24.1975 19.6393 24.0617 19.5183C23.2567 18.8 22.4082 18.1364 21.5343 17.5413C21.0125 18.4631 20.4345 19.346 19.8128 20.1707C19.7299 20.2808 19.6012 20.3428 19.4676 20.3428C19.4319 20.3428 19.396 20.3385 19.3605 20.3293C19.1914 20.2861 19.0648 20.1457 19.0396 19.9732C18.658 17.3667 17.8288 14.844 16.6039 12.5239V27.1353H25.1797V25.0566C25.1797 24.8178 25.3732 24.6241 25.6122 24.6241C25.851 24.6241 26.0446 24.8178 26.0446 25.0566V27.5675C26.0446 27.8065 25.851 28 25.6122 28H2.40705C2.16827 28 1.97459 27.8065 1.97459 27.5675V12.258H0.432456C0.193675 12.258 0 12.0643 0 11.8255V10.8741C0 10.6353 0.193675 10.4418 0.432456 10.4418C0.671237 10.4418 0.864912 10.6353 0.864912 10.8741V11.3931H5.51761C6.12685 10.0457 6.83849 8.74533 7.64526 7.5091L4.01481 6.50973C3.96543 6.49605 3.91669 6.48044 3.86859 6.46355H0.864912V9.14444C0.864912 9.38322 0.671237 9.57689 0.432456 9.57689C0.193675 9.57689 0 9.38322 0 9.14444V6.03131C0 5.79232 0.193675 5.59885 0.432456 5.59885H2.71402C2.64775 5.50608 2.58747 5.40817 2.5351 5.30578C2.23304 4.7162 2.19221 4.02187 2.42287 3.40087L3.1142 1.54236C3.34464 0.921999 3.82883 0.423061 4.44214 0.173805C5.05608 -0.0756643 5.75147 -0.0557837 6.35024 0.228316L11.8213 2.82712C12.0917 2.63387 12.4226 2.5195 12.7796 2.5195H15.2396C15.5966 2.5195 15.9273 2.63365 16.1978 2.8269L21.669 0.22853C22.2678 -0.0557837 22.9631 -0.0756643 23.5771 0.173805C24.1904 0.423061 24.6746 0.921999 24.905 1.54257L25.5964 3.40066C25.827 4.02187 25.7862 4.7162 25.4843 5.30578C25.4318 5.40817 25.3717 5.50586 25.3054 5.59885ZM23.2515 0.975014C22.8558 0.814259 22.4257 0.826658 22.0399 1.00964L16.757 3.51866C16.8433 3.71896 16.8914 3.93957 16.8914 4.17109V4.49024C17.4676 4.1604 18.357 3.68497 19.3205 3.29548C21.6594 2.34955 23.2207 2.40043 23.9617 3.44641C24.0998 3.64115 24.0536 3.91114 23.8586 4.04924C23.6637 4.18733 23.3939 4.14094 23.256 3.9462C22.296 2.59111 18.4387 4.54518 16.8914 5.49261V7.57088L23.775 5.67581C24.1863 5.56273 24.52 5.29124 24.7143 4.91158C24.9089 4.53171 24.9343 4.10204 24.7855 3.70186L24.0944 1.84399C23.9458 1.44402 23.6466 1.13556 23.2515 0.975014ZM12.7796 3.3842H15.2396C15.6736 3.3842 16.0265 3.73735 16.0265 4.17109V7.74553C16.0265 8.17948 15.6736 8.53242 15.2396 8.53242H12.7796C12.3456 8.53242 11.9927 8.17948 11.9927 7.74553V4.17109C11.9927 3.73713 12.3456 3.3842 12.7796 3.3842ZM13.4029 9.39722C12.9185 10.0394 12.4683 10.7055 12.0547 11.3928H15.968C15.5545 10.7055 15.1043 10.0394 14.6197 9.39722H13.4029ZM3.30364 4.91155C3.10911 4.53168 3.08367 4.10201 3.23224 3.70204L3.92379 1.84374C4.07214 1.44399 4.37142 1.13552 4.76647 0.974984C5.16194 0.814229 5.59226 0.826628 5.9779 1.00961L11.261 3.51906C11.1746 3.71915 11.1265 3.93954 11.1265 4.17127V4.51501C10.5524 4.18452 9.64277 3.69499 8.65473 3.29545C6.31608 2.34952 4.7545 2.4004 4.01357 3.44638C3.87548 3.64112 3.92165 3.91111 4.11661 4.04921C4.31157 4.1873 4.58134 4.14113 4.71922 3.94617C5.68824 2.57826 9.60899 4.58213 11.1265 5.51887V7.57085L4.24316 5.67599C3.83165 5.5627 3.49796 5.29121 3.30364 4.91155ZM12.3659 9.34474C11.9142 9.22781 11.5372 8.92404 11.3219 8.5213L8.52172 7.75045C6.44366 10.8655 4.99452 14.4154 4.29314 18.0969C4.97421 17.5437 5.67943 17.0285 6.39962 16.5588C6.50074 16.4928 6.62494 16.472 6.74208 16.5018C6.85944 16.5315 6.95863 16.6089 7.01614 16.7153C7.40926 17.4419 7.83872 18.1454 8.29811 18.8167C8.95118 15.4087 10.3435 12.1665 12.3659 9.34474ZM2.8395 12.258H5.14309C4.23072 14.4617 3.58706 16.7775 3.2416 19.1328C3.21531 19.3128 3.30424 19.49 3.46435 19.5762C3.62468 19.6623 3.82156 19.6393 3.95731 19.5183C4.76236 18.8 5.61081 18.1364 6.48492 17.5413C7.00673 18.4631 7.58455 19.3457 8.20641 20.1707C8.28935 20.2808 8.41804 20.343 8.55165 20.343C8.58734 20.343 8.62326 20.3385 8.65874 20.3293C8.82784 20.2861 8.95417 20.1457 8.9794 19.9732C9.36119 17.3667 10.1904 14.8438 11.4151 12.5237V27.1353H2.8395V12.258ZM12.2812 12.2581V27.1354H15.7405V12.2581H12.2812ZM21.6196 16.5588C21.5185 16.4928 21.3941 16.4723 21.2771 16.502C21.16 16.5317 21.0606 16.6091 21.0031 16.7153C20.61 17.4419 20.1805 18.1456 19.7211 18.8167C19.068 15.4085 17.6758 12.1665 15.6531 9.34496C16.1048 9.22824 16.4821 8.92426 16.6973 8.5213L19.4982 7.75023C21.5758 10.8659 23.0249 14.4158 23.7263 18.0969C23.045 17.5437 22.3398 17.0285 21.6196 16.5588ZM22.5018 11.3931H27.1543V6.46355H24.1506C24.1025 6.48044 24.0538 6.49605 24.0044 6.50973L20.3744 7.5091C21.1809 8.74533 21.8926 10.0457 22.5018 11.3931Z" fill="url(#paint0_linear)"/>
<defs>
<linearGradient id="paint0_linear" x1="2.08758e-07" y1="14" x2="28.019" y2="14" gradientUnits="userSpaceOnUse">
<stop stop-color="#FF2517"/>
<stop offset="1" stop-color="#FF5F1B"/>
</linearGradient>
</defs>
</svg>
