<svg width="28" height="28" viewBox="0 0 28 28" fill="none" xmlns="http://www.w3.org/2000/svg">
<path d="M0.0615845 2.56652C-0.0412675 2.38288 -0.00863655 2.15329 0.141418 2.00573L2.00714 0.139884C2.15566 -0.00805633 2.38479 -0.0388096 2.56689 0.0648104L5.83221 1.93053C5.94255 1.99366 6.02233 2.09927 6.05322 2.22265L6.48846 3.96239L12.459 9.93297L11.7995 10.5926L5.73547 4.52868C5.6758 4.469 5.63319 4.39401 5.61285 4.31188L5.19299 2.63915L2.41028 1.04906L1.04828 2.411L2.6369 5.19262L4.30957 5.6123C4.39151 5.63284 4.46632 5.67523 4.526 5.7351L10.59 11.7989L9.9303 12.4584L3.95978 6.48791L2.21899 6.0526C2.0958 6.02171 1.99043 5.94199 1.92749 5.83166L0.0615845 2.56652ZM19.4546 9.19311L9.19269 19.4552L8.53302 18.7954L18.7951 8.53356L19.4546 9.19311ZM7.39667 19.8182L8.7959 22.1504C8.88474 22.2981 8.88474 22.4829 8.7959 22.6308L7.39667 24.963C7.31224 25.1033 7.16064 25.1893 6.99677 25.1893H4.19812C4.03444 25.1893 3.88264 25.1033 3.7984 24.963L2.39899 22.6308C2.31014 22.4829 2.31014 22.2981 2.39899 22.1504L3.7984 19.8182C3.88264 19.6778 4.03444 19.592 4.19812 19.592H6.99677C7.16064 19.592 7.31224 19.6778 7.39667 19.8182ZM6.73291 24.2563L7.85236 22.3906L6.73291 20.5248H4.4621L3.34265 22.3906L4.4621 24.2563H6.73291ZM22.3897 11.1958C22.0226 11.1946 21.6565 11.1566 21.2969 11.0824L18.8513 13.5279L19.9209 14.5975C20.103 14.7796 20.103 15.075 19.9209 15.2571L19.6876 15.4903C19.6874 15.4907 19.687 15.4909 19.6866 15.4913C19.4828 15.6955 19.4834 16.0263 19.6876 16.2301C19.8923 16.4335 20.2227 16.4335 20.4275 16.2301L20.6606 15.9969C20.8427 15.8148 21.138 15.8148 21.3201 15.9969L26.8845 21.5611C26.8925 21.5692 26.9006 21.5773 26.9084 21.5853C28.372 23.0621 28.3612 25.4459 26.8845 26.9094C25.4075 28.3729 23.0239 28.3622 21.5604 26.8852L15.996 21.3209C15.8139 21.1388 15.8139 20.8435 15.996 20.6614L16.2292 20.4282C16.2296 20.4278 16.23 20.4274 16.2302 20.4272C16.4339 20.2229 16.4335 19.8921 16.2292 19.6883C16.0246 19.4851 15.694 19.4851 15.4894 19.6883L15.2563 19.9216C15.074 20.1037 14.7789 20.1037 14.5966 19.9216L13.527 18.852L11.0814 21.2976C11.1557 21.6572 11.1937 22.0233 11.1948 22.3906C11.1948 25.4819 8.68882 27.9879 5.59753 27.9879C2.50605 27.9879 0 25.4819 0 22.3906C0 19.2991 2.50605 16.7931 5.59753 16.7931C5.96461 16.7944 6.33071 16.8322 6.69031 16.9065L16.9058 6.69128C16.8313 6.33169 16.7935 5.96553 16.7924 5.59826C16.7908 5.13063 16.8482 4.66478 16.9631 4.21154C17.7197 1.22406 20.7548 -0.5845 23.7425 0.17211C23.8252 0.19245 23.9008 0.235097 23.9609 0.295157C24.1432 0.477257 24.1433 0.772525 23.9612 0.954825L21.0576 3.859L21.8259 6.16222L24.1297 6.92992L27.0333 4.02831C27.0932 3.96863 27.1681 3.92616 27.2502 3.90563C27.5002 3.84345 27.7533 3.99569 27.8155 4.24572C27.9308 4.7003 27.9884 5.16725 27.9868 5.63622C27.9765 8.71696 25.4704 11.2062 22.3897 11.1958ZM24.2224 27.0552C24.5636 27.0555 24.9018 26.9942 25.2209 26.8743C26.6833 26.3245 27.423 24.6934 26.8733 23.2311L23.2303 26.8743C23.5475 26.9934 23.8835 27.0546 24.2224 27.0552ZM18.938 14.932L18.1916 14.1875L14.1825 18.1907L14.9288 18.9369C15.4697 18.4823 16.2591 18.4818 16.8006 18.9358C17.4167 19.4521 17.4978 20.3704 16.9812 20.9866L22.2198 26.2257C22.2768 26.2827 22.3369 26.3358 22.3981 26.3871L26.3863 22.3989C26.3349 22.3379 26.2817 22.2778 26.2249 22.2208L20.9903 16.9816C20.4494 17.4363 19.6601 17.4367 19.1186 16.9829C18.5024 16.4665 18.4215 15.5481 18.938 14.932ZM20.8216 10.2406V10.2403H20.8191C20.935 10.1244 21.1033 10.0781 21.2624 10.1178C21.6462 10.216 22.041 10.2647 22.4373 10.2628C25.0003 10.2496 27.0673 8.16128 27.0543 5.59826C27.0543 5.51056 27.0514 5.42253 27.0458 5.33349L24.5853 7.79406C24.4603 7.91879 24.2755 7.96233 24.1082 7.90649L21.3094 6.9735C21.1701 6.92725 21.0607 6.81794 21.014 6.67882L20.0813 3.87987C20.0255 3.71236 20.0692 3.52768 20.1942 3.40295L22.6547 0.941397C22.1711 0.911277 21.6857 0.957332 21.2163 1.07726C18.7325 1.71298 17.2343 4.24167 17.8698 6.72545C17.9097 6.88433 17.8631 7.05255 17.7472 7.16845L7.16809 17.7482C7.05181 17.8635 6.88393 17.91 6.72485 17.8711C5.9646 17.6777 5.16809 17.6777 4.40784 17.8711C1.89451 18.511 0.375875 21.0672 1.01562 23.5803C1.65557 26.0936 4.21172 27.6122 6.72485 26.9723C9.23818 26.3325 10.7568 23.7764 10.1168 21.2633C10.0773 21.1042 10.1239 20.936 10.24 20.8201L20.8216 10.2406ZM24.1194 23.46L23.4597 24.1197L18.7953 19.4553L19.4548 18.7956L24.1194 23.46Z" fill="url(#paint0_linear)"/>
<defs>
<linearGradient id="paint0_linear" x1="2.0861e-07" y1="14" x2="27.9991" y2="14" gradientUnits="userSpaceOnUse">
<stop stop-color="#FF2517"/>
<stop offset="1" stop-color="#FF5F1B"/>
</linearGradient>
</defs>
</svg>
