<svg width="20" height="20" viewBox="0 0 20 20" fill="none" xmlns="http://www.w3.org/2000/svg">
<path d="M19.5879 5.19067C19.3575 4.33405 18.6819 3.65879 17.8252 3.42813C16.2602 3 9.99977 3 9.99977 3C9.99977 3 3.73963 3 2.17456 3.41189C1.33435 3.64231 0.642335 4.33417 0.411866 5.19067C0 6.75525 0 10 0 10C0 10 0 13.2611 0.411866 14.8093C0.642579 15.6658 1.31787 16.3411 2.17469 16.5718C3.75611 17 10 17 10 17C10 17 16.2602 17 17.8252 16.5881C18.682 16.3576 19.3575 15.6823 19.5882 14.8258C19.9999 13.2611 19.9999 10.0165 19.9999 10.0165C19.9999 10.0165 20.0164 6.75525 19.5879 5.19067ZM8.00661 12.9976V7.00239L13.2124 10L8.00661 12.9976Z" fill="white"/>
</svg>
