<svg width="32" height="32" viewBox="0 0 32 32" fill="none" xmlns="http://www.w3.org/2000/svg">
<circle opacity="0.2" cx="16" cy="16" r="15" stroke="url(#paint0_linear)" stroke-width="2"/>
<path d="M21.9943 19.4703C22.0197 19.6653 21.9603 19.8347 21.8164 19.9788L20.1269 21.6567C20.0506 21.7414 19.9511 21.8135 19.8283 21.8728C19.7055 21.9321 19.5849 21.9703 19.4664 21.9872C19.4579 21.9872 19.4324 21.9894 19.39 21.9936C19.3478 21.9978 19.2927 22 19.225 22C19.064 22 18.8036 21.9725 18.4436 21.9174C18.0837 21.8622 17.6433 21.7266 17.1225 21.5106C16.6016 21.2945 16.0109 20.9703 15.3503 20.5381C14.6898 20.106 13.9868 19.5127 13.2415 18.7585C12.6487 18.1737 12.1575 17.6144 11.7679 17.0805C11.3784 16.5466 11.065 16.053 10.8279 15.5996C10.5907 15.1462 10.4129 14.7352 10.2943 14.3665C10.1757 13.9979 10.0953 13.6801 10.0529 13.4131C10.0106 13.1462 9.99365 12.9364 10.0021 12.7839C10.0106 12.6314 10.0148 12.5466 10.0148 12.5297C10.0318 12.411 10.0699 12.2903 10.1292 12.1674C10.1884 12.0445 10.2604 11.9449 10.3451 11.8686L12.0347 10.178C12.1533 10.0593 12.2888 10 12.4412 10C12.5513 10 12.6487 10.0318 12.7334 10.0953C12.8181 10.1589 12.8901 10.2373 12.9493 10.3305L14.3086 12.911C14.3848 13.0466 14.406 13.1949 14.3721 13.3559C14.3383 13.5169 14.2663 13.6525 14.1562 13.7627L13.5337 14.3856C13.5168 14.4025 13.5019 14.4301 13.4892 14.4682C13.4765 14.5063 13.4702 14.5381 13.4702 14.5636C13.5041 14.7415 13.5803 14.9449 13.6989 15.1737C13.8005 15.3771 13.9572 15.625 14.1689 15.9174C14.3806 16.2097 14.6813 16.5466 15.0708 16.9279C15.4519 17.3178 15.7907 17.6207 16.0871 17.8369C16.3835 18.0529 16.6313 18.2119 16.8303 18.3135C17.0293 18.4152 17.1818 18.4767 17.2876 18.4978L17.4464 18.5296C17.4633 18.5296 17.4909 18.5232 17.529 18.5105C17.5671 18.4978 17.5946 18.483 17.6116 18.466L18.3356 17.7287C18.4882 17.5932 18.6659 17.5254 18.8692 17.5254C19.0132 17.5254 19.1275 17.5508 19.2122 17.6016H19.2249L21.6766 19.0508C21.8545 19.161 21.9604 19.3008 21.9943 19.4703Z" fill="url(#paint1_linear)"/>
<defs>
<linearGradient id="paint0_linear" x1="2.38419e-07" y1="16" x2="32" y2="16" gradientUnits="userSpaceOnUse">
<stop stop-color="#FF2517"/>
<stop offset="1" stop-color="#FF5F1B"/>
</linearGradient>
<linearGradient id="paint1_linear" x1="10" y1="16" x2="22" y2="16" gradientUnits="userSpaceOnUse">
<stop stop-color="#FF2517"/>
<stop offset="1" stop-color="#FF5F1B"/>
</linearGradient>
</defs>
</svg>
