<svg width="14" height="14" viewBox="0 0 14 14" fill="none" xmlns="http://www.w3.org/2000/svg">
<path d="M13.2379 8.10481C13.6552 4.59215 13.0374 2.37453 11.923 1.3715L11.9236 1.37091C10.125 -0.341994 4.0509 -0.59552 1.89913 1.44784C0.932816 2.44738 0.592449 3.91434 0.555149 5.7304C0.517849 7.54705 0.473554 10.9501 3.64467 11.8733H3.64759L3.64467 13.2832C3.64467 13.2832 3.62311 13.8543 3.98795 13.9691C4.40525 14.1043 4.59409 13.8392 5.89202 12.2889C8.06244 12.4771 9.72931 12.0458 9.91872 11.9829C10.357 11.836 12.8369 11.5079 13.2379 8.10481ZM6.10592 11.2969C6.10592 11.2969 4.73221 13.0098 4.30501 13.4545C4.16513 13.599 4.01185 13.5856 4.01418 13.2989C4.01418 13.1106 4.02467 10.9583 4.02467 10.9583C1.33613 10.1878 1.49465 7.29003 1.52379 5.77411C1.55294 4.25762 1.83036 3.01563 2.64864 2.17928C4.53639 0.409261 9.86161 0.804995 11.2184 2.0802C12.8771 3.55066 12.2867 7.70499 12.2902 7.84662C11.9493 10.6873 9.9397 10.8674 9.5702 10.9903C9.41225 11.0428 7.94646 11.4199 6.10592 11.2969Z" fill="white"/>
<path d="M6.86751 2.51172C6.64312 2.51172 6.64312 2.86141 6.86751 2.86432C8.60839 2.87773 10.0421 4.09116 10.0579 6.31695C10.0579 6.55182 10.4017 6.54891 10.3988 6.31403H10.3982C10.3796 3.91573 8.81412 2.52512 6.86751 2.51172Z" fill="white"/>
<path d="M9.15467 5.9486C9.14942 6.18056 9.4927 6.19163 9.49562 5.95676C9.52417 4.63434 8.70881 3.54505 7.17658 3.43024C6.95219 3.41392 6.92888 3.76652 7.15268 3.78284C8.48151 3.88367 9.18148 4.79054 9.15467 5.9486Z" fill="white"/>
<path d="M8.78649 7.4526C8.49858 7.28592 8.20542 7.38966 8.08419 7.55343L7.83067 7.88156C7.70186 8.04825 7.46116 8.0261 7.46116 8.0261C5.70454 7.56159 5.23479 5.72338 5.23479 5.72338C5.23479 5.72338 5.21322 5.47452 5.37408 5.34105L5.69114 5.07878C5.84966 4.95289 5.94991 4.64983 5.78847 4.35201C5.35718 3.57278 5.06752 3.3041 4.92007 3.09778C4.76504 2.9037 4.53191 2.85999 4.28945 2.99112H4.28421C3.78007 3.28603 3.22814 3.83796 3.40474 4.40621C3.70605 5.00535 4.25973 6.91525 6.02451 8.35831C6.85386 9.04079 8.16637 9.74017 8.72355 9.90161L8.72879 9.90977C9.27781 10.0928 9.81167 9.51928 10.0967 8.99999V8.99591C10.2231 8.74471 10.1812 8.50692 9.99642 8.35131C9.66888 8.03193 9.17465 7.67932 8.78649 7.4526Z" fill="white"/>
<path d="M7.41749 4.73188C7.97758 4.76452 8.24917 5.0571 8.27831 5.65798C8.2888 5.89286 8.62975 5.87654 8.61926 5.64167C8.58196 4.85719 8.17282 4.42008 7.43614 4.37928C7.21175 4.36587 7.19077 4.71848 7.41749 4.73188Z" fill="white"/>
</svg>
