<svg width="40" height="40" viewBox="0 0 40 40" fill="none" xmlns="http://www.w3.org/2000/svg">
<path d="M34.702 11.5742H5.2981C4.36113 11.5742 3.60156 12.3188 3.60156 13.2373V30.3194C3.60156 31.2379 4.36113 31.9825 5.2981 31.9825H34.702C35.639 31.9825 36.3986 31.2379 36.3986 30.3194V13.2373C36.3986 12.3188 35.639 11.5742 34.702 11.5742Z" stroke="black" stroke-width="1.36364" stroke-miterlimit="10" stroke-linecap="round"/>
<path d="M25.272 8.01953H15.2907C14.9727 8.01953 14.7148 8.14919 14.7148 8.30914V11.2839C14.7148 11.4438 14.9727 11.5735 15.2907 11.5735H25.272C25.5901 11.5735 25.8479 11.4438 25.8479 11.2839V8.30914C25.8479 8.14919 25.5901 8.01953 25.272 8.01953Z" stroke="black" stroke-width="1.36364" stroke-miterlimit="10" stroke-linecap="round"/>
<circle cx="20.0009" cy="21.7782" r="5.85246" stroke="black" stroke-width="1.36364"/>
<circle cx="9.47619" cy="17.7027" r="1.77697" stroke="#FF531A" stroke-width="1.36364"/>
</svg>
