<svg width="189" height="34" viewBox="0 0 189 34" fill="none" xmlns="http://www.w3.org/2000/svg">
<g clip-path="url(#clip0)">
<path d="M8.16709 22.0368C8.16709 23.265 8.59115 24.2136 9.43927 24.8926C10.2874 25.5716 11.1879 25.9111 12.1407 25.9111C13.0935 25.9111 13.9835 25.6465 14.8159 25.1122C15.6484 24.578 16.3185 24.3134 16.8368 24.3134C17.7425 24.3134 18.8471 25.0773 20.1455 26.605C20.8418 27.4438 21.1873 28.1927 21.1873 28.8567C21.1873 29.9551 20.3549 30.9786 18.6901 31.9272C16.9676 33.0805 14.8473 33.6597 12.3396 33.6597C9.52827 33.6597 6.82161 32.6961 4.21966 30.7639C2.97889 29.8403 1.96848 28.6071 1.18318 27.0644C0.392648 25.5166 0 23.8141 0 21.9519C0 20.0896 0.392648 18.4071 1.17795 16.8893C1.96324 15.3766 2.97889 14.1583 4.21443 13.2347C6.72214 11.3325 9.40262 10.3789 12.2454 10.3789C13.3919 10.3789 14.5123 10.5287 15.6012 10.8332C16.6902 11.1378 17.4912 11.4324 18.0042 11.7219L18.732 12.1563C19.2764 12.5008 19.7005 12.7754 20.0041 12.9801C20.7894 13.5592 21.1821 14.2133 21.1821 14.9472C21.1821 15.6811 20.8627 16.5099 20.2292 17.4335C19.1403 19.0212 18.0985 19.815 17.0985 19.815C16.5226 19.815 15.7059 19.5005 14.6484 18.8614C14.1039 18.3722 13.3239 18.1275 12.3135 18.1275C11.2978 18.1275 10.3554 18.472 9.47592 19.166C8.60162 19.855 8.16709 20.8136 8.16709 22.0368Z" fill="white"/>
<path d="M37.7413 13.066C37.9245 11.4533 39.1182 10.6445 41.3275 10.6445C42.5054 10.6445 43.385 10.7294 43.9608 10.9041C44.5367 11.0789 44.9346 11.3785 45.165 11.8128C45.3901 12.2472 45.5262 12.6266 45.5733 12.9611C45.6204 13.2906 45.6414 13.7899 45.6414 14.4539V29.5967C45.6414 30.2607 45.6204 30.76 45.5733 31.0895C45.5262 31.419 45.4006 31.8034 45.1859 32.2378C44.7619 32.9867 43.7253 33.3611 42.0761 33.3611C40.427 33.3611 39.3224 33.1664 38.7674 32.777C38.2072 32.3876 37.8827 31.8184 37.7937 31.0695C36.6733 32.5973 34.8095 33.3611 32.1919 33.3611C29.5742 33.3611 27.1503 32.2228 24.9095 29.9461C22.6688 27.6695 21.5537 25.0234 21.5537 22.0078C21.5537 18.9923 22.6793 16.3561 24.9357 14.0895C27.1869 11.8278 29.658 10.6945 32.3542 10.6945C33.3803 10.6945 34.3174 10.8692 35.1655 11.2137C36.0136 11.5582 36.6 11.8827 36.9351 12.1873C37.2544 12.4818 37.5267 12.7764 37.7413 13.066ZM29.4852 22.0627C29.4852 23.0163 29.8779 23.8701 30.6632 24.634C31.4485 25.3978 32.4013 25.7823 33.5216 25.7823C34.642 25.7823 35.5686 25.3928 36.3121 24.614C37.0555 23.8351 37.4219 22.9764 37.4219 22.0378C37.4219 21.0992 37.0659 20.2304 36.3539 19.4216C35.6419 18.6128 34.6891 18.2084 33.4955 18.2084C32.3018 18.2084 31.3333 18.6128 30.5899 19.4216C29.8517 20.2304 29.4852 21.1091 29.4852 22.0627Z" fill="white"/>
<path d="M63.6146 10.8981C64.1905 11.0729 64.6669 11.3674 65.0439 11.7868C65.4208 12.2062 65.6093 12.8752 65.6093 13.7989C65.6093 14.7225 65.3214 15.731 64.7455 16.8294C64.1696 17.9278 63.3372 18.472 62.2482 18.472C61.7038 18.472 61.1802 18.3572 60.6829 18.1275C60.1855 17.8978 59.5259 17.783 58.7092 17.783C57.8925 17.783 57.1281 18.0576 56.4161 18.6068C55.7041 19.156 55.3481 19.82 55.3481 20.5989V29.6855C55.3481 30.3495 55.3272 30.8488 55.28 31.1783C55.2329 31.5078 55.0916 31.8923 54.8507 32.3266C54.3953 33.0755 53.2173 33.45 51.3117 33.45C49.8615 33.45 48.8144 33.2053 48.181 32.716C47.6993 32.3116 47.4271 31.6925 47.3643 30.8538V29.6006V14.403C47.3643 13.739 47.3852 13.2447 47.4323 12.9102C47.4794 12.5807 47.6051 12.2112 47.8197 11.8068C48.2438 11.0279 49.4217 10.6385 51.3588 10.6385C53.1754 10.6385 54.3063 10.973 54.7617 11.6321C55.0968 12.0914 55.2591 12.5707 55.2591 13.06C55.4109 12.8602 55.6308 12.6106 55.9187 12.326C56.2067 12.0365 56.8192 11.647 57.7563 11.1577C58.6935 10.6685 59.5154 10.4238 60.2274 10.4238C60.9394 10.4238 61.5362 10.4588 62.0179 10.5337C62.51 10.6036 63.0388 10.7284 63.6146 10.8981Z" fill="white"/>
<path d="M127.794 19.3165C127.794 21.0889 127.333 22.4019 126.412 23.2507C125.491 24.0994 124.47 24.5288 123.349 24.5288H112.601C112.601 25.3376 113.099 26.0166 114.099 26.5608C115.098 27.11 116.093 27.3846 117.093 27.3846C118.847 27.3846 120.224 27.2099 121.219 26.8654L121.716 26.6906C122.444 26.3711 123.046 26.2163 123.533 26.2163C124.501 26.2163 125.334 26.8654 126.03 28.1635C126.422 28.9423 126.621 29.6063 126.621 30.1555C126.621 32.7218 123.402 34.0049 116.957 34.0049C114.716 34.0049 112.732 33.6354 110.994 32.9015C109.256 32.1676 107.9 31.194 106.937 29.9808C105.031 27.6442 104.078 25.0331 104.078 22.1523C104.078 18.5176 105.308 15.6119 107.774 13.4351C110.24 11.2583 113.313 10.1699 117.004 10.1699C121.208 10.1699 124.292 11.5828 126.26 14.4087C127.281 15.9065 127.794 17.5391 127.794 19.3165ZM118.224 20.5896C119.37 20.5896 119.946 20.1303 119.946 19.2066C119.946 18.5426 119.679 18.0084 119.151 17.604C118.622 17.1996 117.863 16.9999 116.884 16.9999C115.899 16.9999 114.926 17.3843 113.957 18.1482C112.989 18.9121 112.507 19.7259 112.507 20.5946H118.224V20.5896Z" fill="white"/>
<path d="M146.029 1.14831C146.254 0.728928 146.657 0.434361 147.233 0.259618C147.809 0.0848752 148.573 0 149.526 0C150.479 0 151.243 0.0848752 151.819 0.259618C152.395 0.434361 152.793 0.733921 153.023 1.16828C153.248 1.60264 153.384 1.98209 153.431 2.31659C153.478 2.64611 153.499 3.14537 153.499 3.8094V29.6364C153.499 30.3004 153.478 30.7997 153.431 31.1292C153.384 31.4587 153.243 31.8282 153.002 32.2326C152.547 33.0115 151.269 33.4009 149.17 33.4009C147.065 33.4009 145.898 32.6969 145.652 31.279C144.379 32.662 142.615 33.3559 140.343 33.3559C137.621 33.3559 135.139 32.2226 132.904 29.9609C130.663 27.6993 129.548 25.0581 129.548 22.0426C129.548 19.027 130.673 16.3809 132.925 14.1043C135.176 11.8276 137.647 10.6893 140.343 10.6893C142.579 10.6893 144.322 11.4082 145.557 12.8511V3.76446C145.557 3.10044 145.578 2.60617 145.625 2.27166C145.662 1.94214 145.798 1.5627 146.029 1.14831ZM138.657 24.6587C139.443 25.4376 140.395 25.827 141.516 25.827C142.636 25.827 143.563 25.4376 144.306 24.6587C145.05 23.8799 145.416 23.0211 145.416 22.0825C145.416 21.1439 145.06 20.2752 144.348 19.4664C143.636 18.6576 142.678 18.2532 141.469 18.2532C140.259 18.2532 139.291 18.6476 138.568 19.4414C137.841 20.2352 137.479 21.109 137.479 22.0576C137.474 23.0112 137.867 23.8799 138.657 24.6587Z" fill="white"/>
<path d="M162.692 6.42555C162.467 6.84493 162.064 7.1395 161.488 7.31424C160.912 7.48899 160.148 7.57386 159.195 7.57386C158.242 7.57386 157.478 7.48899 156.902 7.31424C156.326 7.1395 155.928 6.83994 155.698 6.40558C155.473 5.97122 155.337 5.59178 155.29 5.25727C155.243 4.92775 155.222 4.42849 155.222 3.76446C155.222 3.10044 155.243 2.60617 155.29 2.27166C155.337 1.94214 155.463 1.57269 155.677 1.16828C156.101 0.389427 157.279 0 159.216 0C161.122 0 162.268 0.389427 162.661 1.16828C162.902 1.60264 163.048 1.98209 163.09 2.31659C163.137 2.64611 163.158 3.14537 163.158 3.8094C163.158 4.47342 163.137 4.97269 163.09 5.3022C163.059 5.63172 162.923 6.00617 162.692 6.42555Z" fill="white"/>
<path d="M155.23 14.4481C155.23 13.784 155.251 13.2898 155.299 12.9553C155.346 12.6257 155.471 12.2413 155.686 11.8069C156.11 11.058 157.288 10.6836 159.225 10.6836C160.675 10.6836 161.707 10.9282 162.309 11.4175C162.822 11.8219 163.094 12.441 163.125 13.2798C163.157 13.5693 163.172 13.9887 163.172 14.5329V29.6757C163.172 30.3397 163.152 30.8389 163.104 31.1685C163.057 31.498 162.916 31.8824 162.675 32.3168C162.282 33.0657 161.115 33.4401 159.183 33.4401C157.277 33.4401 156.115 33.0507 155.691 32.2718C155.477 31.8375 155.351 31.463 155.304 31.1485C155.257 30.829 155.236 30.3247 155.236 29.6357V14.4481H155.23Z" fill="white"/>
<path d="M181.106 13.066C181.289 11.4533 182.482 10.6445 184.692 10.6445C185.87 10.6445 186.749 10.7294 187.325 10.9041C187.901 11.0789 188.299 11.3785 188.529 11.8128C188.754 12.2472 188.89 12.6266 188.938 12.9611C188.985 13.2906 189.006 13.7899 189.006 14.4539V29.5967C189.006 30.2607 188.985 30.76 188.938 31.0895C188.89 31.419 188.765 31.8034 188.55 32.2378C188.126 32.9867 187.089 33.3611 185.44 33.3611C183.791 33.3611 182.687 33.1664 182.132 32.777C181.571 32.3876 181.247 31.8184 181.158 31.0695C180.038 32.5973 178.174 33.3611 175.556 33.3611C172.938 33.3611 170.514 32.2228 168.274 29.9461C166.033 27.6695 164.918 25.0234 164.918 22.0078C164.918 18.9923 166.044 16.3561 168.3 14.0895C170.551 11.8278 173.022 10.6945 175.718 10.6945C176.745 10.6945 177.682 10.8692 178.53 11.2137C179.378 11.5582 179.964 11.8827 180.299 12.1873C180.624 12.4818 180.896 12.7764 181.106 13.066ZM172.849 22.0627C172.849 23.0163 173.242 23.8701 174.027 24.634C174.813 25.3978 175.766 25.7823 176.886 25.7823C178.006 25.7823 178.933 25.3928 179.676 24.614C180.42 23.8351 180.786 22.9764 180.786 22.0378C180.786 21.0992 180.43 20.2304 179.718 19.4216C179.006 18.6128 178.053 18.2084 176.86 18.2084C175.666 18.2084 174.698 18.6128 173.954 19.4216C173.221 20.2304 172.849 21.1091 172.849 22.0627Z" fill="white"/>
<path d="M95.063 10.5449C93.6338 10.5449 92.4454 11.0442 91.3198 11.8031C90.4141 12.4122 89.4979 13.1711 88.922 14.1346C87.6341 11.9778 85.0793 10.5499 82.4983 10.5499C80.2157 10.5499 78.4671 11.6683 77.1321 13.4157C77.1216 13.216 77.1059 13.0462 77.0902 12.9114C77.0431 12.5919 76.9174 12.2175 76.7028 11.7881C76.2787 11.0092 75.1165 10.6198 73.2109 10.6198H71.3576C69.4467 10.6198 68.3001 10.9993 67.8499 11.7432C67.6091 12.1775 67.4625 12.557 67.4206 12.8915C67.3735 13.221 67.3525 13.7203 67.3525 14.3843V17.0853V26.9807V29.6368C67.3525 30.3308 67.3735 30.8351 67.4206 31.1496C67.4677 31.4691 67.5934 31.8436 67.808 32.273C68.2321 33.0518 69.3943 33.4412 71.3 33.4412C71.3104 33.4412 73.1428 33.4412 73.1533 33.4412C75.0642 33.4412 76.2107 33.0618 76.6609 32.3179C76.9017 31.8835 77.0483 31.5041 77.0902 31.1696C77.1216 30.9549 77.1373 30.6703 77.1478 30.3158C76.2473 29.8415 75.64 28.9329 75.64 27.8844C75.64 26.831 76.2526 25.9173 77.153 25.448V23.9302V20.1558C77.153 18.8877 77.6137 18.2536 78.5299 18.2536C79.4775 18.2536 79.9487 18.8877 79.9487 20.1558V23.9302V25.448C80.8544 25.9173 81.4669 26.836 81.4669 27.8844C81.4669 28.9329 80.8596 29.8465 79.9592 30.3158C79.9696 30.6703 79.9906 30.9499 80.0168 31.1496C80.0639 31.4691 80.1895 31.8436 80.4042 32.273C80.8282 33.0518 81.9905 33.4412 83.8961 33.4412C83.9066 33.4412 85.718 33.4412 85.7285 33.4412C87.6394 33.4412 88.7859 33.0618 89.2361 32.3179C89.477 31.8835 89.6235 31.5041 89.6654 31.1696C89.7125 30.8401 89.7335 30.3408 89.7335 29.6768V25.473C88.8278 25.0037 88.21 24.085 88.21 23.0316C88.21 21.9781 88.8278 21.0595 89.7335 20.5901V20.1558C89.7335 18.8877 90.1942 18.2536 91.1104 18.2536C92.058 18.2536 92.5292 18.8877 92.5292 20.1558V20.6001C93.4296 21.0744 94.0369 21.9831 94.0369 23.0316C94.0369 24.085 93.4191 25.0037 92.5134 25.473V29.6318C92.5134 30.3258 92.5344 30.8301 92.5815 31.1446C92.6286 31.4642 92.7543 31.8386 92.9689 32.268C93.393 33.0468 94.5552 33.4363 96.4609 33.4363C96.4713 33.4363 98.3037 33.4363 98.3142 33.4363C100.225 33.4363 101.372 33.0568 101.822 32.3129C102.063 31.8785 102.209 31.4991 102.251 31.1646C102.298 30.8351 102.319 30.3358 102.319 29.6718V18.2486C102.33 13.9948 99.0733 10.5449 95.063 10.5449Z" fill="url(#paint0_linear)"/>
</g>
<defs>
<linearGradient id="paint0_linear" x1="67.3525" y1="21.9931" x2="102.319" y2="21.9931" gradientUnits="userSpaceOnUse">
<stop stop-color="#FF2517"/>
<stop offset="1" stop-color="#FF5F1B"/>
</linearGradient>
<clipPath id="clip0">
<rect width="189" height="34" fill="white"/>
</clipPath>
</defs>
</svg>
