<svg width="13" height="10" viewBox="0 0 13 10" fill="none" xmlns="http://www.w3.org/2000/svg">
<path d="M0.146853 5.5C0.0489511 5.4 0 5.25 0 5.15C0 5.05 0.0489511 4.9 0.146853 4.8L0.832168 4.1C1.02797 3.9 1.32168 3.9 1.51748 4.1L1.56643 4.15L4.25874 7.1C4.35664 7.2 4.5035 7.2 4.6014 7.1L11.1608 0.15H11.2098C11.4056 -0.05 11.6993 -0.05 11.8951 0.15L12.5804 0.85C12.7762 1.05 12.7762 1.35 12.5804 1.55L4.74825 9.85C4.65035 9.95 4.55245 10 4.40559 10C4.25874 10 4.16084 9.95 4.06294 9.85L0.244755 5.65L0.146853 5.5Z" fill="#1D9E22"/>
</svg>
