<svg width="100" height="100" viewBox="0 0 100 100" fill="none" xmlns="http://www.w3.org/2000/svg">
<g filter="url(#filter0_d)">
<circle cx="50" cy="45" r="30" fill="white"/>
</g>
<circle cx="50" cy="45" r="25" fill="url(#paint0_linear)"/>
<path d="M58.982 35C57.7967 35 56.811 35.4143 55.8775 36.044C55.1264 36.5495 54.3665 37.1792 53.8889 37.9788C52.8208 36.1891 50.7019 35.0041 48.5613 35.0041C46.6682 35.0041 45.218 35.9322 44.1108 37.3823C44.1021 37.2165 44.0891 37.0757 44.0761 36.9638C44.037 36.6986 43.9328 36.3879 43.7547 36.0316C43.403 35.3853 42.4391 35.0621 40.8587 35.0621H39.3216C37.7368 35.0621 36.7859 35.377 36.4125 35.9943C36.2128 36.3548 36.0912 36.6696 36.0564 36.9472C36.0174 37.2207 36 37.635 36 38.186V40.4274V48.6389V50.843C36 51.4189 36.0174 51.8373 36.0564 52.0983C36.0955 52.3635 36.1997 52.6742 36.3777 53.0305C36.7294 53.6768 37.6934 54 39.2738 54C39.2825 54 40.8022 54 40.8109 54C42.3957 54 43.3466 53.6851 43.72 53.0678C43.9197 52.7074 44.0413 52.3925 44.0761 52.1149C44.1021 51.9368 44.1151 51.7006 44.1238 51.4065C43.377 51.0129 42.8733 50.2588 42.8733 49.3888C42.8733 48.5146 43.3813 47.7564 44.1282 47.367V46.1075V42.9754C44.1282 41.923 44.5102 41.3969 45.2701 41.3969C46.056 41.3969 46.4468 41.923 46.4468 42.9754V46.1075V47.367C47.1979 47.7564 47.7059 48.5188 47.7059 49.3888C47.7059 50.2588 47.2023 51.017 46.4555 51.4065C46.4641 51.7006 46.4815 51.9326 46.5032 52.0983C46.5423 52.3635 46.6465 52.6742 46.8245 53.0305C47.1762 53.6768 48.1401 54 49.7206 54C49.7293 54 51.2316 54 51.2403 54C52.8251 54 53.776 53.6851 54.1494 53.0678C54.3491 52.7074 54.4707 52.3925 54.5054 52.1149C54.5445 51.8415 54.5619 51.4272 54.5619 50.8761V47.3877C53.8107 46.9983 53.2984 46.2359 53.2984 45.3618C53.2984 44.4876 53.8107 43.7253 54.5619 43.3358V42.9754C54.5619 41.923 54.944 41.3969 55.7038 41.3969C56.4897 41.3969 56.8805 41.923 56.8805 42.9754V43.3441C57.6273 43.7377 58.131 44.4917 58.131 45.3618C58.131 46.2359 57.6186 46.9983 56.8675 47.3877V50.8389C56.8675 51.4147 56.8848 51.8332 56.9239 52.0942C56.963 52.3594 57.0672 52.6701 57.2452 53.0264C57.5969 53.6727 58.5608 53.9959 60.1413 53.9959C60.15 53.9959 61.6697 53.9959 61.6784 53.9959C63.2632 53.9959 64.2141 53.681 64.5875 53.0637C64.7872 52.7032 64.9088 52.3884 64.9435 52.1108C64.9826 51.8373 65 51.423 65 50.872V41.3927C65.0087 37.8628 62.308 35 58.982 35Z" fill="white"/>
<defs>
<filter id="filter0_d" x="0" y="0" width="100" height="100" filterUnits="userSpaceOnUse" color-interpolation-filters="sRGB">
<feFlood flood-opacity="0" result="BackgroundImageFix"/>
<feColorMatrix in="SourceAlpha" type="matrix" values="0 0 0 0 0 0 0 0 0 0 0 0 0 0 0 0 0 0 127 0"/>
<feOffset dy="5"/>
<feGaussianBlur stdDeviation="10"/>
<feColorMatrix type="matrix" values="0 0 0 0 0.0585694 0 0 0 0 0.0409722 0 0 0 0 0.166667 0 0 0 0.05 0"/>
<feBlend mode="normal" in2="BackgroundImageFix" result="effect1_dropShadow"/>
<feBlend mode="normal" in="SourceGraphic" in2="effect1_dropShadow" result="shape"/>
</filter>
<linearGradient id="paint0_linear" x1="25" y1="45" x2="75" y2="45" gradientUnits="userSpaceOnUse">
<stop stop-color="#FF2517"/>
<stop offset="1" stop-color="#FF5F1B"/>
</linearGradient>
</defs>
</svg>
