<svg width="12" height="20" viewBox="0 0 12 20" fill="none" xmlns="http://www.w3.org/2000/svg">
<path d="M9.87016 0H1.45437C0.649952 0 0 0.652936 0 1.45661V18.5441C0 19.3471 0.649952 20 1.45437 20H9.86941C10.6738 20 11.3253 19.3471 11.3253 18.5441V1.45661C11.326 0.652936 10.6753 0 9.87016 0ZM3.58555 0.885009H7.74047C7.84568 0.885009 7.93 1.04171 7.93 1.23647C7.93 1.43049 7.84568 1.58794 7.74047 1.58794H3.58555C3.48034 1.58794 3.39676 1.43049 3.39676 1.23647C3.39676 1.04171 3.48034 0.885009 3.58555 0.885009ZM5.66301 18.562C5.15036 18.562 4.73323 18.1457 4.73323 17.6323C4.73323 17.1189 5.15111 16.704 5.66301 16.704C6.17491 16.704 6.59204 17.1196 6.59204 17.6323C6.59204 18.1457 6.17417 18.562 5.66301 18.562ZM10.2351 15.3772H1.09096V2.45803H10.2351V15.3772Z" fill="#3E3E4B"/>
</svg>
