<svg width="17" height="22" viewBox="0 0 17 22" fill="none" xmlns="http://www.w3.org/2000/svg">
<path d="M16.7837 4.4544L8.57853 0.048477C8.4568 -0.0169915 8.31091 -0.0160727 8.1901 0.0507742L0.211996 4.45669C0.081151 4.52905 0 4.66734 0 4.8178V10.5731C0.00478701 15.304 2.78626 19.5841 7.08772 21.4794L8.19511 21.9657C8.2986 22.0112 8.41646 22.0115 8.52017 21.9662L9.76798 21.4232C14.1492 19.5689 16.9995 15.2475 17 10.4589V4.8178C17 4.66573 16.9168 4.52584 16.7837 4.4544ZM16.183 10.4589C16.1821 14.9174 13.5276 18.9404 9.44817 20.6658L9.44543 20.6672L8.35878 21.1399L7.4146 20.7248C3.41062 18.9606 0.821312 14.9769 0.816753 10.5731V5.06153L8.3891 0.879354L16.183 5.06452V10.4589Z" fill="#545468"/>
<path d="M5.37534 10.3061C5.22877 10.1332 4.97096 10.1127 4.79931 10.2604C4.62766 10.4079 4.60737 10.6679 4.75395 10.8407L6.91174 13.3871C7.05581 13.5571 7.30815 13.5803 7.48003 13.4392L12.5055 9.31906C12.6805 9.17571 12.707 8.91637 12.5645 8.73995C12.4223 8.56376 12.1649 8.53688 11.9898 8.68045L7.27396 12.5465L5.37534 10.3061Z" fill="#545468"/>
</svg>
