<svg width="18" height="18" viewBox="0 0 18 18" fill="none" xmlns="http://www.w3.org/2000/svg">
<g clip-path="url(#clip0)">
<path d="M17.3311 0H0.73819C0.349823 0 0.0350647 0.314758 0.0350647 0.703125C0.0350647 2.66116 0.87442 4.53049 2.33794 5.83141L5.41727 8.56838C5.9512 9.04299 6.25745 9.72496 6.25745 10.4395V17.2961C6.25745 17.8564 6.88367 18.1923 7.35045 17.8809L11.4988 15.1155C11.6943 14.9851 11.8119 14.7656 11.8119 14.5305V10.4395C11.8119 9.72496 12.1181 9.04299 12.652 8.56838L15.7312 5.83141C17.1948 4.53049 18.0341 2.66116 18.0341 0.703125C18.0341 0.314758 17.7194 0 17.3311 0ZM14.797 4.78029L11.7178 7.5174C10.8839 8.2587 10.4056 9.32369 10.4056 10.4393V14.1542L7.66356 15.9822V10.4395C7.66356 9.32369 7.18524 8.2587 6.35138 7.5174L3.27219 4.78043C2.28534 3.90303 1.65541 2.70085 1.48677 1.40611H16.5824C16.4138 2.70085 15.784 3.90303 14.797 4.78029Z" fill="white"/>
</g>
<defs>
<clipPath id="clip0">
<rect width="18" height="18" fill="white"/>
</clipPath>
</defs>
</svg>
