<svg width="24" height="22" viewBox="0 0 24 22" fill="none" xmlns="http://www.w3.org/2000/svg">
<path d="M7.85493 2.25934C9.93409 0.814374 12.5444 0.178518 15.042 0.537913C17.7341 0.899152 20.2553 2.39387 21.8815 4.59635C23.646 6.94989 24.3827 10.0776 23.8097 12.9822C23.344 15.5497 21.9034 17.929 19.826 19.479C17.8597 20.9812 15.3494 21.7349 12.8937 21.5248C9.58849 21.324 6.49614 19.339 4.80078 16.473C7.73848 14.7313 10.6763 12.9841 13.6304 11.2719C11.7513 8.24003 9.77589 5.26538 7.85493 2.25934Z" fill="#FFCF00"/>
<path d="M0.514273 6.97837C1.22842 4.70749 2.74099 2.73362 4.68019 1.40039C6.65962 4.4122 8.55859 7.47604 10.56 10.4711C7.52947 12.2426 4.49885 14.0141 1.47744 15.8004C-0.0717016 13.1804 -0.419624 9.87882 0.514273 6.97837Z" fill="#00B000"/>
</svg>
