<svg width="17" height="15" viewBox="0 0 17 15" fill="none" xmlns="http://www.w3.org/2000/svg">
<path d="M16.9919 11.8379C17.0279 12.0816 16.9438 12.2934 16.7399 12.4735L14.3464 14.5709C14.2384 14.6768 14.0975 14.7669 13.9235 14.841C13.7495 14.9152 13.5786 14.9628 13.4107 14.984C13.3987 14.984 13.3626 14.9867 13.3026 14.992C13.2427 14.9973 13.1647 15 13.0687 15C12.8407 15 12.4717 14.9656 11.9618 14.8967C11.4519 14.8278 10.8281 14.6583 10.0902 14.3882C9.35226 14.1181 8.51544 13.7128 7.57965 13.1726C6.64385 12.6325 5.648 11.8909 4.59219 10.9481C3.75234 10.2171 3.05647 9.51799 2.50457 8.85065C1.95267 8.18325 1.50875 7.56619 1.17282 6.99946C0.836847 6.43272 0.584893 5.91895 0.416924 5.45815C0.248955 4.99734 0.134975 4.6001 0.0749863 4.26641C0.0149973 3.93273 -0.00899836 3.67054 0.00299945 3.47987C0.0149973 3.28919 0.0209962 3.18326 0.0209962 3.16207C0.0449918 3.01377 0.0989819 2.86281 0.182967 2.70921C0.266951 2.55561 0.368933 2.43114 0.488911 2.3358L2.88247 0.222457C3.05044 0.0741524 3.24241 0 3.45837 0C3.61434 0 3.75231 0.0397245 3.87229 0.119174C3.99227 0.198623 4.09425 0.29661 4.17824 0.413135L6.10389 3.63876C6.21187 3.80826 6.24186 3.99364 6.19387 4.19491C6.14588 4.39618 6.0439 4.56567 5.88793 4.70338L5.00609 5.48198C4.98209 5.50317 4.96109 5.5376 4.9431 5.58527C4.9251 5.63294 4.9161 5.67266 4.9161 5.70444C4.96409 5.9269 5.07207 6.18113 5.24004 6.46715C5.38402 6.72139 5.60598 7.03124 5.90592 7.3967C6.20587 7.76217 6.63179 8.18322 7.18369 8.65992C7.72359 9.14726 8.2035 9.52591 8.62343 9.79609C9.04326 10.0661 9.39431 10.2648 9.67626 10.3919C9.95821 10.519 10.1742 10.5958 10.3241 10.6223L10.549 10.662C10.573 10.662 10.6121 10.654 10.666 10.6382C10.72 10.6223 10.759 10.6037 10.783 10.5825L11.8088 9.66092C12.0249 9.49146 12.2767 9.40671 12.5647 9.40671C12.7687 9.40671 12.9306 9.43846 13.0506 9.50205H13.0686L16.5419 11.3135C16.7939 11.4513 16.9439 11.626 16.9919 11.8379Z" fill="#232331"/>
</svg>
