<svg width="40" height="40" viewBox="0 0 40 40" fill="none" xmlns="http://www.w3.org/2000/svg">
<g filter="url(#filter0_d)">
<circle cx="20" cy="16" r="16" fill="url(#paint0_linear)"/>
<circle cx="20" cy="16" r="15" stroke="white" stroke-width="2"/>
</g>
<path d="M25.7807 12.6529H23.8512L22.7372 11.4355H18.4764V13.2616H16.6503V15.0877H14.8242V21.1747C14.8242 21.8442 15.372 22.3921 16.0416 22.3921H25.7807C26.4503 22.3921 26.9981 21.8442 26.9981 21.1747V13.8703C26.9981 13.2008 26.4503 12.6529 25.7807 12.6529ZM20.9112 20.566C19.2312 20.566 17.8677 19.2025 17.8677 17.5225C17.8677 15.8425 19.2312 14.479 20.9112 14.479C22.5912 14.479 23.9546 15.8425 23.9546 17.5225C23.9546 19.2025 22.5912 20.566 20.9112 20.566Z" fill="white"/>
<path d="M14.8261 14.4789H16.0435V12.6529H17.8696V11.4355H16.0435V9.60938H14.8261V11.4355H13V12.6529H14.8261V14.4789Z" fill="white"/>
<path d="M20.9127 15.5742C19.8353 15.5742 18.9648 16.4447 18.9648 17.5221C18.9648 18.5994 19.8353 19.4699 20.9127 19.4699C21.9901 19.4699 22.8605 18.5994 22.8605 17.5221C22.8605 16.4447 21.9901 15.5742 20.9127 15.5742Z" fill="white"/>
<defs>
<filter id="filter0_d" x="0" y="0" width="40" height="40" filterUnits="userSpaceOnUse" color-interpolation-filters="sRGB">
<feFlood flood-opacity="0" result="BackgroundImageFix"/>
<feColorMatrix in="SourceAlpha" type="matrix" values="0 0 0 0 0 0 0 0 0 0 0 0 0 0 0 0 0 0 127 0"/>
<feOffset dy="4"/>
<feGaussianBlur stdDeviation="2"/>
<feColorMatrix type="matrix" values="0 0 0 0 0 0 0 0 0 0 0 0 0 0 0 0 0 0 0.1 0"/>
<feBlend mode="normal" in2="BackgroundImageFix" result="effect1_dropShadow"/>
<feBlend mode="normal" in="SourceGraphic" in2="effect1_dropShadow" result="shape"/>
</filter>
<linearGradient id="paint0_linear" x1="4" y1="16" x2="36" y2="16" gradientUnits="userSpaceOnUse">
<stop stop-color="#FF2517"/>
<stop offset="1" stop-color="#FF5F1B"/>
</linearGradient>
</defs>
</svg>
