<svg width="40" height="40" viewBox="0 0 40 40" fill="none" xmlns="http://www.w3.org/2000/svg">
<path d="M31.6543 12.5223L33.5629 10.6137C34.4231 9.75351 34.4231 8.35886 33.5629 7.49866V7.49866C32.7027 6.63847 31.308 6.63847 30.4478 7.49866L28.5392 9.40724C23.8117 6.00351 17.3924 6.00351 12.6649 9.40724L10.7563 7.49866C9.89608 6.63847 8.50144 6.63847 7.64123 7.49866V7.49866C6.78105 8.35886 6.78105 9.75351 7.64123 10.6137L9.54982 12.5223C6.14608 17.2498 6.14608 23.6691 9.54982 28.3967L7.64123 30.3053C6.78105 31.1654 6.78105 32.5601 7.64123 33.4203C8.50144 34.2805 9.89608 34.2805 10.7563 33.4203L12.6649 31.5117C17.3924 34.9155 23.8117 34.9155 28.5392 31.5117L30.4478 33.4203C31.308 34.2805 32.7027 34.2805 33.5629 33.4203C34.4231 32.5601 34.4231 31.1654 33.5629 30.3053L31.6543 28.3967C35.058 23.6691 35.058 17.2499 31.6543 12.5223Z" stroke="black" stroke-width="1.36364" stroke-miterlimit="10"/>
<path d="M20.6096 30.1703C25.9729 30.1703 30.3207 25.8225 30.3207 20.4592C30.3207 15.0959 25.9729 10.748 20.6096 10.748C15.2463 10.748 10.8984 15.0959 10.8984 20.4592C10.8984 25.8225 15.2463 30.1703 20.6096 30.1703Z" stroke="black" stroke-width="1.36364" stroke-miterlimit="10"/>
<path d="M20.6026 25.4434C23.3559 25.4434 25.588 23.2114 25.588 20.458C25.588 17.7047 23.3559 15.4727 20.6026 15.4727C17.8492 15.4727 15.6172 17.7047 15.6172 20.458C15.6172 23.2114 17.8492 25.4434 20.6026 25.4434Z" stroke="#FF531A" stroke-width="1.36364" stroke-miterlimit="10"/>
<path d="M31.9851 9.78072C32.3889 9.78072 32.7163 9.45336 32.7163 9.04954C32.7163 8.64572 32.3889 8.31836 31.9851 8.31836C31.5813 8.31836 31.2539 8.64572 31.2539 9.04954C31.2539 9.45336 31.5813 9.78072 31.9851 9.78072Z" fill="black"/>
<path d="M9.23091 9.78268C9.62811 9.78268 9.95011 9.45532 9.95011 9.05149C9.95011 8.64767 9.62811 8.32031 9.23091 8.32031C8.83371 8.32031 8.51172 8.64767 8.51172 9.05149C8.51172 9.45532 8.83371 9.78268 9.23091 9.78268Z" fill="black"/>
<path d="M31.9851 32.6245C32.3889 32.6245 32.7163 32.2971 32.7163 31.8933C32.7163 31.4895 32.3889 31.1621 31.9851 31.1621C31.5813 31.1621 31.2539 31.4895 31.2539 31.8933C31.2539 32.2971 31.5813 32.6245 31.9851 32.6245Z" fill="black"/>
<path d="M9.2429 32.6264C9.64672 32.6264 9.97408 32.2991 9.97408 31.8952C9.97408 31.4914 9.64672 31.1641 9.2429 31.1641C8.83908 31.1641 8.51172 31.4914 8.51172 31.8952C8.51172 32.2991 8.83908 32.6264 9.2429 32.6264Z" fill="black"/>
</svg>
