<svg width="10" height="10" viewBox="0 0 10 10" fill="none" xmlns="http://www.w3.org/2000/svg">
<path d="M0.462895 1.49508C0.128161 1.15311 0.128162 0.598663 0.462896 0.256692C0.79763 -0.0852798 1.34034 -0.0852796 1.67507 0.256692L9.74895 8.50513C10.0837 8.84711 10.0837 9.40155 9.74895 9.74352C9.41421 10.0855 8.8715 10.0855 8.53677 9.74352L0.462895 1.49508Z" fill="#4C5458"/>
<path d="M1.46323 9.74331C1.1285 10.0853 0.585785 10.0853 0.251051 9.74331C-0.0836836 9.40134 -0.0836835 8.84689 0.251051 8.50492L8.32492 0.256478C8.65966 -0.085493 9.20237 -0.0854927 9.5371 0.256479C9.87184 0.59845 9.87184 1.1529 9.5371 1.49487L1.46323 9.74331Z" fill="#4C5458"/>
</svg>
