<svg width="12" height="16" viewBox="0 0 12 16" fill="none" xmlns="http://www.w3.org/2000/svg">
<path d="M3.00233 6.00271C1.3492 6.00271 0.00390625 4.65742 0.00390625 3.00429C0.00390625 1.35115 1.3492 0.00585938 3.00233 0.00585938C4.65546 0.00585938 6.00076 1.35115 6.00076 3.00429C6.00076 4.65742 4.65546 6.00271 3.00233 6.00271ZM3.00233 2.00481C2.45062 2.00481 2.00286 2.45257 2.00286 3.00429C2.00286 3.556 2.45062 4.00376 3.00233 4.00376C3.55404 4.00376 4.00181 3.556 4.00181 3.00429C4.00181 2.45257 3.55404 2.00481 3.00233 2.00481Z" fill="white"/>
<path d="M8.99891 15.9969C7.34578 15.9969 6.00049 14.6516 6.00049 12.9984C6.00049 11.3453 7.34578 10 8.99891 10C10.652 10 11.9973 11.3453 11.9973 12.9984C11.9973 14.6516 10.652 15.9969 8.99891 15.9969ZM8.99891 11.999C8.4492 11.999 7.99944 12.4487 7.99944 12.9984C7.99944 13.5481 8.4492 13.9979 8.99891 13.9979C9.54863 13.9979 9.99839 13.5481 9.99839 12.9984C9.99839 12.4487 9.54863 11.999 8.99891 11.999Z" fill="white"/>
<path d="M1.00298 15.9966C0.801085 15.9966 0.599191 15.9367 0.423283 15.8107C-0.0264805 15.4889 -0.130426 14.8652 0.191405 14.4155L10.1862 0.422795C10.508 -0.0269688 11.1317 -0.130915 11.5814 0.190917C12.0312 0.510749 12.1331 1.13642 11.8133 1.58419L1.81855 15.5768C1.62065 15.8507 1.31482 15.9966 1.00298 15.9966Z" fill="white"/>
</svg>
