<svg width="13" height="20" viewBox="0 0 13 20" fill="none" xmlns="http://www.w3.org/2000/svg">
<path d="M3.44219 19.9737C3.64534 20.0776 3.85964 19.8527 3.73526 19.6665C3.06014 18.6561 2.42085 16.9558 3.4394 14.7661C5.13796 11.1146 6.17153 9.22335 6.17153 9.22335C6.17153 9.22335 6.72128 11.4304 8.21152 13.3928C9.6458 15.2815 10.4308 17.6568 9.16524 19.6356C9.04646 19.8213 9.2559 20.0404 9.45773 19.9411C11.0244 19.1704 12.7815 17.6246 12.9798 14.5484C13.0529 13.6084 12.9432 12.2924 12.3951 10.6317C11.6902 8.52691 10.8237 7.54479 10.3223 7.12303C10.1724 6.99685 9.93914 7.10868 9.95144 7.29992C10.0975 9.57097 9.20907 10.1473 8.70337 8.84848C8.5014 8.32973 8.38362 7.43247 8.38362 6.33979C8.38362 4.52067 7.83478 2.64806 6.6248 1.12636C6.31015 0.730642 5.94197 0.360871 5.51956 0.0455439C5.36663 -0.0686391 5.14496 0.0461321 5.15896 0.231818C5.25187 1.46502 5.1677 4.9993 1.94331 9.22165C-0.98025 13.1384 0.152623 16.1464 0.554613 16.9611C1.32318 18.5218 2.39522 19.4384 3.44219 19.9737Z" fill="white"/>
</svg>
