<svg width="14" height="14" viewBox="0 0 14 14" fill="none" xmlns="http://www.w3.org/2000/svg">
<path fill-rule="evenodd" clip-rule="evenodd" d="M7 14C10.866 14 14 10.866 14 7C14 3.13401 10.866 0 7 0C3.13401 0 0 3.13401 0 7C0 10.866 3.13401 14 7 14ZM4 5.67837V6.65225V6.65306H6.41593C5.77319 6.91265 5.46313 7.07674 5.16649 7.30204H4V8.27674H4.49945C4.4904 8.30305 4.48148 8.32812 4.47283 8.35242C4.42137 8.49694 4.37961 8.61424 4.37961 8.80572C4.37961 9.10123 4.44079 9.37633 4.5623 9.63102C4.68464 9.88572 4.85559 10.1135 5.07682 10.3135C5.32319 10.5331 5.60224 10.702 5.91397 10.8212C6.2257 10.9404 6.61537 11 7.08297 11C7.63855 11 8.11202 10.9429 8.50252 10.8269C8.80051 10.7391 9.02335 10.6256 9.26525 10.5024C9.34036 10.4641 9.41729 10.425 9.49889 10.3853V9.00572C9.16369 9.33551 8.81425 9.55265 8.38855 9.73388C7.96202 9.9151 7.55224 10.0057 7.15922 10.0057C6.59442 10.0057 6.3338 9.8147 6.04554 9.5951C5.75727 9.37551 5.69609 9.3151 5.69609 8.92653C5.69609 8.59755 5.77989 8.4351 5.91649 8.27592H10V7.30204H7C7.11157 7.25147 7.22529 7.23196 7.34886 7.21075C7.49258 7.18609 7.64963 7.15914 7.83213 7.07837C8.02064 6.9974 8.2256 6.87132 8.39848 6.76497C8.46614 6.72335 8.52888 6.68475 8.5838 6.65306H10V5.67918H9.41677C9.51544 5.51819 9.51484 5.51014 9.50691 5.40297C9.50386 5.36179 9.49973 5.30598 9.49973 5.22123C9.49973 4.59265 9.2609 4.06531 8.78325 3.63918C8.30475 3.21306 7.6947 3 6.9514 3C6.52738 3 6.12682 3.04163 5.74973 3.12327C5.37347 3.20653 4.82375 3.41388 4.50028 3.56653V5.02776C4.73743 4.80653 5.32067 4.40735 5.69526 4.24163C6.06984 4.07592 6.46369 3.99265 6.87682 3.99265C7.33939 3.99265 7.54805 4.10857 7.83548 4.33878C8.12291 4.5698 8.26621 4.71021 8.26621 5.08572C8.24469 5.14349 8.22446 5.20095 8.20502 5.25619C8.13433 5.457 8.07399 5.62843 7.99973 5.67837H4Z" fill="white"/>
</svg>
