<svg width="14" height="14" viewBox="0 0 14 14" fill="none" xmlns="http://www.w3.org/2000/svg">
<path d="M8.17907 5.75407C8.04212 5.58892 7.8692 5.4573 7.67355 5.36928C7.4779 5.28126 7.2647 5.23917 7.05027 5.24624C6.49567 5.24624 5.98785 5.40645 5.98785 5.87429C5.98785 6.31519 6.5158 6.39544 7.07693 6.46208C8.05232 6.58257 9.09462 6.75611 9.09462 7.93195C9.07665 8.33581 8.9005 8.71637 8.60423 8.99141C8.30797 9.26645 7.91538 9.41388 7.51131 9.40184V10.0699H6.66268V9.43557C6.29246 9.42767 5.93181 9.31655 5.62136 9.1147C5.3109 8.91286 5.06299 8.62833 4.90555 8.29317L5.69407 7.95862C5.83131 8.18507 6.0275 8.36997 6.26167 8.49358C6.49585 8.61718 6.7592 8.67483 7.0236 8.66037C7.62472 8.66037 8.17905 8.4531 8.17905 7.93195C8.17905 7.49105 7.62472 7.33057 7.00347 7.25713C6.04794 7.15023 5.11281 6.98323 5.11281 5.87429C5.11281 4.99899 5.88773 4.59807 6.66266 4.50477V3.92351H7.51129V4.50477C7.80248 4.52347 8.08377 4.61771 8.32745 4.7782C8.57113 4.9387 8.76879 5.15991 8.90096 5.42005L8.17907 5.75407Z" fill="white"/>
<path d="M7.00002 12.7162C5.86881 12.7162 4.76299 12.3808 3.82242 11.7523C2.88185 11.1238 2.14876 10.2306 1.71586 9.18547C1.28297 8.14036 1.1697 6.99035 1.39039 5.88087C1.61108 4.77139 2.15581 3.75227 2.9557 2.95238C3.75559 2.15248 4.77472 1.60775 5.8842 1.38706C6.99368 1.16637 8.14369 1.27964 9.18879 1.71254C10.2339 2.14543 11.1272 2.87852 11.7556 3.81909C12.3841 4.75967 12.7196 5.86548 12.7196 6.9967C12.7179 8.5131 12.1147 9.96691 11.0425 11.0392C9.97023 12.1114 8.51642 12.7146 7.00002 12.7162ZM7.00002 1.78936C5.97011 1.78936 4.96332 2.09477 4.10698 2.66695C3.25064 3.23914 2.5832 4.05242 2.18907 5.00393C1.79494 5.95545 1.69182 7.00247 1.89274 8.0126C2.09367 9.02272 2.58962 9.95058 3.31788 10.6788C4.04614 11.4071 4.974 11.903 5.98412 12.104C6.99425 12.3049 8.04127 12.2018 8.99278 11.8076C9.9443 11.4135 10.7576 10.7461 11.3298 9.88974C11.902 9.03339 12.2074 8.02661 12.2074 6.9967C12.2058 5.61609 11.6567 4.29247 10.6805 3.31624C9.70424 2.34 8.38063 1.79089 7.00002 1.78936Z" fill="white"/>
<path d="M13.5738 9.02408C13.558 9.02411 13.5423 9.02187 13.5272 9.01741C13.5056 9.01137 13.4854 9.00111 13.4677 8.98723C13.4501 8.97334 13.4354 8.9561 13.4245 8.93651C13.4136 8.91691 13.4067 8.89535 13.4042 8.87306C13.4016 8.85078 13.4035 8.82821 13.4098 8.80666C13.8177 7.36137 13.7251 5.82065 13.1471 4.43459C12.5691 3.04854 11.5396 1.89852 10.2257 1.17122C8.91183 0.443921 7.39071 0.182034 5.90926 0.428072C4.42781 0.67411 3.07299 1.41363 2.06475 2.52658C2.03432 2.5601 1.99183 2.58016 1.94662 2.58235C1.9014 2.58454 1.85717 2.56868 1.82365 2.53826C1.79013 2.50783 1.77007 2.46534 1.76788 2.42013C1.7657 2.37491 1.78156 2.33068 1.81198 2.29716C2.8724 1.12837 4.29656 0.352067 5.85349 0.0941529C7.41043 -0.163761 9.00884 0.111837 10.3895 0.876252C11.7702 1.64067 12.8521 2.84907 13.4599 4.3055C14.0677 5.76192 14.1656 7.38095 13.7379 8.90003C13.7278 8.93577 13.7063 8.96723 13.6767 8.98963C13.6471 9.01202 13.611 9.02412 13.5738 9.02408Z" fill="white"/>
<path d="M3.4255 2.11532C3.42259 2.10379 3.41744 2.09295 3.41034 2.08342C3.40323 2.07388 3.39432 2.06584 3.38411 2.05975C3.3739 2.05367 3.36259 2.04965 3.35083 2.04793C3.33906 2.04622 3.32708 2.04684 3.31555 2.04976L1.97291 2.38728L2.23475 1.02787C2.23708 1.01617 2.23707 1.00412 2.23472 0.992423C2.23238 0.980724 2.22775 0.969604 2.22109 0.959703C2.21443 0.949801 2.20588 0.941314 2.19594 0.934728C2.18599 0.928143 2.17483 0.92359 2.16312 0.92133C2.1514 0.919071 2.13936 0.919151 2.12767 0.921564C2.11599 0.923977 2.1049 0.928677 2.09503 0.935393C2.08517 0.942109 2.07674 0.950709 2.07021 0.960697C2.06368 0.970685 2.0592 0.981865 2.05701 0.993594L1.76831 2.49255C1.76543 2.50749 1.76637 2.52292 1.77104 2.53741C1.77571 2.5519 1.78395 2.56497 1.79501 2.57543C1.80607 2.58589 1.81959 2.59339 1.83432 2.59724C1.84904 2.60108 1.8645 2.60116 1.87926 2.59745L3.3597 2.2253C3.38299 2.21941 3.40298 2.20453 3.41532 2.18392C3.42765 2.16331 3.43131 2.13866 3.4255 2.11535V2.11532Z" fill="white"/>
<path d="M7.00003 13.9968C5.78646 13.9964 4.59383 13.6806 3.53908 13.0804C2.48433 12.4802 1.60368 11.6161 0.983485 10.573C0.363287 9.52988 0.0248345 8.34348 0.00131542 7.13014C-0.0222037 5.9168 0.270018 4.71818 0.849326 3.6518C0.859974 3.63195 0.874443 3.6144 0.8919 3.60016C0.909357 3.58593 0.929458 3.57528 0.951045 3.56884C0.972632 3.5624 0.99528 3.56029 1.01768 3.56264C1.04009 3.56498 1.06181 3.57173 1.08159 3.58251C1.10138 3.59328 1.11884 3.60786 1.13297 3.6254C1.1471 3.64295 1.15762 3.66311 1.16393 3.68474C1.17023 3.70637 1.1722 3.72903 1.16971 3.75142C1.16723 3.77381 1.16034 3.79548 1.14945 3.8152C0.314443 5.3515 0.117157 7.15457 0.600188 8.83508C1.08322 10.5156 2.20781 11.9387 3.73113 12.7971C5.25446 13.6556 7.05429 13.8805 8.74201 13.4232C10.4297 12.966 11.8699 11.8633 12.7516 10.3534C12.7745 10.3145 12.8119 10.2864 12.8556 10.275C12.8992 10.2637 12.9456 10.2701 12.9845 10.2928C13.0234 10.3156 13.0518 10.3528 13.0634 10.3964C13.075 10.4399 13.0689 10.4863 13.0464 10.5254C12.4275 11.5799 11.5443 12.4548 10.4839 13.0636C9.42354 13.6723 8.22272 13.994 7.00003 13.9968Z" fill="white"/>
<path d="M11.4934 11.017C11.4984 11.0277 11.5056 11.0374 11.5144 11.0454C11.5232 11.0534 11.5335 11.0595 11.5447 11.0635C11.5559 11.0676 11.5678 11.0693 11.5796 11.0687C11.5915 11.0682 11.6032 11.0652 11.6139 11.0602L12.8666 10.4708L12.871 11.8552C12.8708 11.8672 12.8729 11.8792 12.8774 11.8904C12.8819 11.9016 12.8885 11.9118 12.897 11.9203C12.9054 11.9289 12.9155 11.9357 12.9266 11.9404C12.9378 11.945 12.9497 11.9474 12.9617 11.9473C12.9738 11.9473 12.9857 11.9449 12.9968 11.9402C13.0079 11.9355 13.0179 11.9286 13.0263 11.92C13.0347 11.9113 13.0413 11.9011 13.0457 11.8899C13.0501 11.8787 13.0522 11.8667 13.052 11.8547L13.0471 10.3282C13.0471 10.3129 13.0432 10.298 13.0358 10.2847C13.0284 10.2713 13.0178 10.2601 13.005 10.2519C12.9921 10.2438 12.9774 10.239 12.9622 10.2381C12.947 10.2372 12.9318 10.2401 12.918 10.2465L11.5368 10.8963C11.515 10.9066 11.4983 10.9251 11.4901 10.9477C11.482 10.9703 11.4831 10.9952 11.4933 11.0169L11.4934 11.017Z" fill="white"/>
</svg>
