<svg width="45" height="45" viewBox="0 0 45 45" fill="none" xmlns="http://www.w3.org/2000/svg">
<circle opacity="0.07" cx="22.5" cy="22.5" r="22.5" fill="url(#paint0_linear)"/>
<path d="M22.5 24.8859C19.337 24.8859 16.7638 27.3788 16.7638 30.4429C16.7638 33.507 19.337 36 22.5 36C25.6629 36 28.2361 33.5071 28.2361 30.443C28.2361 27.3788 25.6629 24.8859 22.5 24.8859ZM22.5 35.1946C19.7954 35.1946 17.5952 33.063 17.5952 30.443C17.5952 27.8229 19.7954 25.6913 22.5 25.6913C25.2045 25.6913 27.4048 27.8229 27.4048 30.443C27.4048 33.063 25.2045 35.1946 22.5 35.1946Z" fill="url(#paint1_linear)"/>
<path d="M25.8974 28.4401C25.7352 28.2828 25.4719 28.2828 25.3097 28.4401L21.6132 32.0212L19.6902 30.1583C19.5279 30.001 19.2647 30.001 19.1025 30.1583C18.9401 30.3155 18.9401 30.5705 19.1025 30.7277L21.3193 32.8754C21.4005 32.954 21.5069 32.9933 21.6132 32.9933C21.7196 32.9933 21.826 32.954 21.9071 32.8754L25.8975 29.0096C26.0598 28.8523 26.0598 28.5973 25.8974 28.4401Z" fill="url(#paint2_linear)"/>
<path d="M32.6975 12H12.3024C11.5843 12 11 12.566 11 13.2617V31.302C11 31.9977 11.5843 32.5637 12.3024 32.5637H15.406C15.6355 32.5637 15.8217 32.3835 15.8217 32.161C15.8217 31.9386 15.6356 31.7583 15.406 31.7583H12.3024C12.0426 31.7583 11.8313 31.5536 11.8313 31.302V13.2617C11.8313 13.0101 12.0426 12.8054 12.3024 12.8054H19.4241V18.8456C19.4241 18.9852 19.4987 19.1148 19.6212 19.1882C19.7437 19.2616 19.8967 19.2682 20.0256 19.2058L20.7265 18.8663L21.4272 19.2058C21.5442 19.2624 21.6819 19.2626 21.7989 19.2058L22.5001 18.8663L23.201 19.2057C23.318 19.2624 23.4557 19.2624 23.5728 19.2057L24.2736 18.8663L24.9744 19.2057C25.0331 19.2341 25.0968 19.2482 25.1603 19.2482C25.2363 19.2482 25.3121 19.228 25.3788 19.1881C25.5013 19.1147 25.5759 18.9851 25.5759 18.8455V12.8054H32.6976C32.9574 12.8054 33.1687 13.0101 33.1687 13.2617V31.302C33.1687 31.5537 32.9574 31.7584 32.6976 31.7584H29.5938C29.3642 31.7584 29.1781 31.9387 29.1781 32.1611C29.1781 32.3835 29.3642 32.5638 29.5938 32.5638H32.6976C33.4157 32.5638 34 31.9978 34 31.302V13.2617C33.9999 12.566 33.4156 12 32.6975 12ZM24.7445 18.1941L24.4594 18.056C24.3423 17.9992 24.2046 17.9992 24.0875 18.056L23.3868 18.3954L22.6859 18.056C22.5689 17.9993 22.4312 17.9992 22.3142 18.056L21.613 18.3954L20.9122 18.056C20.8537 18.0276 20.79 18.0135 20.7263 18.0135C20.6627 18.0135 20.599 18.0276 20.5404 18.056L20.2553 18.1941V12.8054H24.7445V18.1941H24.7445Z" fill="url(#paint3_linear)"/>
<path d="M17.4734 17.7019C17.311 17.5446 17.0479 17.5446 16.8856 17.7019L16.265 18.303V15.8389C16.265 15.6165 16.0789 15.4362 15.8494 15.4362C15.6198 15.4362 15.4337 15.6165 15.4337 15.8389V18.303L14.8131 17.7019C14.6508 17.5446 14.3876 17.5446 14.2253 17.7019C14.063 17.8591 14.063 18.1141 14.2253 18.2713L15.5555 19.5599C15.6366 19.6385 15.743 19.6778 15.8494 19.6778C15.9557 19.6778 16.0621 19.6386 16.1432 19.5599L17.4734 18.2713C17.6357 18.1141 17.6357 17.859 17.4734 17.7019Z" fill="url(#paint4_linear)"/>
<path d="M17.1795 13.7181H14.5192C14.2897 13.7181 14.1035 13.8984 14.1035 14.1208C14.1035 14.3432 14.2896 14.5235 14.5192 14.5235H17.1795C17.409 14.5235 17.5952 14.3432 17.5952 14.1208C17.5952 13.8984 17.4091 13.7181 17.1795 13.7181Z" fill="url(#paint5_linear)"/>
<defs>
<linearGradient id="paint0_linear" x1="3.35276e-07" y1="22.5" x2="45" y2="22.5" gradientUnits="userSpaceOnUse">
<stop stop-color="#FF2517"/>
<stop offset="1" stop-color="#FF5F1B"/>
</linearGradient>
<linearGradient id="paint1_linear" x1="11" y1="24" x2="34" y2="24" gradientUnits="userSpaceOnUse">
<stop stop-color="#FF2517"/>
<stop offset="1" stop-color="#FF5F1B"/>
</linearGradient>
<linearGradient id="paint2_linear" x1="11" y1="24" x2="34" y2="24" gradientUnits="userSpaceOnUse">
<stop stop-color="#FF2517"/>
<stop offset="1" stop-color="#FF5F1B"/>
</linearGradient>
<linearGradient id="paint3_linear" x1="11" y1="24" x2="34" y2="24" gradientUnits="userSpaceOnUse">
<stop stop-color="#FF2517"/>
<stop offset="1" stop-color="#FF5F1B"/>
</linearGradient>
<linearGradient id="paint4_linear" x1="11" y1="24" x2="34" y2="24" gradientUnits="userSpaceOnUse">
<stop stop-color="#FF2517"/>
<stop offset="1" stop-color="#FF5F1B"/>
</linearGradient>
<linearGradient id="paint5_linear" x1="11" y1="24" x2="34" y2="24" gradientUnits="userSpaceOnUse">
<stop stop-color="#FF2517"/>
<stop offset="1" stop-color="#FF5F1B"/>
</linearGradient>
</defs>
</svg>
