<svg width="19" height="19" viewBox="0 0 19 19" fill="none" xmlns="http://www.w3.org/2000/svg">
<path d="M6.45703 8.90625H2.44922C1.0987 8.90625 0 7.80755 0 6.45703V2.44922C0 1.0987 1.0987 0 2.44922 0H6.45703C7.80755 0 8.90625 1.0987 8.90625 2.44922V6.45703C8.90625 7.80755 7.80755 8.90625 6.45703 8.90625ZM2.44922 1.1875C1.75349 1.1875 1.1875 1.75349 1.1875 2.44922V6.45703C1.1875 7.15276 1.75349 7.71875 2.44922 7.71875H6.45703C7.15276 7.71875 7.71875 7.15276 7.71875 6.45703V2.44922C7.71875 1.75349 7.15276 1.1875 6.45703 1.1875H2.44922Z" fill="white"/>
<path d="M16.5508 8.90625H12.543C11.1924 8.90625 10.0938 7.80755 10.0938 6.45703V2.44922C10.0938 1.0987 11.1924 0 12.543 0H16.5508C17.9013 0 19 1.0987 19 2.44922V6.45703C19 7.80755 17.9013 8.90625 16.5508 8.90625ZM12.543 1.1875C11.8472 1.1875 11.2812 1.75349 11.2812 2.44922V6.45703C11.2812 7.15276 11.8472 7.71875 12.543 7.71875H16.5508C17.2465 7.71875 17.8125 7.15276 17.8125 6.45703V2.44922C17.8125 1.75349 17.2465 1.1875 16.5508 1.1875H12.543Z" fill="white"/>
<path d="M14.5469 19C12.0914 19 10.0938 17.0023 10.0938 14.5469C10.0938 12.0914 12.0914 10.0938 14.5469 10.0938C17.0023 10.0938 19 12.0914 19 14.5469C19 17.0023 17.0023 19 14.5469 19Z" fill="white"/>
<path d="M6.45703 19H2.44922C1.0987 19 0 17.9013 0 16.5508V12.543C0 11.1924 1.0987 10.0938 2.44922 10.0938H6.45703C7.80755 10.0938 8.90625 11.1924 8.90625 12.543V16.5508C8.90625 17.9013 7.80755 19 6.45703 19ZM2.44922 11.2812C1.75349 11.2812 1.1875 11.8472 1.1875 12.543V16.5508C1.1875 17.2465 1.75349 17.8125 2.44922 17.8125H6.45703C7.15276 17.8125 7.71875 17.2465 7.71875 16.5508V12.543C7.71875 11.8472 7.15276 11.2812 6.45703 11.2812H2.44922Z" fill="white"/>
</svg>
