<svg width="13" height="13" viewBox="0 0 13 13" fill="none" xmlns="http://www.w3.org/2000/svg">
<path d="M0.23588 12.7641C-0.0786267 12.4496 -0.0786267 11.9397 0.23588 11.6252L11.6252 0.23588C11.9397 -0.0786267 12.4496 -0.0786269 12.7641 0.23588C13.0786 0.550387 13.0786 1.0603 12.7641 1.37481L1.37481 12.7641C1.0603 13.0786 0.550387 13.0786 0.23588 12.7641Z" fill="#494956"/>
<path d="M12.7641 12.7641C13.0786 12.4496 13.0786 11.9397 12.7641 11.6252L1.37481 0.23588C1.06031 -0.0786267 0.55039 -0.0786269 0.235883 0.23588C-0.0786241 0.550387 -0.0786241 1.0603 0.235883 1.37481L11.6252 12.7641C11.9397 13.0786 12.4496 13.0786 12.7641 12.7641Z" fill="#494956"/>
</svg>
