<svg width="22" height="22" viewBox="0 0 22 22" fill="none" xmlns="http://www.w3.org/2000/svg">
<mask id="path-1-outside-1" maskUnits="userSpaceOnUse" x="0" y="0" width="22" height="22" fill="black">
<rect fill="white" width="22" height="22"/>
<path d="M20.9163 13.2092L17.5467 7.59276L20.5707 6.75275C20.8826 6.66614 21.0651 6.34317 20.9785 6.03137C20.8919 5.71957 20.5688 5.53698 20.2571 5.62363L16.4981 6.66778C16.4978 6.66786 16.4975 6.66794 16.4973 6.66802L11.5859 8.03226V1.58595C11.5859 1.26235 11.3236 1 11 1C10.6764 1 10.4141 1.26235 10.4141 1.58595V8.35777L5.20146 9.80568C5.20119 9.80576 5.20091 9.80584 5.20064 9.80588L1.42928 10.8535C1.11745 10.9401 0.934946 11.2631 1.02151 11.5749C1.09358 11.8342 1.32909 12.0041 1.58573 12.0041C1.63764 12.0041 1.69045 11.9972 1.74287 11.9826L4.09388 11.3295L1.08373 16.3472C1.02913 16.4382 1.00022 16.5424 1.00022 16.6486C1.00022 19.048 2.95228 21 5.35165 21C7.7511 21 9.70313 19.048 9.70313 16.6486C9.70313 16.5424 9.67426 16.4382 9.61961 16.3472L6.25001 10.7307L15.3905 8.19168L12.3803 13.2092C12.3257 13.3003 12.2968 13.4045 12.2968 13.5107C12.2968 15.9101 14.2489 17.8621 16.6483 17.8621C17.8106 17.8621 18.9033 17.4095 19.7253 16.5875C20.5472 15.7656 20.9998 14.6729 20.9997 13.5106C20.9998 13.4045 20.9709 13.3002 20.9163 13.2092ZM5.35165 19.8281C3.79865 19.8281 2.50272 18.7087 2.22682 17.2345H8.47649C8.20063 18.7087 6.9047 19.8281 5.35165 19.8281ZM8.08243 16.0626H2.62096L5.35165 11.511L8.08243 16.0626ZM16.6483 8.37308L19.3791 12.9247H13.9175L16.6483 8.37308ZM16.6483 16.6902C15.0953 16.6902 13.7994 15.5708 13.5234 14.0966H19.7732C19.4973 15.5708 18.2014 16.6902 16.6483 16.6902Z"/>
</mask>
<path d="M20.9163 13.2092L17.5467 7.59276L20.5707 6.75275C20.8826 6.66614 21.0651 6.34317 20.9785 6.03137C20.8919 5.71957 20.5688 5.53698 20.2571 5.62363L16.4981 6.66778C16.4978 6.66786 16.4975 6.66794 16.4973 6.66802L11.5859 8.03226V1.58595C11.5859 1.26235 11.3236 1 11 1C10.6764 1 10.4141 1.26235 10.4141 1.58595V8.35777L5.20146 9.80568C5.20119 9.80576 5.20091 9.80584 5.20064 9.80588L1.42928 10.8535C1.11745 10.9401 0.934946 11.2631 1.02151 11.5749C1.09358 11.8342 1.32909 12.0041 1.58573 12.0041C1.63764 12.0041 1.69045 11.9972 1.74287 11.9826L4.09388 11.3295L1.08373 16.3472C1.02913 16.4382 1.00022 16.5424 1.00022 16.6486C1.00022 19.048 2.95228 21 5.35165 21C7.7511 21 9.70313 19.048 9.70313 16.6486C9.70313 16.5424 9.67426 16.4382 9.61961 16.3472L6.25001 10.7307L15.3905 8.19168L12.3803 13.2092C12.3257 13.3003 12.2968 13.4045 12.2968 13.5107C12.2968 15.9101 14.2489 17.8621 16.6483 17.8621C17.8106 17.8621 18.9033 17.4095 19.7253 16.5875C20.5472 15.7656 20.9998 14.6729 20.9997 13.5106C20.9998 13.4045 20.9709 13.3002 20.9163 13.2092ZM5.35165 19.8281C3.79865 19.8281 2.50272 18.7087 2.22682 17.2345H8.47649C8.20063 18.7087 6.9047 19.8281 5.35165 19.8281ZM8.08243 16.0626H2.62096L5.35165 11.511L8.08243 16.0626ZM16.6483 8.37308L19.3791 12.9247H13.9175L16.6483 8.37308ZM16.6483 16.6902C15.0953 16.6902 13.7994 15.5708 13.5234 14.0966H19.7732C19.4973 15.5708 18.2014 16.6902 16.6483 16.6902Z" fill="white"/>
<path d="M20.9163 13.2092L17.5467 7.59276L20.5707 6.75275C20.8826 6.66614 21.0651 6.34317 20.9785 6.03137C20.8919 5.71957 20.5688 5.53698 20.2571 5.62363L16.4981 6.66778C16.4978 6.66786 16.4975 6.66794 16.4973 6.66802L11.5859 8.03226V1.58595C11.5859 1.26235 11.3236 1 11 1C10.6764 1 10.4141 1.26235 10.4141 1.58595V8.35777L5.20146 9.80568C5.20119 9.80576 5.20091 9.80584 5.20064 9.80588L1.42928 10.8535C1.11745 10.9401 0.934946 11.2631 1.02151 11.5749C1.09358 11.8342 1.32909 12.0041 1.58573 12.0041C1.63764 12.0041 1.69045 11.9972 1.74287 11.9826L4.09388 11.3295L1.08373 16.3472C1.02913 16.4382 1.00022 16.5424 1.00022 16.6486C1.00022 19.048 2.95228 21 5.35165 21C7.7511 21 9.70313 19.048 9.70313 16.6486C9.70313 16.5424 9.67426 16.4382 9.61961 16.3472L6.25001 10.7307L15.3905 8.19168L12.3803 13.2092C12.3257 13.3003 12.2968 13.4045 12.2968 13.5107C12.2968 15.9101 14.2489 17.8621 16.6483 17.8621C17.8106 17.8621 18.9033 17.4095 19.7253 16.5875C20.5472 15.7656 20.9998 14.6729 20.9997 13.5106C20.9998 13.4045 20.9709 13.3002 20.9163 13.2092ZM5.35165 19.8281C3.79865 19.8281 2.50272 18.7087 2.22682 17.2345H8.47649C8.20063 18.7087 6.9047 19.8281 5.35165 19.8281ZM8.08243 16.0626H2.62096L5.35165 11.511L8.08243 16.0626ZM16.6483 8.37308L19.3791 12.9247H13.9175L16.6483 8.37308ZM16.6483 16.6902C15.0953 16.6902 13.7994 15.5708 13.5234 14.0966H19.7732C19.4973 15.5708 18.2014 16.6902 16.6483 16.6902Z" stroke="white" stroke-width="0.6" mask="url(#path-1-outside-1)"/>
</svg>
