<svg width="45" height="45" viewBox="0 0 45 45" fill="none" xmlns="http://www.w3.org/2000/svg">
<circle opacity="0.07" cx="22.5" cy="22.5" r="22.5" fill="url(#paint0_linear)"/>
<path d="M34.0599 21.6663C35.1577 21.8334 36.0015 22.7837 36.0015 23.9273V28.5597C36.0015 28.7995 35.807 28.994 35.5672 28.994H34.1478C34.1479 29.0036 34.1484 29.0131 34.1484 29.0229C34.1484 30.5395 32.9146 31.7733 31.398 31.7733C29.8815 31.7733 28.6477 30.5395 28.6477 29.0229C28.6477 29.0132 28.6483 29.0036 28.6484 28.994H18.8613C18.8614 29.0036 18.862 29.0131 18.862 29.0229C18.862 30.5395 17.6281 31.7733 16.1116 31.7733C14.595 31.7733 13.3612 30.5395 13.3612 29.0229C13.3612 29.0132 13.3618 29.0036 13.3619 28.994H11.0161C10.5212 28.994 10.1186 28.5913 10.1186 28.0964V27.141H8.69993C8.46006 27.141 8.26562 26.9466 8.26562 26.7067C8.26562 26.4668 8.46011 26.2724 8.69993 26.2724H12.869C13.1088 26.2724 13.3033 26.4668 13.3033 26.7067C13.3033 26.9466 13.1088 27.141 12.869 27.141H10.9871V28.0964C10.9871 28.1124 11 28.1253 11.016 28.1253H13.5123C13.8853 27.0483 14.9092 26.2724 16.1116 26.2724C17.3139 26.2724 18.3378 27.0483 18.7108 28.1253H27.7211V24.8538C27.7211 24.614 27.9156 24.4195 28.1554 24.4195C28.3952 24.4195 28.5897 24.614 28.5897 24.8538V28.1254H28.7988C29.1718 27.0483 30.1957 26.2725 31.398 26.2725C32.6004 26.2725 33.6243 27.0483 33.9974 28.1254H35.1329V26.2147H34.6406C33.8903 26.2147 33.2799 25.6042 33.2799 24.8539V23.9275C33.2799 23.6876 33.4744 23.4932 33.7142 23.4932H35.0646C34.8808 22.923 34.3455 22.5093 33.7151 22.5088C33.7147 22.5088 33.7143 22.5088 33.7139 22.5088C33.7135 22.5088 33.7132 22.5088 33.7128 22.5088H28.5898V23.001C28.5898 23.2409 28.3953 23.4353 28.1555 23.4353C27.9157 23.4353 27.7212 23.2409 27.7212 23.001V15.126C27.7212 15.1101 27.7083 15.0971 27.6923 15.0971H11.016C11 15.0971 10.9871 15.1101 10.9871 15.126V23.001C10.9871 23.2408 10.7926 23.4353 10.5528 23.4353C10.3129 23.4353 10.1185 23.2408 10.1185 23.001V15.126C10.1185 14.6311 10.5211 14.2285 11.016 14.2285H27.6924C28.1873 14.2285 28.5898 14.6311 28.5898 15.126V16.0815H31.8614C32.8671 16.0815 33.6854 16.8997 33.6854 17.9055V18.3687C33.6854 18.5774 33.538 18.7517 33.3416 18.7934L34.0599 21.6663ZM28.5898 16.9501V17.9344H32.8168V17.9055C32.8168 17.3787 32.3882 16.9501 31.8614 16.9501H28.5898ZM28.5898 21.6402H33.1581L32.4488 18.8029H28.5898V21.6402ZM16.1116 30.9048C17.1492 30.9048 17.9934 30.0607 17.9934 29.0229C17.9934 27.9852 17.1492 27.1411 16.1116 27.1411C15.0739 27.1411 14.2297 27.9852 14.2297 29.0229C14.2297 30.0607 15.0739 30.9048 16.1116 30.9048ZM31.3982 30.9048C32.4359 30.9048 33.2801 30.0607 33.2801 29.0229C33.2801 27.9852 32.4359 27.1411 31.3982 27.1411C30.3605 27.1411 29.5163 27.9852 29.5163 29.0229C29.5163 30.0607 30.3605 30.9048 31.3982 30.9048ZM35.133 25.346H35.1329V24.3616H34.1486V24.8538C34.1486 25.1252 34.3694 25.346 34.6408 25.346H35.133ZM16.1116 28.1254C16.6065 28.1254 17.0091 28.528 17.0091 29.0229C17.0091 29.5179 16.6065 29.9205 16.1116 29.9205C15.6167 29.9205 15.214 29.5179 15.214 29.0229C15.214 28.528 15.6167 28.1254 16.1116 28.1254ZM31.3982 28.1254C31.8931 28.1254 32.2957 28.528 32.2957 29.0229C32.2957 29.5179 31.8931 29.9205 31.3982 29.9205C30.9033 29.9205 30.5007 29.5179 30.5007 29.0229C30.5007 28.528 30.9033 28.1254 31.3982 28.1254ZM26.3027 26.2726C26.5425 26.2726 26.737 26.467 26.737 26.7069C26.737 26.9467 26.5425 27.1412 26.3027 27.1412H19.8174C19.5775 27.1412 19.3832 26.9467 19.3832 26.7069C19.3832 26.467 19.5776 26.2726 19.8174 26.2726H26.3027ZM15.1851 24.4196C15.4249 24.4196 15.6194 24.614 15.6194 24.8539C15.6194 25.0938 15.4249 25.2882 15.1851 25.2882H9.62636C9.38649 25.2882 9.19206 25.0938 9.19206 24.8539C9.19206 24.614 9.38655 24.4196 9.62636 24.4196H15.1851ZM23.3672 18.5248C23.5367 18.6944 23.5367 18.9693 23.3671 19.139L19.198 23.308C19.1133 23.3928 19.0021 23.4352 18.8909 23.4352C18.7798 23.4352 18.6687 23.3928 18.5839 23.308L16.2678 20.9918C16.0981 20.8222 16.0981 20.5473 16.2678 20.3777C16.4373 20.2081 16.7123 20.2081 16.8819 20.3777L18.8909 22.3868L22.753 18.5248C22.9225 18.3552 23.1976 18.3552 23.3672 18.5248Z" fill="url(#paint1_linear)"/>
<defs>
<linearGradient id="paint0_linear" x1="3.35276e-07" y1="22.5" x2="45" y2="22.5" gradientUnits="userSpaceOnUse">
<stop stop-color="#FF2517"/>
<stop offset="1" stop-color="#FF5F1B"/>
</linearGradient>
<linearGradient id="paint1_linear" x1="8.26563" y1="23.0009" x2="36.0015" y2="23.0009" gradientUnits="userSpaceOnUse">
<stop stop-color="#FF2517"/>
<stop offset="1" stop-color="#FF5F1B"/>
</linearGradient>
</defs>
</svg>
