<svg width="32" height="32" viewBox="0 0 32 32" fill="none" xmlns="http://www.w3.org/2000/svg">
<path d="M18.6172 16.2551L23.0003 19.0261V13.3672L18.6172 16.2551Z" fill="url(#paint0_linear)"/>
<path d="M10 13.3672V19.0261L14.3831 16.2551L10 13.3672Z" fill="url(#paint1_linear)"/>
<path d="M22.1918 11.7188H10.8156C10.4101 11.7188 10.0883 12.021 10.0273 12.4103L16.5037 16.6772L22.98 12.4103C22.9191 12.021 22.5973 11.7188 22.1918 11.7188Z" fill="url(#paint2_linear)"/>
<path d="M17.8753 16.745L16.7255 17.5023C16.6573 17.547 16.5801 17.5689 16.5021 17.5689C16.424 17.5689 16.3468 17.547 16.2786 17.5023L15.1288 16.7441L10.0273 19.9709C10.0899 20.3569 10.4101 20.6568 10.8139 20.6568H22.1902C22.594 20.6568 22.9142 20.3569 22.9768 19.9709L17.8753 16.745Z" fill="url(#paint3_linear)"/>
<circle opacity="0.2" cx="16" cy="16" r="15" stroke="url(#paint4_linear)" stroke-width="2"/>
<defs>
<linearGradient id="paint0_linear" x1="20.8087" y1="13.3672" x2="20.8087" y2="19.0261" gradientUnits="userSpaceOnUse">
<stop stop-color="#FF1000"/>
<stop offset="1" stop-color="#FF5E1B"/>
</linearGradient>
<linearGradient id="paint1_linear" x1="12.1916" y1="13.3672" x2="12.1916" y2="19.0261" gradientUnits="userSpaceOnUse">
<stop stop-color="#FF1000"/>
<stop offset="1" stop-color="#FF5E1B"/>
</linearGradient>
<linearGradient id="paint2_linear" x1="16.5037" y1="11.7188" x2="16.5037" y2="16.6772" gradientUnits="userSpaceOnUse">
<stop stop-color="#FF1000"/>
<stop offset="1" stop-color="#FF5E1B"/>
</linearGradient>
<linearGradient id="paint3_linear" x1="16.5021" y1="16.7441" x2="16.5021" y2="20.6568" gradientUnits="userSpaceOnUse">
<stop stop-color="#FF1000"/>
<stop offset="1" stop-color="#FF5E1B"/>
</linearGradient>
<linearGradient id="paint4_linear" x1="2.38419e-07" y1="16" x2="32" y2="16" gradientUnits="userSpaceOnUse">
<stop stop-color="#FF2517"/>
<stop offset="1" stop-color="#FF5F1B"/>
</linearGradient>
</defs>
</svg>
