<svg width="40" height="40" viewBox="0 0 40 40" fill="none" xmlns="http://www.w3.org/2000/svg">
<path d="M38.9926 14.5472L36.9797 12.8076C36.73 12.5917 36.3524 12.6193 36.1365 12.8691C35.9207 13.1189 35.9481 13.4964 36.198 13.7122L38.2108 15.4518C38.9283 16.0718 39.0075 17.1601 38.3875 17.8776L25.3135 33.0054C25.0976 33.2551 25.1251 33.6326 25.3749 33.8486C25.4879 33.9463 25.6271 33.9941 25.7655 33.9941C25.9333 33.9941 26.0999 33.924 26.2181 33.7872L39.292 18.6593C40.3432 17.443 40.2088 15.5983 38.9926 14.5472Z" fill="black"/>
<path d="M35.4483 11.4852L26.1371 3.43828C25.5479 2.92906 24.7955 2.68008 24.019 2.73633C23.2422 2.79281 22.5341 3.14851 22.0249 3.73765L21.1377 4.76421C20.9218 5.01406 20.9493 5.39156 21.1991 5.60742C21.449 5.82343 21.8265 5.79578 22.0423 5.54601L22.9295 4.51945C23.2299 4.17195 23.6476 3.96211 24.1058 3.92875C24.564 3.89507 25.0077 4.04242 25.3553 4.34281L34.6665 12.3898C34.7796 12.4875 34.9187 12.5353 35.0572 12.5353C35.2249 12.5353 35.3915 12.4651 35.5097 12.3284C35.7255 12.0786 35.6981 11.7011 35.4483 11.4852Z" fill="black"/>
<path d="M29.7738 9.37097L13.6653 3.968C12.141 3.45675 10.4853 4.28089 9.97416 5.80495L9.76166 6.43847C9.65666 6.75143 9.82534 7.09034 10.1384 7.19534C10.4514 7.30034 10.7902 7.13175 10.8953 6.81862L11.1078 6.18511C11.4093 5.28597 12.386 4.79979 13.2852 5.10143L29.3937 10.5043C30.2928 10.806 30.7789 11.7827 30.4774 12.6817L22.9826 35.0271C22.8776 35.34 23.0463 35.6789 23.3593 35.7839C23.4224 35.805 23.4864 35.8151 23.5495 35.8151C23.7993 35.8151 24.0323 35.6572 24.1162 35.4073L31.611 13.0621C32.1221 11.5381 31.298 9.88214 29.7738 9.37097Z" fill="black"/>
<path d="M19.9059 7.87305H2.91547C1.30789 7.87305 0 9.18086 0 10.7884V34.3571C0 35.9647 1.30789 37.2726 2.91547 37.2726H19.9059C21.5135 37.2726 22.8214 35.9647 22.8214 34.3571V10.7884C22.8213 9.18086 21.5135 7.87305 19.9059 7.87305ZM21.6257 34.3571C21.6257 35.3055 20.8541 36.077 19.9059 36.077H2.91547C1.96711 36.077 1.19562 35.3054 1.19562 34.3571V10.7884C1.19562 9.84008 1.96719 9.06859 2.91547 9.06859H19.9059C20.8543 9.06859 21.6258 9.84016 21.6258 10.7884V34.3571H21.6257Z" fill="black"/>
<path d="M20.2183 24.3711H2.60562C2.27547 24.3711 2.00781 24.6388 2.00781 24.9689C2.00781 25.2991 2.27547 25.5667 2.60562 25.5667H20.2183C20.5485 25.5667 20.8162 25.2991 20.8162 24.9689C20.8161 24.6388 20.5484 24.3711 20.2183 24.3711Z" fill="black"/>
<path d="M17.4302 27.791H10.0275C9.69734 27.791 9.42969 28.0587 9.42969 28.3888C9.42969 28.719 9.69734 28.9866 10.0275 28.9866H17.4302C17.7603 28.9866 18.028 28.719 18.028 28.3888C18.028 28.0587 17.7603 27.791 17.4302 27.791Z" fill="black"/>
<path d="M8.03445 27.791H5.39078C5.06062 27.791 4.79297 28.0587 4.79297 28.3888C4.79297 28.719 5.06062 28.9866 5.39078 28.9866H8.03445C8.36461 28.9866 8.63226 28.719 8.63226 28.3888C8.63226 28.0587 8.36461 27.791 8.03445 27.791Z" fill="black"/>
<path d="M17.4298 30.0762H5.39078C5.06062 30.0762 4.79297 30.3438 4.79297 30.674C4.79297 31.0041 5.06062 31.2718 5.39078 31.2718H17.4298C17.76 31.2718 18.0277 31.0041 18.0277 30.674C18.0277 30.3438 17.76 30.0762 17.4298 30.0762Z" fill="black"/>
<path d="M17.4298 32.3613H5.39078C5.06062 32.3613 4.79297 32.629 4.79297 32.9591C4.79297 33.2893 5.06062 33.557 5.39078 33.557H17.4298C17.76 33.557 18.0277 33.2893 18.0277 32.9591C18.0277 32.629 17.76 32.3613 17.4298 32.3613Z" fill="black"/>
<path d="M17.9825 14.8088C17.9122 14.5924 17.7251 14.4347 17.5 14.402L13.6638 13.8446L11.9483 10.3684C11.8475 10.1644 11.6397 10.0352 11.4122 10.0352C11.1847 10.0352 10.9768 10.1644 10.8761 10.3684L9.16044 13.8446L5.32427 14.402C5.09911 14.4347 4.912 14.5924 4.84177 14.8088C4.77146 15.0252 4.83013 15.2627 4.99302 15.4216L7.76896 18.1273L7.11364 21.9481C7.07521 22.1723 7.16739 22.399 7.35146 22.5327C7.4556 22.6084 7.57896 22.6469 7.70286 22.6469C7.79794 22.6469 7.89349 22.6241 7.98099 22.5783L11.4122 20.7743L14.8433 22.5783C15.0447 22.6841 15.2888 22.6665 15.4729 22.5327C15.657 22.399 15.7491 22.1723 15.7107 21.9481L15.0554 18.1273L17.8312 15.4216C17.9941 15.2627 18.0528 15.0252 17.9825 14.8088ZM13.9958 17.4906C13.8549 17.628 13.7906 17.8259 13.8239 18.0198L14.3275 20.9564L11.6903 19.5698C11.5161 19.4784 11.308 19.4784 11.134 19.5698L8.49669 20.9564L9.00036 18.0198C9.03357 17.8259 8.96935 17.628 8.82841 17.4906L6.69489 15.4109L9.64341 14.9824C9.8381 14.9541 10.0064 14.8319 10.0935 14.6554L11.4121 11.9835L12.7307 14.6554C12.8177 14.8318 12.9861 14.9541 13.1808 14.9824L16.1293 15.4109L13.9958 17.4906Z" fill="#FF531A"/>
</svg>
