<svg width="187" height="34" viewBox="0 0 187 34" fill="none" xmlns="http://www.w3.org/2000/svg">
<g clip-path="url(#clip0)">
<path d="M8.08066 22.0368C8.08066 23.265 8.50024 24.2136 9.33938 24.8926C10.1785 25.5716 11.0695 25.9111 12.0122 25.9111C12.955 25.9111 13.8355 25.6465 14.6592 25.1122C15.4828 24.578 16.1458 24.3134 16.6586 24.3134C17.5547 24.3134 18.6477 25.0773 19.9323 26.605C20.6212 27.4438 20.9631 28.1927 20.9631 28.8567C20.9631 29.9551 20.1395 30.9786 18.4923 31.9272C16.7881 33.0805 14.6902 33.6597 12.2091 33.6597C9.42744 33.6597 6.74943 32.6961 4.17501 30.7639C2.94737 29.8403 1.94765 28.6071 1.17066 27.0644C0.388493 25.5166 0 23.8142 0 21.9519C0 20.0896 0.388493 18.4071 1.16548 16.8893C1.94247 15.3766 2.94737 14.1583 4.16983 13.2347C6.65101 11.3325 9.30312 10.3789 12.1158 10.3789C13.2502 10.3789 14.3587 10.5287 15.4361 10.8332C16.5136 11.1378 17.3061 11.4324 17.8137 11.7219L18.5337 12.1563C19.0724 12.5008 19.492 12.7754 19.7924 12.9801C20.5694 13.5592 20.9579 14.2133 20.9579 14.9472C20.9579 15.6811 20.642 16.5099 20.0152 17.4335C18.9378 19.0212 17.907 19.815 16.9176 19.815C16.3478 19.815 15.5397 19.5005 14.4934 18.8614C13.9547 18.3722 13.1829 18.1275 12.1832 18.1275C11.1783 18.1275 10.2459 18.472 9.37564 19.166C8.5106 19.855 8.08066 20.8136 8.08066 22.0368Z" fill="white"/>
<path d="M37.3405 13.066C37.5218 11.4533 38.7028 10.6445 40.8888 10.6445C42.0542 10.6445 42.9245 10.7294 43.4942 10.9041C44.064 11.0789 44.4577 11.3785 44.6856 11.8128C44.9084 12.2472 45.043 12.6266 45.0897 12.9611C45.1363 13.2906 45.157 13.7899 45.157 14.4539V29.5967C45.157 30.2607 45.1363 30.76 45.0897 31.0895C45.043 31.419 44.9187 31.8034 44.7063 32.2378C44.2868 32.9867 43.2612 33.3611 41.6295 33.3611C39.9978 33.3611 38.9048 33.1664 38.3558 32.777C37.8015 32.3876 37.4804 31.8184 37.3923 31.0695C36.2838 32.5973 34.4398 33.3611 31.8498 33.3611C29.2598 33.3611 26.8615 32.2228 24.6445 29.9462C22.4275 27.6695 21.3242 25.0234 21.3242 22.0078C21.3242 18.9923 22.4379 16.3561 24.6704 14.0895C26.8978 11.8278 29.3427 10.6945 32.0104 10.6945C33.0256 10.6945 33.9528 10.8692 34.792 11.2137C35.6311 11.5582 36.2113 11.8827 36.5428 12.1873C36.8588 12.4818 37.1281 12.7764 37.3405 13.066ZM29.1718 22.0627C29.1718 23.0163 29.5603 23.8701 30.3373 24.634C31.1143 25.3978 32.057 25.7823 33.1655 25.7823C34.274 25.7823 35.1908 25.3928 35.9264 24.614C36.6619 23.8351 37.0245 22.9764 37.0245 22.0378C37.0245 21.0992 36.6723 20.2304 35.9678 19.4216C35.2634 18.6128 34.3206 18.2084 33.1396 18.2084C31.9586 18.2084 31.0003 18.6128 30.2647 19.4216C29.5344 20.2304 29.1718 21.1091 29.1718 22.0627Z" fill="white"/>
<path d="M62.9412 10.8981C63.511 11.0729 63.9824 11.3674 64.3553 11.7868C64.7283 12.2062 64.9148 12.8752 64.9148 13.7989C64.9148 14.7225 64.6299 15.731 64.0601 16.8294C63.4903 17.9278 62.6667 18.472 61.5893 18.472C61.0506 18.472 60.5326 18.3572 60.0405 18.1275C59.5484 17.8978 58.8957 17.783 58.0876 17.783C57.2796 17.783 56.5233 18.0576 55.8188 18.6068C55.1144 19.156 54.7621 19.82 54.7621 20.5989V29.6855C54.7621 30.3495 54.7414 30.8488 54.6948 31.1783C54.6482 31.5078 54.5083 31.8923 54.2701 32.3266C53.8194 33.0755 52.6539 33.45 50.7684 33.45C49.3336 33.45 48.2976 33.2053 47.6709 32.716C47.1943 32.3116 46.925 31.6925 46.8628 30.8538V29.6006V14.403C46.8628 13.739 46.8835 13.2447 46.9301 12.9102C46.9768 12.5807 47.1011 12.2112 47.3134 11.8068C47.733 11.0279 48.8985 10.6385 50.8151 10.6385C52.6125 10.6385 53.7313 10.973 54.182 11.6321C54.5135 12.0914 54.6741 12.5707 54.6741 13.06C54.8243 12.8602 55.0419 12.6106 55.3268 12.326C55.6117 12.0365 56.2177 11.647 57.1449 11.1577C58.0721 10.6685 58.8854 10.4238 59.5898 10.4238C60.2943 10.4238 60.8848 10.4588 61.3613 10.5337C61.8483 10.6036 62.3714 10.7284 62.9412 10.8981Z" fill="white"/>
<path d="M126.442 19.3165C126.442 21.0889 125.986 22.4019 125.074 23.2507C124.162 24.0994 123.152 24.5288 122.044 24.5288H111.409C111.409 25.3376 111.902 26.0166 112.891 26.5608C113.88 27.11 114.864 27.3846 115.854 27.3846C117.589 27.3846 118.951 27.2099 119.936 26.8654L120.428 26.6906C121.148 26.3711 121.743 26.2163 122.225 26.2163C123.183 26.2163 124.007 26.8654 124.696 28.1635C125.084 28.9423 125.281 29.6063 125.281 30.1555C125.281 32.7218 122.096 34.0049 115.719 34.0049C113.502 34.0049 111.539 33.6354 109.819 32.9015C108.1 32.1676 106.758 31.194 105.805 29.9808C103.919 27.6442 102.977 25.0331 102.977 22.1523C102.977 18.5176 104.194 15.6119 106.634 13.4351C109.073 11.2583 112.114 10.1699 115.766 10.1699C119.925 10.1699 122.976 11.5828 124.924 14.4087C125.934 15.9065 126.442 17.5391 126.442 19.3165ZM116.973 20.5896C118.107 20.5896 118.677 20.1303 118.677 19.2066C118.677 18.5426 118.413 18.0084 117.89 17.604C117.366 17.1996 116.615 16.9999 115.647 16.9999C114.673 16.9999 113.709 17.3843 112.751 18.1482C111.793 18.9121 111.316 19.7259 111.316 20.5946H116.973V20.5896Z" fill="white"/>
<path d="M144.482 1.14831C144.705 0.728928 145.104 0.434361 145.674 0.259618C146.243 0.0848752 147 0 147.942 0C148.885 0 149.641 0.0848752 150.211 0.259618C150.781 0.434361 151.175 0.733921 151.402 1.16828C151.625 1.60264 151.76 1.98209 151.807 2.31659C151.853 2.64611 151.874 3.14537 151.874 3.8094V29.6364C151.874 30.3004 151.853 30.7997 151.807 31.1292C151.76 31.4587 151.62 31.8282 151.382 32.2326C150.931 33.0115 149.667 33.4009 147.59 33.4009C145.508 33.4009 144.353 32.6969 144.109 31.279C142.85 32.662 141.105 33.3559 138.857 33.3559C136.163 33.3559 133.708 32.2226 131.496 29.9609C129.279 27.6993 128.176 25.0581 128.176 22.0426C128.176 19.027 129.289 16.3809 131.517 14.1043C133.744 11.8276 136.189 10.6893 138.857 10.6893C141.069 10.6893 142.793 11.4082 144.016 12.8511V3.76446C144.016 3.10044 144.037 2.60617 144.083 2.27166C144.12 1.94214 144.254 1.5627 144.482 1.14831ZM137.189 24.6587C137.966 25.4376 138.909 25.827 140.017 25.827C141.126 25.827 142.042 25.4376 142.778 24.6587C143.513 23.8799 143.876 23.0211 143.876 22.0825C143.876 21.1439 143.524 20.2752 142.819 19.4664C142.115 18.6576 141.167 18.2532 139.97 18.2532C138.774 18.2532 137.816 18.6476 137.101 19.4414C136.381 20.2352 136.023 21.109 136.023 22.0576C136.018 23.0112 136.407 23.8799 137.189 24.6587Z" fill="white"/>
<path d="M160.97 6.42555C160.747 6.84493 160.348 7.1395 159.779 7.31424C159.209 7.48899 158.452 7.57386 157.51 7.57386C156.567 7.57386 155.811 7.48899 155.241 7.31424C154.671 7.1395 154.277 6.83994 154.05 6.40558C153.827 5.97122 153.692 5.59178 153.645 5.25727C153.599 4.92775 153.578 4.42849 153.578 3.76446C153.578 3.10044 153.599 2.60617 153.645 2.27166C153.692 1.94214 153.816 1.57269 154.029 1.16828C154.448 0.389427 155.614 0 157.53 0C159.416 0 160.55 0.389427 160.939 1.16828C161.177 1.60264 161.322 1.98209 161.364 2.31659C161.41 2.64611 161.431 3.14537 161.431 3.8094C161.431 4.47342 161.41 4.97269 161.364 5.3022C161.332 5.63172 161.198 6.00617 160.97 6.42555Z" fill="white"/>
<path d="M153.589 14.4481C153.589 13.784 153.61 13.2898 153.657 12.9553C153.703 12.6257 153.828 12.2413 154.04 11.8069C154.46 11.058 155.625 10.6836 157.542 10.6836C158.976 10.6836 159.997 10.9282 160.593 11.4175C161.1 11.8219 161.37 12.441 161.401 13.2798C161.432 13.5693 161.447 13.9887 161.447 14.5329V29.6757C161.447 30.3397 161.427 30.8389 161.38 31.1685C161.333 31.498 161.193 31.8824 160.955 32.3168C160.567 33.0657 159.412 33.4401 157.5 33.4401C155.615 33.4401 154.465 33.0507 154.045 32.2718C153.833 31.8375 153.708 31.463 153.662 31.1485C153.615 30.829 153.595 30.3247 153.595 29.6357V14.4481H153.589Z" fill="white"/>
<path d="M179.189 13.066C179.37 11.4533 180.551 10.6445 182.737 10.6445C183.902 10.6445 184.773 10.7294 185.342 10.9041C185.912 11.0789 186.306 11.3785 186.534 11.8128C186.756 12.2472 186.891 12.6266 186.938 12.9611C186.984 13.2906 187.005 13.7899 187.005 14.4539V29.5967C187.005 30.2607 186.984 30.76 186.938 31.0895C186.891 31.419 186.767 31.8034 186.554 32.2378C186.135 32.9867 185.109 33.3611 183.478 33.3611C181.846 33.3611 180.753 33.1664 180.204 32.777C179.65 32.3876 179.328 31.8184 179.24 31.0695C178.132 32.5973 176.288 33.3611 173.698 33.3611C171.108 33.3611 168.71 32.2228 166.493 29.9462C164.276 27.6695 163.172 25.0234 163.172 22.0078C163.172 18.9923 164.286 16.3561 166.519 14.0895C168.746 11.8278 171.191 10.6945 173.858 10.6945C174.874 10.6945 175.801 10.8692 176.64 11.2137C177.479 11.5582 178.059 11.8827 178.391 12.1873C178.712 12.4818 178.981 12.7764 179.189 13.066ZM171.02 22.0627C171.02 23.0163 171.408 23.8701 172.185 24.634C172.962 25.3978 173.905 25.7823 175.014 25.7823C176.122 25.7823 177.039 25.3928 177.774 24.614C178.51 23.8351 178.873 22.9764 178.873 22.0378C178.873 21.0992 178.52 20.2304 177.816 19.4216C177.111 18.6128 176.169 18.2084 174.988 18.2084C173.807 18.2084 172.848 18.6128 172.113 19.4216C171.388 20.2304 171.02 21.1091 171.02 22.0627Z" fill="white"/>
<path d="M94.0579 10.5449C92.6438 10.5449 91.468 11.0442 90.3543 11.8031C89.4581 12.4122 88.5517 13.1711 87.9819 14.1346C86.7076 11.9778 84.1798 10.5499 81.6261 10.5499C79.3677 10.5499 77.6376 11.6683 76.3167 13.4157C76.3063 13.216 76.2908 13.0462 76.2753 12.9114C76.2286 12.5919 76.1043 12.2175 75.8919 11.7881C75.4724 11.0092 74.3224 10.6198 72.4369 10.6198H70.6033C68.7126 10.6198 67.5782 10.9993 67.1327 11.7432C66.8944 12.1775 66.7494 12.557 66.708 12.8915C66.6613 13.221 66.6406 13.7203 66.6406 14.3843V17.0853V26.9807V29.6368C66.6406 30.3308 66.6613 30.8351 66.708 31.1496C66.7546 31.4691 66.8789 31.8436 67.0913 32.273C67.5108 33.0518 68.6608 33.4412 70.5463 33.4412C70.5566 33.4412 72.3696 33.4412 72.38 33.4412C74.2706 33.4412 75.405 33.0618 75.8505 32.3179C76.0888 31.8835 76.2338 31.5041 76.2753 31.1696C76.3063 30.9549 76.3219 30.6703 76.3322 30.3158C75.4413 29.8415 74.8404 28.9329 74.8404 27.8844C74.8404 26.831 75.4465 25.9173 76.3374 25.448V23.9302V20.1558C76.3374 18.8877 76.7933 18.2536 77.6997 18.2536C78.6373 18.2536 79.1035 18.8877 79.1035 20.1558V23.9302V25.448C79.9996 25.9173 80.6057 26.836 80.6057 27.8844C80.6057 28.9329 80.0048 29.8465 79.1139 30.3158C79.1242 30.6703 79.1449 30.9499 79.1708 31.1496C79.2175 31.4691 79.3418 31.8436 79.5542 32.273C79.9737 33.0518 81.1237 33.4412 83.0091 33.4412C83.0195 33.4412 84.8118 33.4412 84.8221 33.4412C86.7128 33.4412 87.8472 33.0618 88.2927 32.3179C88.5309 31.8835 88.676 31.5041 88.7174 31.1696C88.764 30.8401 88.7848 30.3408 88.7848 29.6768V25.473C87.8886 25.0037 87.2774 24.085 87.2774 23.0316C87.2774 21.9781 87.8886 21.0595 88.7848 20.5901V20.1558C88.7848 18.8877 89.2406 18.2536 90.1471 18.2536C91.0846 18.2536 91.5508 18.8877 91.5508 20.1558V20.6001C92.4418 21.0744 93.0426 21.9831 93.0426 23.0316C93.0426 24.085 92.4314 25.0037 91.5353 25.473V29.6318C91.5353 30.3258 91.556 30.8301 91.6026 31.1446C91.6492 31.4642 91.7736 31.8386 91.9859 32.268C92.4055 33.0468 93.5555 33.4363 95.4409 33.4363C95.4513 33.4363 97.2643 33.4363 97.2746 33.4363C99.1653 33.4363 100.3 33.0568 100.745 32.3129C100.983 31.8785 101.128 31.4991 101.17 31.1646C101.217 30.8351 101.237 30.3358 101.237 29.6718V18.2486C101.248 13.9948 98.0257 10.5449 94.0579 10.5449Z" fill="url(#paint0_linear)"/>
</g>
<defs>
<linearGradient id="paint0_linear" x1="66.6406" y1="21.9931" x2="101.237" y2="21.9931" gradientUnits="userSpaceOnUse">
<stop stop-color="#FF2517"/>
<stop offset="1" stop-color="#FF5F1B"/>
</linearGradient>
<clipPath id="clip0">
<rect width="187" height="34" fill="white"/>
</clipPath>
</defs>
</svg>
