<svg width="40" height="40" viewBox="0 0 40 40" fill="none" xmlns="http://www.w3.org/2000/svg">
<path d="M22.2121 27.3687H7.60724C6.60309 27.3687 5.78906 26.5547 5.78906 25.5505V10.5779C5.78906 9.57379 6.60309 8.75977 7.60724 8.75977H32.393C33.3971 8.75977 34.2112 9.57379 34.2112 10.5779V25.5505C34.2112 26.5547 33.3971 27.3687 32.393 27.3687H32.0763" stroke="black" stroke-width="1.36364"/>
<path d="M23.6836 35.5235V29.8522C23.6836 29.6985 23.8642 29.6103 23.9908 29.6975C25.2654 30.5751 27.8668 31.5049 30.3474 29.703C30.4717 29.6127 30.6525 29.6983 30.6525 29.8519V35.5235C30.6525 35.6774 30.4732 35.7617 30.3547 35.6636L27.284 33.121C27.2167 33.0653 27.1193 33.0653 27.0521 33.121L23.9814 35.6636C23.8628 35.7617 23.6836 35.6774 23.6836 35.5235Z" stroke="#FF531A" stroke-width="1.36364"/>
<circle cx="27.172" cy="25.4942" r="5.28134" stroke="#FF531A" stroke-width="1.36364"/>
<line x1="10.5178" y1="13.2947" x2="20.0677" y2="13.2947" stroke="black" stroke-width="1.36364" stroke-linecap="round"/>
<line x1="10.5178" y1="17.3826" x2="15.8702" y2="17.3826" stroke="black" stroke-width="1.36364" stroke-linecap="round"/>
</svg>
