<svg width="22" height="22" viewBox="0 0 22 22" fill="none" xmlns="http://www.w3.org/2000/svg">
<path d="M3.88559 12.2534L4.00162 12.1583C5.1372 13.5445 6.82962 15.0042 8.80622 16.7082C8.80643 16.7084 8.80663 16.7086 8.80684 16.7088L8.80923 16.7108L8.8105 16.7119C9.47224 17.2824 10.2195 17.9266 10.9985 18.6144C11.782 17.9253 12.5304 17.28 13.1936 16.7084L3.88559 12.2534ZM3.88559 12.2534L4.00162 12.1583C2.83146 10.73 2.32142 9.47549 2.32142 8.08032C2.32142 6.74912 2.76378 5.53811 3.55867 4.66586L3.88559 12.2534ZM10.2356 5.69345L10.2356 5.69342C9.9786 5.25764 9.54253 4.63961 8.92042 4.15289L10.2356 5.69345ZM10.2356 5.69345C10.3971 5.96723 10.6834 6.13228 11 6.13228C11.3166 6.13228 11.6029 5.96723 11.7644 5.69345C12.0216 5.25764 12.4576 4.6396 13.0796 4.15288L10.2356 5.69345ZM7.8536 17.84L7.85359 17.84L7.85473 17.841C8.54205 18.4335 9.32032 19.1045 10.1275 19.8185C10.3687 20.0322 10.6785 20.15 11 20.15C11.3214 20.15 11.6313 20.0322 11.8724 19.8187C12.6814 19.1031 13.4609 18.431 14.1494 17.8376L14.1494 17.8376L14.1585 17.8298C16.1659 16.0991 17.9137 14.5923 19.1325 13.1045C20.5022 11.4327 21.15 9.83394 21.15 8.08032C21.15 6.38434 20.5752 4.81348 19.5244 3.6605L19.4135 3.76153L19.5244 3.66049C18.4605 2.49321 16.9994 1.85 15.413 1.85C14.2242 1.85 13.1345 2.23097 12.1782 2.97919C11.7466 3.31677 11.3525 3.72118 11 4.18631C10.6476 3.72117 10.2534 3.31676 9.82199 2.9792L9.82198 2.97919C8.86563 2.23097 7.77599 1.85 6.58716 1.85C5.00055 1.85 3.53963 2.49321 2.47575 3.66049L2.47574 3.6605C1.425 4.81347 0.85 6.38433 0.85 8.08032C0.85 9.83394 1.49794 11.4327 2.86761 13.1046L2.98364 13.0096L2.86761 13.1046C4.08676 14.5927 5.83528 16.1 7.84369 17.8314L7.85009 17.8369L7.85122 17.8379L7.8536 17.84Z" fill="white" stroke="white" stroke-width="0.3"/>
</svg>
