<svg width="28" height="28" viewBox="0 0 28 28" fill="none" xmlns="http://www.w3.org/2000/svg">
<g clip-path="url(#clip0)">
<path d="M22.1995 9.93346C19.8255 7.31145 18.4147 5.00329 17.6491 3.52865C16.82 1.93141 16.5483 0.940964 16.5462 0.933082L16.2994 0L15.4179 0.393167C15.3149 0.439091 12.8795 1.54974 11.5149 4.27892C10.8298 5.64901 10.6928 7.17444 10.6986 8.21278C10.7019 8.81707 10.2738 9.34176 9.68062 9.46038C9.26473 9.54346 8.83692 9.41418 8.53675 9.11401L6.89484 7.4721L6.33002 8.25093C6.2714 8.33178 4.89107 10.2354 4.63978 10.6158C3.41265 12.4734 2.77279 14.6372 2.78938 16.8735C2.8116 19.8601 3.98612 22.6583 6.09657 24.7526C8.20691 26.8467 11.014 28 14.0009 28C20.183 27.9999 25.2125 22.9704 25.2125 16.7883C25.2126 14.5468 24.1143 12.0483 22.1995 9.93346ZM14.0009 26.3579C11.4503 26.3579 9.05395 25.3739 7.2533 23.587C5.4526 21.8001 4.4505 19.4115 4.43151 16.8613C4.41727 14.9522 4.9631 13.1055 6.00992 11.521C6.13773 11.3275 6.65044 10.6122 7.0955 9.99498L7.37569 10.2752C8.06492 10.9644 9.04677 11.2618 10.0028 11.0706C11.3651 10.7981 12.3483 9.59251 12.3407 8.2038C12.336 7.3444 12.4437 6.0933 12.9836 5.01325C13.6409 3.69877 14.6235 2.83969 15.3063 2.36196C15.9238 3.93266 17.4892 7.17767 20.9823 11.0357C21.7605 11.8951 23.5705 14.1762 23.5705 16.7884C23.5705 22.065 19.2776 26.3579 14.0009 26.3579Z" fill="black"/>
<path d="M15.6641 13.9297L10.5156 21.4692H12.3359L17.4843 13.9297H15.6641Z" fill="#FF531A"/>
<path d="M16.7651 17.377C15.6234 17.377 14.7617 18.1417 14.7617 19.4773C14.7617 20.8236 15.6234 21.5775 16.7651 21.5775C17.9068 21.5775 18.7685 20.8236 18.7685 19.4773C18.7685 18.1417 17.9068 17.377 16.7651 17.377ZM16.7651 20.4143C16.5282 20.4143 16.2912 20.1989 16.2912 19.4772C16.2912 18.7556 16.5282 18.5401 16.7651 18.5401C17.0021 18.5401 17.239 18.7556 17.239 19.4772C17.239 20.1989 17.0021 20.4143 16.7651 20.4143Z" fill="#FF531A"/>
<path d="M13.2411 15.9225C13.2411 14.587 12.3795 13.8223 11.2378 13.8223C10.096 13.8223 9.23438 14.587 9.23438 15.9225C9.23438 17.2689 10.096 18.0229 11.2378 18.0229C12.3795 18.0229 13.2411 17.2689 13.2411 15.9225ZM10.7639 15.9225C10.7639 15.2009 11.0008 14.9855 11.2378 14.9855C11.4747 14.9855 11.7117 15.2009 11.7117 15.9225C11.7117 16.6442 11.4747 16.8596 11.2378 16.8596C11.0008 16.8596 10.7639 16.6442 10.7639 15.9225Z" fill="#FF531A"/>
</g>
<defs>
<clipPath id="clip0">
<rect width="28" height="28" fill="white"/>
</clipPath>
</defs>
</svg>
