<svg width="42" height="42" viewBox="0 0 42 42" fill="none" xmlns="http://www.w3.org/2000/svg">
<rect width="42" height="42" rx="5" fill="url(#paint0_linear)"/>
<g clip-path="url(#clip0)">
<path d="M29.982 17.292C29.9398 16.3356 29.7852 15.6781 29.5636 15.1084C29.335 14.5036 28.9834 13.9621 28.5227 13.512C28.0726 13.0549 27.5276 12.6997 26.9298 12.4747C26.3568 12.2531 25.7027 12.0985 24.7463 12.0563C23.7827 12.0106 23.4768 12 21.033 12C18.5892 12 18.2833 12.0106 17.3233 12.0527C16.3669 12.0949 15.7094 12.2497 15.1397 12.4711C14.5348 12.6997 13.9934 13.0513 13.5433 13.512C13.0861 13.9621 12.7311 14.5072 12.506 15.1049C12.2844 15.6781 12.1297 16.3321 12.0876 17.2885C12.0418 18.252 12.0312 18.5579 12.0312 21.0018C12.0312 23.4456 12.0418 23.7515 12.084 24.7115C12.1262 25.6679 12.281 26.3254 12.5025 26.8952C12.7311 27.4999 13.0861 28.0414 13.5433 28.4915C13.9934 28.9486 14.5384 29.3038 15.1362 29.5288C15.7094 29.7504 16.3633 29.905 17.3199 29.9472C18.2797 29.9895 18.5857 29.9999 21.0296 29.9999C23.4734 29.9999 23.7793 29.9895 24.7393 29.9472C25.6957 29.905 26.3532 29.7504 26.9228 29.5288C28.1325 29.0611 29.0889 28.1047 29.5566 26.8952C29.778 26.322 29.9328 25.6679 29.975 24.7115C30.0171 23.7515 30.0277 23.4456 30.0277 21.0018C30.0277 18.5579 30.0242 18.252 29.982 17.292ZM28.361 24.6411C28.3223 25.5202 28.1747 25.9949 28.0516 26.3114C27.7491 27.0956 27.1268 27.7179 26.3426 28.0204C26.0261 28.1434 25.548 28.2911 24.6724 28.3297C23.723 28.372 23.4382 28.3824 21.0366 28.3824C18.6349 28.3824 18.3466 28.372 17.4006 28.3297C16.5215 28.2911 16.0468 28.1434 15.7304 28.0204C15.3401 27.8761 14.9849 27.6476 14.6966 27.3487C14.3978 27.0568 14.1692 26.7052 14.025 26.315C13.9019 25.9985 13.7542 25.5202 13.7156 24.6447C13.6733 23.6953 13.6629 23.4104 13.6629 21.0088C13.6629 18.6071 13.6733 18.3188 13.7156 17.373C13.7542 16.4939 13.9019 16.0192 14.025 15.7027C14.1692 15.3123 14.3978 14.9573 14.7002 14.6688C14.992 14.3699 15.3436 14.1414 15.7339 13.9973C16.0504 13.8742 16.5287 13.7266 17.4042 13.6878C18.3536 13.6457 18.6385 13.6351 21.04 13.6351C23.4452 13.6351 23.73 13.6457 24.6759 13.6878C25.555 13.7266 26.0297 13.8742 26.3462 13.9973C26.7364 14.1414 27.0916 14.3699 27.3799 14.6688C27.6788 14.9607 27.9074 15.3123 28.0516 15.7027C28.1747 16.0192 28.3223 16.4973 28.361 17.373C28.4032 18.3224 28.4138 18.6071 28.4138 21.0088C28.4138 23.4104 28.4032 23.6917 28.361 24.6411Z" fill="white"/>
<path d="M21.0341 16.3789C18.4813 16.3789 16.4102 18.45 16.4102 21.0029C16.4102 23.5558 18.4813 25.6268 21.0341 25.6268C23.587 25.6268 25.6581 23.5558 25.6581 21.0029C25.6581 18.45 23.587 16.3789 21.0341 16.3789ZM21.0341 24.0023C19.378 24.0023 18.0347 22.6591 18.0347 21.0029C18.0347 19.3466 19.378 18.0034 21.0341 18.0034C22.6903 18.0034 24.0335 19.3466 24.0335 21.0029C24.0335 22.6591 22.6903 24.0023 21.0341 24.0023Z" fill="white"/>
<path d="M26.9208 16.1947C26.9208 16.7908 26.4375 17.2742 25.8412 17.2742C25.2451 17.2742 24.7617 16.7908 24.7617 16.1947C24.7617 15.5985 25.2451 15.1152 25.8412 15.1152C26.4375 15.1152 26.9208 15.5985 26.9208 16.1947Z" fill="white"/>
</g>
<defs>
<linearGradient id="paint0_linear" x1="35.8537" y1="3.07154e-07" x2="3.07317" y2="40.4634" gradientUnits="userSpaceOnUse">
<stop stop-color="#833AB4"/>
<stop offset="0.57323" stop-color="#FD1D1D"/>
<stop offset="1" stop-color="#FCB045"/>
</linearGradient>
<clipPath id="clip0">
<rect width="18" height="18" fill="white" transform="translate(12 12)"/>
</clipPath>
</defs>
</svg>
