<svg width="11" height="11" viewBox="0 0 11 11" fill="none" xmlns="http://www.w3.org/2000/svg">
<g clip-path="url(#clip0)">
<path d="M1.14583 4.8125C0.51425 4.8125 0 5.32675 0 5.95833V9.625C0 10.2566 0.51425 10.7708 1.14583 10.7708H2.52083C2.77888 10.7708 3.01628 10.6837 3.20833 10.5389V4.8125H1.14583Z" fill="white"/>
<path d="M11 6.53125C11 6.2558 10.8909 5.99913 10.7016 5.80983C10.9157 5.57563 11.0248 5.26165 10.995 4.93488C10.9413 4.35233 10.4165 3.89583 9.79963 3.89583H6.9685C7.10875 3.47003 7.33333 2.6895 7.33333 2.0625C7.33333 1.06837 6.48863 0.229172 5.95833 0.229172C5.48212 0.229172 5.14203 0.497297 5.12737 0.508297C5.0733 0.551846 5.04167 0.617846 5.04167 0.687498V2.2417L3.72167 5.10125L3.66667 5.1292V10.0416C4.03975 10.2176 4.51182 10.3125 4.8125 10.3125H9.01955C9.51868 10.3125 9.95548 9.97608 10.0581 9.5118C10.1108 9.273 10.0801 9.03238 9.97518 8.82338C10.3139 8.65288 10.5417 8.30408 10.5417 7.90625C10.5417 7.744 10.5046 7.58863 10.434 7.44793C10.7727 7.27742 11 6.92863 11 6.53125Z" fill="white"/>
</g>
<defs>
<clipPath id="clip0">
<rect width="11" height="11" fill="white"/>
</clipPath>
</defs>
</svg>
