<svg width="143" height="26" viewBox="0 0 143 26" fill="none" xmlns="http://www.w3.org/2000/svg">
<g clip-path="url(#clip0)">
<path d="M6.17933 16.8523C6.17933 17.7915 6.50018 18.5169 7.14188 19.0362C7.78358 19.5554 8.46489 19.815 9.18581 19.815C9.90674 19.815 10.5801 19.6127 11.2099 19.2042C11.8398 18.7956 12.3468 18.5933 12.7389 18.5933C13.4242 18.5933 14.26 19.1774 15.2424 20.3457C15.7692 20.9871 16.0306 21.5598 16.0306 22.0676C16.0306 22.9075 15.4008 23.6902 14.1412 24.4156C12.838 25.2976 11.2337 25.7404 9.33634 25.7404C7.20922 25.7404 5.16133 25.0036 3.19266 23.526C2.25387 22.8197 1.48938 21.8767 0.895211 20.697C0.297083 19.5134 0 18.2115 0 16.7874C0 15.3633 0.297083 14.0767 0.89125 12.9161C1.48542 11.7592 2.25387 10.8277 3.18869 10.1213C5.08607 8.66672 7.11415 7.9375 9.26504 7.9375C10.1325 7.9375 10.9802 8.05204 11.8041 8.28493C12.628 8.51782 13.2341 8.74308 13.6223 8.96452L14.1729 9.29668C14.5848 9.56011 14.9057 9.7701 15.1354 9.92663C15.7296 10.3695 16.0267 10.8697 16.0267 11.4309C16.0267 11.9921 15.785 12.6259 15.3057 13.3322C14.4818 14.5463 13.6936 15.1534 12.937 15.1534C12.5013 15.1534 11.8833 14.9128 11.0832 14.4241C10.6712 14.05 10.081 13.8629 9.31653 13.8629C8.54808 13.8629 7.83508 14.1263 7.16961 14.657C6.5081 15.1839 6.17933 15.9169 6.17933 16.8523Z" fill="white"/>
<path d="M28.5557 9.99146C28.6943 8.75827 29.5974 8.13977 31.269 8.13977C32.1603 8.13977 32.8257 8.20467 33.2615 8.3383C33.6972 8.47193 33.9982 8.701 34.1725 9.03316C34.3428 9.36532 34.4458 9.65548 34.4815 9.91128C34.5171 10.1633 34.533 10.5451 34.533 11.0528V22.6326C34.533 23.1404 34.5171 23.5222 34.4815 23.7741C34.4458 24.0261 34.3508 24.3201 34.1884 24.6523C33.8675 25.2249 33.0832 25.5113 31.8355 25.5113C30.5877 25.5113 29.7519 25.3624 29.332 25.0646C28.9082 24.7668 28.6626 24.3315 28.5953 23.7589C27.7476 24.9271 26.3374 25.5113 24.3569 25.5113C22.3763 25.5113 20.5423 24.6408 18.847 22.8998C17.1516 21.1589 16.3079 19.1354 16.3079 16.8293C16.3079 14.5233 17.1596 12.5075 18.8668 10.7741C20.5701 9.04462 22.4397 8.17795 24.4797 8.17795C25.2561 8.17795 25.9651 8.31158 26.6068 8.57501C27.2485 8.83845 27.6921 9.08661 27.9457 9.31951C28.1873 9.54476 28.3933 9.77002 28.5557 9.99146ZM22.309 16.8713C22.309 17.6006 22.6061 18.2534 23.2002 18.8376C23.7944 19.4217 24.5153 19.7157 25.363 19.7157C26.2107 19.7157 26.9118 19.4179 27.4743 18.8223C28.0368 18.2267 28.314 17.57 28.314 16.8523C28.314 16.1345 28.0447 15.4702 27.506 14.8517C26.9673 14.2332 26.2463 13.9239 25.3432 13.9239C24.4401 13.9239 23.7073 14.2332 23.1448 14.8517C22.5863 15.4702 22.309 16.1421 22.309 16.8713Z" fill="white"/>
<path d="M48.1314 8.3345C48.5671 8.46813 48.9276 8.69339 49.2128 9.01409C49.498 9.3348 49.6406 9.8464 49.6406 10.5527C49.6406 11.259 49.4227 12.0302 48.987 12.8702C48.5513 13.7101 47.9215 14.1263 47.0976 14.1263C46.6856 14.1263 46.2895 14.0385 45.9132 13.8628C45.5369 13.6872 45.0378 13.5994 44.4199 13.5994C43.8019 13.5994 43.2236 13.8094 42.6849 14.2294C42.1462 14.6493 41.8768 15.1571 41.8768 15.7527V22.7013C41.8768 23.2091 41.861 23.5909 41.8253 23.8429C41.7897 24.0949 41.6827 24.3888 41.5005 24.721C41.1559 25.2937 40.2647 25.58 38.8228 25.58C37.7256 25.58 36.9334 25.3929 36.4541 25.0188C36.0897 24.7095 35.8837 24.2361 35.8362 23.5947V22.6364V11.0147C35.8362 10.5069 35.852 10.1289 35.8877 9.87312C35.9233 9.62114 36.0184 9.33861 36.1808 9.02936C36.5016 8.43377 37.3929 8.13597 38.8585 8.13597C40.233 8.13597 41.0886 8.39177 41.4332 8.89574C41.6867 9.24698 41.8095 9.6135 41.8095 9.98766C41.9244 9.83494 42.0907 9.64405 42.3086 9.42643C42.5265 9.20499 42.9899 8.90719 43.6989 8.53303C44.408 8.15888 45.0299 7.9718 45.5686 7.9718C46.1073 7.9718 46.5589 7.99853 46.9233 8.0558C47.2956 8.10925 47.6957 8.20469 48.1314 8.3345Z" fill="white"/>
<path d="M96.6907 14.7715C96.6907 16.1269 96.3422 17.131 95.645 17.78C94.9478 18.4291 94.1754 18.7574 93.3278 18.7574H85.1956C85.1956 19.3759 85.5719 19.8952 86.3285 20.3113C87.085 20.7313 87.8376 20.9413 88.5942 20.9413C89.9212 20.9413 90.963 20.8076 91.7156 20.5442L92.0919 20.4106C92.6425 20.1662 93.098 20.0479 93.4664 20.0479C94.1992 20.0479 94.829 20.5442 95.3558 21.5369C95.6529 22.1325 95.8034 22.6402 95.8034 23.0602C95.8034 25.0226 93.3674 26.0038 88.4912 26.0038C86.7959 26.0038 85.2946 25.7213 83.9795 25.1601C82.6644 24.5988 81.6385 23.8543 80.9097 22.9266C79.4678 21.1398 78.7469 19.143 78.7469 16.9401C78.7469 14.1607 79.6778 11.9386 81.5434 10.274C83.4091 8.60941 85.7343 7.7771 88.5269 7.7771C91.7076 7.7771 94.0407 8.85757 95.5301 11.0185C96.3025 12.1639 96.6907 13.4123 96.6907 14.7715ZM89.4498 15.7451C90.3173 15.7451 90.753 15.3938 90.753 14.6875C90.753 14.1797 90.551 13.7712 90.1509 13.462C89.7509 13.1527 89.1765 13 88.4358 13C87.6911 13 86.9543 13.294 86.2215 13.8781C85.4887 14.4623 85.1243 15.0846 85.1243 15.7489H89.4498V15.7451Z" fill="white"/>
<path d="M110.487 0.87812C110.658 0.557416 110.963 0.332159 111.398 0.198532C111.834 0.0649045 112.412 0 113.133 0C113.854 0 114.432 0.0649045 114.868 0.198532C115.304 0.332159 115.605 0.561233 115.779 0.893392C115.95 1.22555 116.053 1.51571 116.088 1.77151C116.124 2.02349 116.14 2.40529 116.14 2.91307V22.6631C116.14 23.1709 116.124 23.5527 116.088 23.8047C116.053 24.0567 115.946 24.3392 115.763 24.6485C115.419 25.2441 114.452 25.5418 112.864 25.5418C111.272 25.5418 110.388 25.0035 110.202 23.9192C109.239 24.9768 107.905 25.5075 106.185 25.5075C104.126 25.5075 102.248 24.6408 100.557 22.9113C98.8614 21.1818 98.0177 19.1621 98.0177 16.8561C98.0177 14.5501 98.8693 12.5266 100.573 10.7856C102.276 9.04464 104.145 8.17416 106.185 8.17416C107.877 8.17416 109.196 8.72394 110.131 9.82731V2.87871C110.131 2.37093 110.147 1.99295 110.182 1.73715C110.21 1.48517 110.313 1.19501 110.487 0.87812ZM104.91 18.8567C105.504 19.4523 106.225 19.7501 107.073 19.7501C107.92 19.7501 108.622 19.4523 109.184 18.8567C109.746 18.2611 110.024 17.6044 110.024 16.8866C110.024 16.1689 109.754 15.5046 109.216 14.886C108.677 14.2675 107.952 13.9583 107.037 13.9583C106.122 13.9583 105.389 14.2599 104.843 14.867C104.292 15.474 104.019 16.1421 104.019 16.8675C104.015 17.5968 104.312 18.2611 104.91 18.8567Z" fill="white"/>
<path d="M123.095 4.91366C122.925 5.23436 122.62 5.45962 122.184 5.59325C121.749 5.72687 121.17 5.79178 120.449 5.79178C119.728 5.79178 119.15 5.72687 118.714 5.59325C118.279 5.45962 117.978 5.23054 117.803 4.89838C117.633 4.56623 117.53 4.27606 117.494 4.02026C117.459 3.76828 117.443 3.38649 117.443 2.87871C117.443 2.37093 117.459 1.99295 117.494 1.73715C117.53 1.48517 117.625 1.20264 117.788 0.893392C118.108 0.297797 119 0 120.465 0C121.907 0 122.775 0.297797 123.072 0.893392C123.254 1.22555 123.365 1.51571 123.396 1.77151C123.432 2.02349 123.448 2.40529 123.448 2.91307C123.448 3.42085 123.432 3.80264 123.396 4.05463C123.373 4.30661 123.27 4.59295 123.095 4.91366Z" fill="white"/>
<path d="M117.45 11.0491C117.45 10.5413 117.465 10.1634 117.501 9.90756C117.537 9.65558 117.632 9.3616 117.794 9.02944C118.115 8.45675 119.006 8.17041 120.472 8.17041C121.569 8.17041 122.349 8.35749 122.805 8.73164C123.193 9.04089 123.399 9.51432 123.423 10.1557C123.447 10.3772 123.459 10.6979 123.459 11.114V22.6938C123.459 23.2015 123.443 23.5833 123.407 23.8353C123.371 24.0873 123.264 24.3813 123.082 24.7134C122.785 25.2861 121.902 25.5725 120.44 25.5725C118.998 25.5725 118.119 25.2747 117.798 24.6791C117.636 24.3469 117.541 24.0606 117.505 23.82C117.469 23.5757 117.453 23.1901 117.453 22.6632V11.0491H117.45Z" fill="white"/>
<path d="M137.027 9.99146C137.165 8.75827 138.068 8.13977 139.74 8.13977C140.631 8.13977 141.297 8.20467 141.732 8.3383C142.168 8.47193 142.469 8.701 142.643 9.03316C142.814 9.36532 142.917 9.65548 142.952 9.91128C142.988 10.1633 143.004 10.5451 143.004 11.0528V22.6326C143.004 23.1404 142.988 23.5222 142.952 23.7741C142.917 24.0261 142.822 24.3201 142.659 24.6523C142.338 25.2249 141.554 25.5113 140.306 25.5113C139.059 25.5113 138.223 25.3624 137.803 25.0646C137.379 24.7668 137.134 24.3315 137.066 23.7589C136.219 24.9271 134.808 25.5113 132.828 25.5113C130.847 25.5113 129.013 24.6408 127.318 22.8998C125.623 21.1589 124.779 19.1354 124.779 16.8293C124.779 14.5233 125.631 12.5075 127.338 10.7741C129.041 9.04462 130.911 8.17795 132.951 8.17795C133.727 8.17795 134.436 8.31158 135.078 8.57501C135.719 8.83845 136.163 9.08661 136.417 9.31951C136.662 9.54476 136.868 9.77002 137.027 9.99146ZM130.78 16.8713C130.78 17.6006 131.077 18.2534 131.671 18.8376C132.265 19.4217 132.986 19.7157 133.834 19.7157C134.682 19.7157 135.383 19.4179 135.945 18.8223C136.508 18.2267 136.785 17.57 136.785 16.8523C136.785 16.1345 136.516 15.4702 135.977 14.8517C135.438 14.2332 134.717 13.9239 133.814 13.9239C132.911 13.9239 132.178 14.2332 131.616 14.8517C131.061 15.4702 130.78 16.1421 130.78 16.8713Z" fill="white"/>
<path d="M71.9259 8.06348C70.8445 8.06348 69.9453 8.44527 69.0937 9.02559C68.4084 9.49138 67.7152 10.0717 67.2795 10.8086C66.305 9.15922 64.372 8.06729 62.4192 8.06729C60.6922 8.06729 59.3691 8.92251 58.3591 10.2588C58.3511 10.1061 58.3393 9.97625 58.3274 9.87317C58.2917 9.62882 58.1967 9.34248 58.0343 9.01414C57.7134 8.41854 56.834 8.12075 55.3922 8.12075H53.99C52.5442 8.12075 51.6767 8.41091 51.336 8.97978C51.1538 9.31193 51.0429 9.6021 51.0112 9.8579C50.9756 10.1099 50.9597 10.4917 50.9597 10.9995V13.0649V20.6321V22.6632C50.9597 23.1939 50.9756 23.5795 51.0112 23.82C51.0469 24.0644 51.1419 24.3507 51.3043 24.679C51.6252 25.2746 52.5045 25.5724 53.9464 25.5724C53.9543 25.5724 55.3407 25.5724 55.3486 25.5724C56.7944 25.5724 57.6619 25.2823 58.0026 24.7134C58.1848 24.3812 58.2957 24.0911 58.3274 23.8353C58.3511 23.6711 58.363 23.4535 58.3709 23.1824C57.6896 22.8197 57.2301 22.1249 57.2301 21.3231C57.2301 20.5175 57.6936 19.8188 58.3749 19.46V18.2993V15.413C58.3749 14.4432 58.7235 13.9583 59.4167 13.9583C60.1336 13.9583 60.4901 14.4432 60.4901 15.413V18.2993V19.46C61.1754 19.8188 61.6389 20.5213 61.6389 21.3231C61.6389 22.1249 61.1794 22.8235 60.4981 23.1824C60.506 23.4535 60.5218 23.6673 60.5416 23.82C60.5773 24.0644 60.6724 24.3507 60.8348 24.679C61.1556 25.2746 62.035 25.5724 63.4768 25.5724C63.4847 25.5724 64.8553 25.5724 64.8632 25.5724C66.309 25.5724 67.1765 25.2823 67.5171 24.7134C67.6994 24.3812 67.8103 24.0911 67.842 23.8353C67.8776 23.5833 67.8934 23.2015 67.8934 22.6937V19.479C67.2082 19.1202 66.7408 18.4177 66.7408 17.6121C66.7408 16.8065 67.2082 16.104 67.8934 15.7451V15.413C67.8934 14.4432 68.242 13.9583 68.9352 13.9583C69.6522 13.9583 70.0087 14.4432 70.0087 15.413V15.7528C70.69 16.1155 71.1495 16.8103 71.1495 17.6121C71.1495 18.4177 70.6821 19.1202 69.9968 19.479V22.6594C69.9968 23.1901 70.0126 23.5757 70.0483 23.8162C70.0839 24.0605 70.179 24.3469 70.3414 24.6752C70.6623 25.2708 71.5416 25.5686 72.9835 25.5686C72.9914 25.5686 74.3778 25.5686 74.3857 25.5686C75.8315 25.5686 76.699 25.2785 77.0396 24.7096C77.2219 24.3774 77.3328 24.0873 77.3645 23.8315C77.4001 23.5795 77.416 23.1977 77.416 22.6899V13.9545C77.4239 10.7017 74.9601 8.06348 71.9259 8.06348Z" fill="url(#paint0_linear)"/>
</g>
<defs>
<linearGradient id="paint0_linear" x1="50.9597" y1="16.818" x2="77.416" y2="16.818" gradientUnits="userSpaceOnUse">
<stop stop-color="#FF2517"/>
<stop offset="1" stop-color="#FF5F1B"/>
</linearGradient>
<clipPath id="clip0">
<rect width="143" height="26" fill="white"/>
</clipPath>
</defs>
</svg>
