<svg width="22" height="23" viewBox="0 0 22 23" fill="none" xmlns="http://www.w3.org/2000/svg">
<path d="M17.4111 7.03971L18.4608 5.98998C18.934 5.51687 18.934 4.74981 18.4608 4.27671V4.2767C17.9877 3.8036 17.2207 3.8036 16.7476 4.2767L15.6979 5.32643C13.0977 3.45437 9.5671 3.45437 6.96694 5.32643L5.91723 4.2767C5.44412 3.8036 4.67706 3.8036 4.20395 4.2767V4.27671C3.73085 4.74981 3.73085 5.51687 4.20395 5.98998L5.25367 7.03971C3.38162 9.63985 3.38162 13.1705 5.25367 15.7706L4.20395 16.8203C3.73085 17.2934 3.73085 18.0605 4.20395 18.5336C4.67706 19.0067 5.44412 19.0067 5.91723 18.5336L6.96694 17.4839C9.5671 19.3559 13.0977 19.3559 15.6979 17.4839L16.7476 18.5336C17.2207 19.0067 17.9877 19.0067 18.4608 18.5336C18.934 18.0605 18.934 17.2934 18.4608 16.8203L17.4111 15.7706C19.2832 13.1705 19.2832 9.63986 17.4111 7.03971Z" stroke="black" stroke-width="0.75" stroke-miterlimit="10"/>
<path d="M11.3358 16.7467C14.2856 16.7467 16.6769 14.3554 16.6769 11.4056C16.6769 8.45575 14.2856 6.06445 11.3358 6.06445C8.38593 6.06445 5.99463 8.45575 5.99463 11.4056C5.99463 14.3554 8.38593 16.7467 11.3358 16.7467Z" stroke="black" stroke-width="0.75" stroke-miterlimit="10"/>
<path d="M11.3323 14.146C12.8466 14.146 14.0743 12.9184 14.0743 11.4041C14.0743 9.88973 12.8466 8.66211 11.3323 8.66211C9.81795 8.66211 8.59033 9.88973 8.59033 11.4041C8.59033 12.9184 9.81795 14.146 11.3323 14.146Z" stroke="#FF531A" stroke-width="0.75" stroke-miterlimit="10"/>
<path d="M17.5921 5.53282C17.8142 5.53282 17.9942 5.35277 17.9942 5.13067C17.9942 4.90856 17.8142 4.72852 17.5921 4.72852C17.37 4.72852 17.1899 4.90856 17.1899 5.13067C17.1899 5.35277 17.37 5.53282 17.5921 5.53282Z" fill="black"/>
<path d="M5.07769 5.53477C5.29615 5.53477 5.47324 5.35472 5.47324 5.13262C5.47324 4.91052 5.29615 4.73047 5.07769 4.73047C4.85923 4.73047 4.68213 4.91052 4.68213 5.13262C4.68213 5.35472 4.85923 5.53477 5.07769 5.53477Z" fill="black"/>
<path d="M17.5921 18.0973C17.8142 18.0973 17.9942 17.9172 17.9942 17.6951C17.9942 17.473 17.8142 17.293 17.5921 17.293C17.37 17.293 17.1899 17.473 17.1899 17.6951C17.1899 17.9172 17.37 18.0973 17.5921 18.0973Z" fill="black"/>
<path d="M5.08428 18.0992C5.30638 18.0992 5.48643 17.9192 5.48643 17.6971C5.48643 17.475 5.30638 17.2949 5.08428 17.2949C4.86218 17.2949 4.68213 17.475 4.68213 17.6971C4.68213 17.9192 4.86218 18.0992 5.08428 18.0992Z" fill="black"/>
</svg>
