<svg width="22" height="23" viewBox="0 0 22 23" fill="none" xmlns="http://www.w3.org/2000/svg">
<path d="M12.2163 16.0513H4.18359C3.63131 16.0513 3.18359 15.6036 3.18359 15.0513V6.81641C3.18359 6.26412 3.63131 5.81641 4.18359 5.81641H17.8157C18.368 5.81641 18.8157 6.26412 18.8157 6.81641V15.0513C18.8157 15.6036 18.368 16.0513 17.8157 16.0513H17.6416" stroke="black" stroke-width="0.75"/>
<path d="M13.0259 20.5363V17.417C13.0259 17.3325 13.1252 17.284 13.1949 17.332C13.8959 17.8146 15.3266 18.326 16.691 17.335C16.7593 17.2853 16.8588 17.3324 16.8588 17.4169V20.5363C16.8588 20.6209 16.7602 20.6673 16.695 20.6133L15.0061 19.2149C14.9691 19.1842 14.9155 19.1842 14.8785 19.2149L13.1897 20.6133C13.1245 20.6673 13.0259 20.6209 13.0259 20.5363Z" stroke="#FF531A" stroke-width="0.75"/>
<circle cx="14.9428" cy="15.02" r="2.90474" stroke="#FF531A" stroke-width="0.75"/>
<line x1="5.78467" y1="8.31055" x2="11.0372" y2="8.31055" stroke="black" stroke-width="0.75" stroke-linecap="round"/>
<line x1="5.78467" y1="10.5586" x2="8.7285" y2="10.5586" stroke="black" stroke-width="0.75" stroke-linecap="round"/>
</svg>
