<svg width="22" height="23" viewBox="0 0 22 23" fill="none" xmlns="http://www.w3.org/2000/svg">
<path d="M19.0867 7.21094H2.91454C2.39921 7.21094 1.98145 7.62045 1.98145 8.12561V17.5208C1.98145 18.026 2.39921 18.4355 2.91454 18.4355H19.0867C19.602 18.4355 20.0198 18.026 20.0198 17.5208V8.12561C20.0198 7.62045 19.602 7.21094 19.0867 7.21094Z" stroke="black" stroke-width="0.75" stroke-miterlimit="10" stroke-linecap="round"/>
<path d="M13.9031 5.25586H8.41342C8.23849 5.25586 8.09668 5.32717 8.09668 5.41514V7.05124C8.09668 7.13921 8.23849 7.21052 8.41342 7.21052H13.9031C14.0781 7.21052 14.2199 7.13921 14.2199 7.05124V5.41514C14.2199 5.32717 14.0781 5.25586 13.9031 5.25586Z" stroke="black" stroke-width="0.75" stroke-miterlimit="10" stroke-linecap="round"/>
<circle cx="10.9996" cy="12.8224" r="3.21885" stroke="black" stroke-width="0.75"/>
<circle cx="5.21073" cy="10.5808" r="0.977333" stroke="#FF531A" stroke-width="0.75"/>
</svg>
