<svg width="22" height="23" viewBox="0 0 22 23" fill="none" xmlns="http://www.w3.org/2000/svg">
<path d="M11.4691 6.57031C11.2371 6.58097 11.0042 6.58768 10.7741 6.61591C9.36798 6.79813 8.01246 7.25939 6.78706 7.97263C5.81803 8.48472 4.97791 9.21016 4.33006 10.0942C3.85767 10.7015 3.63717 11.4673 3.71432 12.2328C3.82202 12.993 4.17674 13.6967 4.72383 14.2354C6.46698 16.0335 8.81984 17.1142 11.3196 17.265" stroke="black" stroke-width="0.75" stroke-miterlimit="10"/>
<path d="M11.3164 17.2632C11.4529 17.2885 11.594 17.2684 11.718 17.2061C11.8421 17.1438 11.9424 17.0427 12.0037 16.9181C12.1937 16.559 12.3482 16.1823 12.4649 15.7931C12.7584 14.5176 12.89 13.2101 12.8566 11.9016C12.8818 10.6035 12.7526 9.30699 12.4718 8.0394C12.3833 7.60361 12.2045 7.1912 11.9469 6.82876C11.8954 6.74808 11.8243 6.68184 11.7401 6.63629C11.656 6.59074 11.5616 6.56737 11.4659 6.56839" stroke="black" stroke-width="0.75" stroke-miterlimit="10" stroke-linecap="round"/>
<path d="M15.2617 11.9199H18.302" stroke="#FF531A" stroke-width="0.75" stroke-miterlimit="10" stroke-linecap="round"/>
<path d="M14.4331 16.1055L17.3464 16.9751" stroke="#FF531A" stroke-width="0.75" stroke-miterlimit="10" stroke-linecap="round"/>
<path d="M17.3472 6.86719L14.4339 7.73678" stroke="#FF531A" stroke-width="0.75" stroke-miterlimit="10" stroke-linecap="round"/>
</svg>
