<svg width="12" height="12" viewBox="0 0 12 12" fill="none" xmlns="http://www.w3.org/2000/svg">
<g clip-path="url(#clip0)">
<path d="M11.1955 2.98823C11.7318 3.90745 12 4.91143 12 6.00003C12 7.08851 11.7318 8.09244 11.1954 9.01177C10.6589 9.93098 9.93114 10.659 9.0119 11.1954C8.09261 11.7318 7.08862 12.0001 6.00008 12.0001C4.91154 12.0001 3.90766 11.7318 2.98832 11.1954C2.06902 10.6588 1.34122 9.93098 0.804694 9.01177C0.268277 8.09236 0 7.08857 0 6.00003C0 4.91154 0.268195 3.90758 0.804776 2.98823C1.34133 2.06894 2.06913 1.34114 2.98843 0.804694C3.90767 0.268195 4.91162 0 6.00019 0C7.08887 0 8.09253 0.268195 9.01193 0.804694C9.93117 1.34122 10.659 2.06902 11.1955 2.98823ZM9.6798 8.13281C10.06 7.48179 10.25 6.77084 10.25 6.00003C10.25 5.22916 10.06 4.51821 9.6798 3.86719C9.29964 3.21618 8.78401 2.7005 8.133 2.3203C7.48198 1.94008 6.77104 1.75004 6.00011 1.75004C5.22924 1.75004 4.51829 1.94008 3.86728 2.3203C3.21631 2.70047 2.70058 3.21618 2.32047 3.86719C1.94027 4.51821 1.75012 5.22916 1.75012 6.00003C1.75012 6.77084 1.94019 7.48179 2.32047 8.13281C2.70066 8.78382 3.21626 9.29942 3.86728 9.6798C4.51837 10.06 5.22935 10.2499 6.00011 10.2499C6.77106 10.2499 7.48198 10.06 8.133 9.6798C8.78401 9.29942 9.29961 8.78382 9.6798 8.13281ZM6.0001 4.00002C6.55229 4.00002 7.02369 4.19534 7.41417 4.58591C7.80477 4.97659 8.00012 5.4479 8.00012 6.00003C8.00012 6.5521 7.80477 7.0235 7.41417 7.41401C7.02369 7.80468 6.55229 8.00004 6.00011 8.00004C5.44807 8.00004 4.97667 7.80468 4.58599 7.41401C4.19534 7.0235 4.0001 6.5521 4.0001 6.00002C4.0001 5.4479 4.19545 4.97659 4.58599 4.58591C4.97667 4.19537 5.44799 4.00002 6.0001 4.00002Z" fill="white"/>
</g>
<defs>
<clipPath id="clip0">
<rect width="12" height="12" fill="white"/>
</clipPath>
</defs>
</svg>
