<svg width="28" height="33" viewBox="0 0 28 33" fill="none" xmlns="http://www.w3.org/2000/svg">
<path d="M17.1743 11.4263C16.8232 11.4263 16.5396 11.1419 16.5396 10.7915C16.5396 10.4411 16.8232 10.1566 17.1743 10.1566C17.5247 10.1566 17.8091 10.4411 17.8091 10.7915C17.8091 11.1419 17.5247 11.4263 17.1743 11.4263ZM10.8264 11.4263C10.4753 11.4263 10.1917 11.1419 10.1917 10.7915C10.1917 10.4411 10.4753 10.1566 10.8264 10.1566C11.1768 10.1566 11.4612 10.4411 11.4612 10.7915C11.4612 11.1419 11.1768 11.4263 10.8264 11.4263ZM12.3033 15.7894C11.9862 15.6399 11.8502 15.2617 11.9998 14.9446C12.149 14.6274 12.5275 14.4916 12.8446 14.6411C13.2069 14.812 13.5957 14.8986 14.0001 14.8986C14.3956 14.8986 14.7772 14.8152 15.134 14.6512C15.4527 14.5047 15.8296 14.6444 15.9762 14.9628C16.1225 15.2814 15.9831 15.6583 15.6644 15.8048C15.14 16.0458 14.5801 16.1681 14.0001 16.1681C13.4072 16.1681 12.8362 16.0406 12.3033 15.7894ZM28 25.7579V31.8666C28 32.2172 27.7159 32.5013 27.3652 32.5013H0.634766C0.284146 32.5013 0 32.2172 0 31.8666V25.7579C0 22.2601 3.98283 19.5295 7.38293 19.4L9.13452 17.8262C7.04467 16.2841 5.77661 13.8063 5.77661 11.1724V6.98267C5.77661 3.12136 8.87959 0 12.7369 0H15.2761C19.1387 0 22.2811 3.13252 22.2811 6.98267V11.1724C22.2811 13.8107 20.9959 16.2933 18.8785 17.8381L20.6171 19.4C24.0246 19.5297 28 22.2673 28 25.7579ZM12.5939 28.3116L11.9091 31.2317H16.0681L15.4026 28.3116H12.5939ZM15.4572 27.0421L15.9755 25.5459L14.0004 24.558L12.0668 25.5248L12.5537 27.0421H15.4572ZM14.0001 22.6506L16.2025 19.1271C15.4899 19.323 14.751 19.4243 14.0066 19.4243C13.255 19.4243 12.5106 19.3209 11.7942 19.1218L14.0001 22.6506ZM14.9087 23.5929L17.5085 24.8932L19.6002 20.1931L17.9564 18.7162L14.9087 23.5929ZM12.7369 1.26953C9.59894 1.26953 7.04614 3.83227 7.04614 6.98267V7.45288L8.17737 5.79517C8.28449 5.63796 8.45667 5.53736 8.64612 5.52075C8.83531 5.50414 9.02249 5.57298 9.1554 5.70911C10.4468 7.02879 11.941 7.61755 14.0004 7.61755C16.06 7.61755 17.5539 7.02879 18.8444 5.70911C18.9768 5.57373 19.1622 5.50464 19.3512 5.52051C19.5399 5.53638 19.7117 5.63555 19.8196 5.79102L21.0116 7.50745V6.98267C21.0116 3.83227 18.4387 1.26953 15.2761 1.26953H12.7369ZM7.04614 11.1724C7.04614 14.9838 10.1215 18.155 14.0066 18.155C17.9044 18.155 21.0116 14.9739 21.0116 11.1724V9.7334L19.1952 7.1178C17.7825 8.32167 16.1123 8.88708 14.0004 8.88708C11.8907 8.88708 10.2216 8.32297 8.8092 7.12158L7.04614 9.70508V11.1724ZM10.0436 18.7164L8.39978 20.1931L10.4915 24.8932L13.0918 23.5929L10.0436 18.7164ZM1.26953 25.7579V31.2317H10.605L11.4327 27.7032L10.9177 26.0994L10.4653 26.3257C10.3101 26.403 10.1303 26.414 9.96716 26.3555C9.80399 26.2969 9.67186 26.1742 9.60144 26.016L7.22644 20.6796C4.44849 20.8849 1.26953 23.1429 1.26953 25.7579ZM26.7305 31.2317V25.7579C26.7305 23.1429 23.5515 20.8851 20.7736 20.6796L18.3986 26.016C18.3281 26.1742 18.196 26.2969 18.0328 26.3555C17.8712 26.4135 17.6909 26.4038 17.5347 26.3257L17.1205 26.1184L16.5684 27.7129L17.3702 31.2317H26.7305ZM22.2527 28.3116C22.6033 28.3116 22.8875 28.5959 22.8875 28.9465C22.8875 29.2972 22.6033 29.5813 22.2527 29.5813H19.7135C19.3629 29.5813 19.0787 29.2972 19.0787 28.9465C19.0787 28.5959 19.3629 28.3116 19.7135 28.3116H22.2527ZM24.7568 28.3116C25.1072 28.3116 25.3916 28.5962 25.3916 28.9465C25.3916 29.2969 25.1072 29.5813 24.7568 29.5813C24.4065 29.5813 24.1221 29.2969 24.1221 28.9465C24.1221 28.5962 24.4065 28.3116 24.7568 28.3116Z" fill="url(#paint0_linear)"/>
<defs>
<linearGradient id="paint0_linear" x1="2.08616e-07" y1="16.2507" x2="28" y2="16.2507" gradientUnits="userSpaceOnUse">
<stop stop-color="#FF2517"/>
<stop offset="1" stop-color="#FF5F1B"/>
</linearGradient>
</defs>
</svg>
