<svg width="18" height="18" viewBox="0 0 18 18" fill="none" xmlns="http://www.w3.org/2000/svg">
<path d="M17.925 10.9883L14.8923 5.93348L17.614 5.17747C17.8946 5.09953 18.0589 4.80885 17.981 4.52823C17.903 4.24761 17.6122 4.08329 17.3317 4.16126L13.9485 5.10101C13.9483 5.10108 13.948 5.10115 13.9478 5.10122L9.52751 6.32903V0.527352C9.52751 0.236113 9.2914 0 9.00016 0C8.70892 0 8.47281 0.236113 8.47281 0.527352V6.62199L3.78138 7.92512C3.78114 7.92519 3.78089 7.92526 3.78064 7.92529L0.386359 8.86813C0.105703 8.94607 -0.05855 9.23675 0.0193575 9.51737C0.0842218 9.75077 0.296182 9.9037 0.527162 9.9037C0.573886 9.9037 0.621418 9.89745 0.668598 9.88433L2.78455 9.29658L0.0753623 13.8124C0.0262131 13.8944 0.000197049 13.9882 0.000197049 14.0837C0.000197049 16.2432 1.75709 18 3.91656 18C6.0761 18 7.83296 16.2432 7.83296 14.0837C7.83296 13.9882 7.80698 13.8944 7.75779 13.8124L4.7251 8.75759L12.9517 6.47251L10.2425 10.9883C10.1933 11.0702 10.1673 11.164 10.1673 11.2596C10.1673 13.4191 11.9242 15.1759 14.0837 15.1759C15.1298 15.1759 16.1133 14.7685 16.853 14.0288C17.5928 13.2891 18.0001 12.3056 18.0001 11.2595C18.0001 11.164 17.9741 11.0702 17.925 10.9883ZM3.91656 16.9453C2.51883 16.9453 1.35247 15.9378 1.10416 14.6111H6.72896C6.48069 15.9378 5.31432 16.9453 3.91656 16.9453ZM6.3743 13.5564H1.45889L3.91656 9.45989L6.3743 13.5564ZM14.0837 6.63578L16.5415 10.7322H11.626L14.0837 6.63578ZM14.0838 14.1212C12.686 14.1212 11.5196 13.1137 11.2713 11.7869H16.8962C16.6479 13.1137 15.4815 14.1212 14.0838 14.1212Z" fill="#222235"/>
</svg>
