<svg width="18" height="18" viewBox="0 0 18 18" fill="none" xmlns="http://www.w3.org/2000/svg">
<path d="M17.0201 10.4205C17.5567 5.9042 16.7624 3.05296 15.3296 1.76335L15.3304 1.7626C13.0179 -0.439706 5.2083 -0.765669 2.44174 1.86151C1.19933 3.14663 0.761721 5.03272 0.713763 7.36766C0.665805 9.70335 0.608856 14.0787 4.68601 15.2657H4.68976L4.68601 17.0783C4.68601 17.0783 4.65828 17.8127 5.12737 17.9603C5.6639 18.1342 5.90668 17.7932 7.57546 15.8C10.366 16.042 12.5091 15.4875 12.7526 15.4066C13.3161 15.2177 16.5046 14.7959 17.0201 10.4205ZM7.85047 14.5246C7.85047 14.5246 6.08428 16.7269 5.53501 17.2986C5.35517 17.4845 5.15809 17.4673 5.16109 17.0986C5.16109 16.8565 5.17458 14.0892 5.17458 14.0892C1.71788 13.0986 1.9217 9.37289 1.95916 7.42386C1.99663 5.47408 2.35332 3.87724 3.40539 2.80193C5.8325 0.526192 12.6792 1.03499 14.4237 2.67455C16.5563 4.56513 15.7972 9.90642 15.8017 10.0885C15.3633 13.7408 12.7796 13.9723 12.3045 14.1304C12.1015 14.1979 10.2169 14.6827 7.85047 14.5246Z" fill="white"/>
<path d="M8.82575 3.23047C8.53725 3.23047 8.53725 3.68007 8.82575 3.68382C11.064 3.70105 12.9074 5.26118 12.9276 8.1229C12.9276 8.42489 13.3697 8.42114 13.366 8.11916H13.3652C13.3413 5.03563 11.3285 3.2477 8.82575 3.23047Z" fill="white"/>
<path d="M11.7719 7.64876C11.7651 7.94699 12.2065 7.96123 12.2103 7.65925C12.247 5.959 11.1986 4.55848 9.22863 4.41086C8.94014 4.38988 8.91016 4.84323 9.19791 4.86421C10.9064 4.99385 11.8064 6.15982 11.7719 7.64876Z" fill="white"/>
<path d="M11.2986 9.58276C10.9284 9.36845 10.5515 9.50183 10.3956 9.71239L10.0697 10.1343C9.90407 10.3486 9.59459 10.3201 9.59459 10.3201C7.33608 9.72288 6.73212 7.35947 6.73212 7.35947C6.73212 7.35947 6.70439 7.0395 6.91121 6.8679L7.31885 6.5307C7.52267 6.36884 7.65155 5.97919 7.44399 5.59627C6.88948 4.59441 6.51706 4.24896 6.32747 3.9837C6.12815 3.73417 5.82841 3.67797 5.51669 3.84657H5.50994C4.86176 4.22573 4.15214 4.93536 4.37919 5.66596C4.7666 6.43628 5.47847 8.89187 7.74747 10.7472C8.81378 11.6247 10.5013 12.5239 11.2177 12.7315L11.2244 12.742C11.9303 12.9773 12.6167 12.2399 12.9831 11.5723V11.567C13.1457 11.244 13.0918 10.9383 12.8542 10.7382C12.4331 10.3276 11.7976 9.87425 11.2986 9.58276Z" fill="white"/>
<path d="M9.53698 6.08274C10.2571 6.1247 10.6063 6.50087 10.6438 7.27343C10.6572 7.57542 11.0956 7.55444 11.0821 7.25245C11.0342 6.24384 10.5081 5.68184 9.56096 5.62939C9.27246 5.61215 9.24549 6.0655 9.53698 6.08274Z" fill="white"/>
</svg>
