<svg width="45" height="45" viewBox="0 0 45 45" fill="none" xmlns="http://www.w3.org/2000/svg">
<circle opacity="0.07" cx="22.5" cy="22.5" r="22.5" fill="url(#paint0_linear)"/>
<path d="M10.0528 11.6999C9.96463 11.5425 9.9926 11.3457 10.1212 11.2193L11.7205 9.6199C11.8478 9.49309 12.0442 9.46673 12.2003 9.55555L14.9992 11.1548C15.0938 11.2089 15.1622 11.2994 15.1886 11.4052L15.5617 12.8964L20.6795 18.0143L20.1142 18.5797L14.9163 13.3818C14.8651 13.3307 14.8286 13.2664 14.8112 13.196L14.4513 11.7622L12.066 10.3992L10.8986 11.5666L12.2603 13.951L13.694 14.3107C13.7643 14.3283 13.8284 14.3646 13.8796 14.416L19.0775 19.6137L18.512 20.1789L13.3942 15.0612L11.9021 14.6881C11.7965 14.6616 11.7061 14.5933 11.6522 14.4987L10.0528 11.6999ZM26.6759 17.3801L17.8797 26.1764L17.3143 25.6109L26.1106 16.8147L26.6759 17.3801ZM16.3402 26.4876L17.5396 28.4867C17.6157 28.6133 17.6157 28.7717 17.5396 28.8985L16.3402 30.8976C16.2678 31.0178 16.1379 31.0915 15.9974 31.0915H13.5985C13.4582 31.0915 13.3281 31.0178 13.2559 30.8976L12.0563 28.8985C11.9802 28.7717 11.9802 28.6133 12.0563 28.4867L13.2559 26.4876C13.3281 26.3672 13.4582 26.2937 13.5985 26.2937H15.9974C16.1379 26.2937 16.2678 26.3672 16.3402 26.4876ZM15.7713 30.2918L16.7308 28.6926L15.7713 27.0932H13.8248L12.8652 28.6926L13.8248 30.2918H15.7713ZM29.1918 19.0967C28.8771 19.0957 28.5633 19.0632 28.2551 18.9995L26.1588 21.0958L27.0756 22.0126C27.2317 22.1687 27.2317 22.4218 27.0756 22.5779L26.8756 22.7779C26.8754 22.7782 26.8751 22.7784 26.8748 22.7787C26.7001 22.9537 26.7006 23.2373 26.8756 23.412C27.0511 23.5863 27.3343 23.5863 27.5098 23.412L27.7096 23.2121C27.8657 23.056 28.1189 23.056 28.275 23.2121L33.0446 27.9816C33.0515 27.9885 33.0584 27.9954 33.0651 28.0023C34.3196 29.2681 34.3104 31.3115 33.0446 32.566C31.7786 33.8204 29.7354 33.8112 28.4809 32.5452L23.7113 27.7757C23.5552 27.6196 23.5552 27.3664 23.7113 27.2103L23.9112 27.0105C23.9115 27.0101 23.9119 27.0098 23.912 27.0096C24.0867 26.8345 24.0864 26.551 23.9112 26.3763C23.7358 26.2021 23.4524 26.2021 23.2771 26.3763L23.0772 26.5762C22.921 26.7323 22.668 26.7323 22.5118 26.5762L21.595 25.6594L19.4987 27.7557C19.5623 28.0639 19.5949 28.3778 19.5959 28.6926C19.5959 31.3423 17.4478 33.4904 14.798 33.4904C12.1481 33.4904 10 31.3423 10 28.6926C10 26.0427 12.1481 23.8945 14.798 23.8945C15.1127 23.8957 15.4265 23.9281 15.7347 23.9917L24.4911 15.2356C24.4273 14.9273 24.3949 14.6135 24.3939 14.2987C24.3926 13.8978 24.4418 13.4985 24.5403 13.11C25.1888 10.5492 27.7904 8.99898 30.3514 9.64753C30.4223 9.66496 30.4871 9.70152 30.5386 9.753C30.6948 9.90909 30.695 10.1622 30.5389 10.3184L28.05 12.8078L28.7085 14.7821L30.6833 15.4401L33.1722 12.9529C33.2235 12.9018 33.2877 12.8654 33.3581 12.8478C33.5724 12.7945 33.7893 12.925 33.8426 13.1393C33.9415 13.529 33.9908 13.9292 33.9895 14.3312C33.9806 16.9719 31.8325 19.1056 29.1918 19.0967ZM30.7627 32.6909C31.0552 32.6912 31.3451 32.6386 31.6187 32.5358C32.8722 32.0646 33.5062 30.6665 33.035 29.413L29.9124 32.5358C30.1843 32.638 30.4723 32.6904 30.7627 32.6909ZM26.2331 22.2993L25.5933 21.6611L22.1568 25.0925L22.7965 25.7321C23.2602 25.3425 23.9368 25.342 24.401 25.7312C24.9291 26.1738 24.9986 26.9609 24.5558 27.4891L29.0462 31.9799C29.095 32.0287 29.1466 32.0743 29.199 32.1182L32.6176 28.6997C32.5735 28.6474 32.5279 28.5959 32.4792 28.547L27.9923 24.0561C27.5286 24.4459 26.8521 24.4462 26.3879 24.0572C25.8597 23.6146 25.7904 22.8274 26.2331 22.2993ZM27.8477 18.2779V18.2777H27.8455C27.9449 18.1784 28.0891 18.1386 28.2255 18.1727C28.5545 18.2569 28.8929 18.2986 29.2326 18.297C31.4295 18.2856 33.2013 16.4956 33.1901 14.2987C33.1901 14.2235 33.1877 14.148 33.1829 14.0717L31.0738 16.1808C30.9667 16.2878 30.8083 16.3251 30.6649 16.2772L28.2658 15.4775C28.1464 15.4378 28.0526 15.3441 28.0126 15.2249L27.2131 12.8257C27.1652 12.6821 27.2028 12.5238 27.3098 12.4169L29.4189 10.3069C29.0044 10.2811 28.5883 10.3206 28.186 10.4234C26.057 10.9683 24.7727 13.1358 25.3175 15.2649C25.3517 15.401 25.3117 15.5452 25.2124 15.6446L16.1443 24.7132C16.0446 24.812 15.9007 24.852 15.7643 24.8186C15.1127 24.6528 14.4299 24.6528 13.7783 24.8186C11.6239 25.3671 10.3222 27.5582 10.8706 29.7123C11.4191 31.8667 13.6102 33.1684 15.7643 32.6198C17.9187 32.0715 19.2204 29.8805 18.6718 27.7263C18.638 27.5899 18.6779 27.4457 18.7774 27.3463L27.8477 18.2779ZM30.6744 29.6092L30.1089 30.1747L26.1108 26.1765L26.6761 25.6111L30.6744 29.6092Z" fill="url(#paint1_linear)"/>
<defs>
<linearGradient id="paint0_linear" x1="3.35276e-07" y1="22.5" x2="45" y2="22.5" gradientUnits="userSpaceOnUse">
<stop stop-color="#FF2517"/>
<stop offset="1" stop-color="#FF5F1B"/>
</linearGradient>
<linearGradient id="paint1_linear" x1="10" y1="21.5004" x2="34" y2="21.5004" gradientUnits="userSpaceOnUse">
<stop stop-color="#FF2517"/>
<stop offset="1" stop-color="#FF5F1B"/>
</linearGradient>
</defs>
</svg>
