<svg width="20" height="20" viewBox="0 0 20 20" fill="none" xmlns="http://www.w3.org/2000/svg">
<path d="M16.364 12.636C15.3837 11.6558 14.217 10.9301 12.9439 10.4909C14.3074 9.55179 15.2031 7.9802 15.2031 6.20312C15.2031 3.33413 12.869 1 10 1C7.131 1 4.79688 3.33413 4.79688 6.20312C4.79688 7.9802 5.69262 9.55179 7.05609 10.4909C5.78308 10.9301 4.61631 11.6558 3.63605 12.636C1.93618 14.3359 1 16.596 1 19H2.40625C2.40625 14.8128 5.81279 11.4062 10 11.4062C14.1872 11.4062 17.5938 14.8128 17.5938 19H19C19 16.596 18.0638 14.3359 16.364 12.636ZM10 10C7.90641 10 6.20312 8.29675 6.20312 6.20312C6.20312 4.1095 7.90641 2.40625 10 2.40625C12.0936 2.40625 13.7969 4.1095 13.7969 6.20312C13.7969 8.29675 12.0936 10 10 10Z" fill="white"/>
<path fill-rule="evenodd" clip-rule="evenodd" d="M16.5763 12.4231C18.3324 14.1793 19.3002 16.5157 19.3002 18.9992V19.2992H17.2939V18.9992C17.2939 14.9777 14.0217 11.7055 10.0002 11.7055C5.97867 11.7055 2.70645 14.9777 2.70645 18.9992V19.2992H0.700195V18.9992C0.700195 16.5157 1.66798 14.1793 3.42411 12.4231C4.3036 11.5437 5.32913 10.862 6.44619 10.4005C5.2553 9.39087 4.49707 7.88387 4.49707 6.20234C4.49707 3.16766 6.96551 0.699219 10.0002 0.699219C13.0349 0.699219 15.5033 3.16766 15.5033 6.20234C15.5033 7.88387 14.7451 9.39086 13.5542 10.4005C14.6713 10.862 15.6968 11.5437 16.5763 12.4231ZM13.2843 10.6153C13.1718 10.5712 13.0584 10.5295 12.9441 10.4901C13.0434 10.4217 13.1401 10.3501 13.2342 10.2752C14.4332 9.32121 15.2033 7.85011 15.2033 6.20234C15.2033 3.33335 12.8692 0.999219 10.0002 0.999219C7.1312 0.999219 4.79707 3.33335 4.79707 6.20234C4.79707 7.85011 5.5672 9.32121 6.76624 10.2752C6.86033 10.3501 6.95707 10.4217 7.05628 10.4901C6.94202 10.5295 6.82861 10.5712 6.71612 10.6153C5.57532 11.0617 4.52852 11.743 3.63625 12.6352C2.00727 14.2642 1.07961 16.4077 1.00507 18.6992C1.00182 18.7989 1.0002 18.899 1.0002 18.9992H2.40645C2.40645 14.812 5.81298 11.4055 10.0002 11.4055C14.1874 11.4055 17.5939 14.812 17.5939 18.9992H19.0002C19.0002 18.899 18.9986 18.7989 18.9953 18.6992C18.9208 16.4077 17.9931 14.2642 16.3642 12.6352C15.4719 11.743 14.4251 11.0617 13.2843 10.6153ZM6.50332 6.20234C6.50332 8.13028 8.07229 9.69922 10.0002 9.69922C11.9281 9.69922 13.4971 8.13028 13.4971 6.20234C13.4971 4.27441 11.9281 2.70547 10.0002 2.70547C8.07229 2.70547 6.50332 4.27441 6.50332 6.20234ZM6.20332 6.20234C6.20332 8.29597 7.90661 9.99922 10.0002 9.99922C12.0938 9.99922 13.7971 8.29597 13.7971 6.20234C13.7971 4.10872 12.0938 2.40547 10.0002 2.40547C7.90661 2.40547 6.20332 4.10872 6.20332 6.20234Z" fill="white"/>
</svg>
