<svg width="42" height="42" viewBox="0 0 42 42" fill="none" xmlns="http://www.w3.org/2000/svg">
<rect width="42" height="42" rx="5" fill="#7C529D"/>
<path d="M29.0201 22.4205C29.5567 17.9042 28.7624 15.053 27.3296 13.7634L27.3304 13.7626C25.0179 11.5603 17.2083 11.2343 14.4417 13.8615C13.1993 15.1466 12.7617 17.0327 12.7138 19.3677C12.6658 21.7033 12.6089 26.0787 16.686 27.2657H16.6898L16.686 29.0783C16.686 29.0783 16.6583 29.8127 17.1274 29.9603C17.6639 30.1342 17.9067 29.7932 19.5755 27.8C22.366 28.042 24.5091 27.4875 24.7526 27.4066C25.3161 27.2177 28.5046 26.7959 29.0201 22.4205ZM19.8505 26.5246C19.8505 26.5246 18.0843 28.7269 17.535 29.2986C17.3552 29.4845 17.1581 29.4673 17.1611 29.0986C17.1611 28.8565 17.1746 26.0892 17.1746 26.0892C13.7179 25.0986 13.9217 21.3729 13.9592 19.4239C13.9966 17.4741 14.3533 15.8772 15.4054 14.8019C17.8325 12.5262 24.6792 13.035 26.4237 14.6745C28.5563 16.5651 27.7972 21.9064 27.8017 22.0885C27.3633 25.7408 24.7796 25.9723 24.3045 26.1304C24.1015 26.1979 22.2169 26.6827 19.8505 26.5246Z" fill="white"/>
<path d="M20.8257 15.2305C20.5373 15.2305 20.5373 15.6801 20.8257 15.6838C23.064 15.7011 24.9074 17.2612 24.9276 20.1229C24.9276 20.4249 25.3697 20.4211 25.366 20.1192H25.3652C25.3413 17.0356 23.3285 15.2477 20.8257 15.2305Z" fill="white"/>
<path d="M23.7714 19.6488C23.7647 19.947 24.206 19.9612 24.2098 19.6592C24.2465 17.959 23.1982 16.5585 21.2281 16.4109C20.9396 16.3899 20.9097 16.8432 21.1974 16.8642C22.9059 16.9938 23.8059 18.1598 23.7714 19.6488Z" fill="white"/>
<path d="M23.2986 21.5828C22.9284 21.3684 22.5515 21.5018 22.3956 21.7124L22.0697 22.1343C21.9041 22.3486 21.5946 22.3201 21.5946 22.3201C19.3361 21.7229 18.7321 19.3595 18.7321 19.3595C18.7321 19.3595 18.7044 19.0395 18.9112 18.8679L19.3188 18.5307C19.5227 18.3688 19.6516 17.9792 19.444 17.5963C18.8895 16.5944 18.5171 16.249 18.3275 15.9837C18.1281 15.7342 17.8284 15.678 17.5167 15.8466H17.5099C16.8618 16.2257 16.1521 16.9354 16.3792 17.666C16.7666 18.4363 17.4785 20.8919 19.7475 22.7472C20.8138 23.6247 22.5013 24.5239 23.2177 24.7315L23.2244 24.742C23.9303 24.9773 24.6167 24.2399 24.9831 23.5723V23.567C25.1457 23.244 25.0918 22.9383 24.8542 22.7382C24.4331 22.3276 23.7976 21.8742 23.2986 21.5828Z" fill="white"/>
<path d="M21.538 18.0827C22.2581 18.1247 22.6073 18.5009 22.6447 19.2734C22.6582 19.5754 23.0966 19.5544 23.0831 19.2525C23.0351 18.2438 22.5091 17.6818 21.5619 17.6294C21.2734 17.6122 21.2465 18.0655 21.538 18.0827Z" fill="white"/>
</svg>
