<svg width="42" height="42" viewBox="0 0 42 42" fill="none" xmlns="http://www.w3.org/2000/svg">
<rect width="42" height="42" rx="5" fill="#F63636"/>
<path d="M30.5879 16.1907C30.3575 15.334 29.6819 14.6588 28.8252 14.4281C27.2602 14 20.9998 14 20.9998 14C20.9998 14 14.7396 14 13.1746 14.4119C12.3344 14.6423 11.6423 15.3342 11.4119 16.1907C11 17.7553 11 21 11 21C11 21 11 24.2611 11.4119 25.8093C11.6426 26.6658 12.3179 27.3411 13.1747 27.5718C14.7561 28 21 28 21 28C21 28 27.2602 28 28.8252 27.5881C29.682 27.3576 30.3575 26.6823 30.5882 25.8258C30.9999 24.2611 30.9999 21.0165 30.9999 21.0165C30.9999 21.0165 31.0164 17.7553 30.5879 16.1907ZM19.0066 23.9976V18.0024L24.2124 21L19.0066 23.9976Z" fill="white"/>
</svg>
