<svg width="22" height="23" viewBox="0 0 22 23" fill="none" xmlns="http://www.w3.org/2000/svg">
<path d="M11.0295 19.1481C10.7645 19.1318 10.5069 19.0542 10.277 18.9214L10.1587 18.8649C7.94358 17.8643 6.18971 16.0617 5.25015 13.8201C4.77837 12.7089 4.53498 11.5141 4.53448 10.3069C4.52933 9.48324 4.53019 8.66001 4.53105 7.83678C4.53192 6.96169 4.5328 6.08661 4.5259 5.21152C4.52477 5.0915 4.56381 4.97454 4.63681 4.87926C4.7098 4.78398 4.81257 4.71585 4.92875 4.6857C5.7524 4.46886 6.58464 4.22116 7.38944 3.9816L8.02368 3.79346C8.8242 3.55737 9.62387 3.32078 10.421 3.07652C10.7858 2.98178 11.1685 2.97972 11.5343 3.07051L13.1534 3.54919C14.4364 3.92889 15.7058 4.30515 17.0102 4.67669C17.1513 4.72096 17.2735 4.81089 17.3578 4.93232C17.4421 5.05375 17.4835 5.19977 17.4756 5.34736C17.4739 6.13503 17.4739 6.86827 17.4739 7.63321V8.22975L17.3616 11.5647C17.1385 13.2477 16.4462 14.834 15.3637 16.1419C14.3204 17.4222 12.9758 18.4237 11.4503 19.0565C11.3181 19.1164 11.1747 19.1476 11.0295 19.1481Z" stroke="black" stroke-width="0.75"/>
<path d="M11.0233 16.7319C10.8376 16.7205 10.6571 16.6661 10.496 16.5731L10.4131 16.5334C8.86103 15.8324 7.63212 14.5693 6.97379 12.9986C6.64322 12.22 6.47269 11.3829 6.47233 10.537C6.46873 9.95988 6.46933 9.38306 6.46993 8.80623C6.47054 8.19308 6.47116 7.57992 6.46633 6.96676C6.46553 6.88266 6.49289 6.80071 6.54403 6.73395C6.59518 6.66719 6.66719 6.61945 6.74859 6.59833C7.32571 6.44639 7.90885 6.27283 8.47276 6.10497L8.91716 5.97315C9.47807 5.80773 10.0384 5.64195 10.5969 5.4708C10.8525 5.40442 11.1207 5.40297 11.377 5.46659L12.5114 5.802C13.4105 6.06804 14.2999 6.33168 15.2139 6.59202C15.3127 6.62303 15.3984 6.68605 15.4574 6.77113C15.5165 6.85621 15.5455 6.95853 15.54 7.06194C15.5388 7.61385 15.5388 8.12761 15.5388 8.6636V9.08158L15.4601 11.4183C15.3038 12.5976 14.8187 13.7091 14.0602 14.6255C13.3292 15.5226 12.387 16.2243 11.3181 16.6677C11.2255 16.7096 11.125 16.7315 11.0233 16.7319Z" stroke="#FF531A" stroke-width="0.75"/>
</svg>
