<svg width="12" height="13" viewBox="0 0 12 13" fill="none" xmlns="http://www.w3.org/2000/svg">
<path d="M5.6875 1.625C7.92837 1.625 9.75 3.44662 9.75 5.6875C9.75 7.92837 7.92837 9.75 5.6875 9.75C5.40028 9.75 5.08909 9.70734 4.73688 9.62162L4.04503 9.45019L3.4515 9.84344L3.26584 9.96572L3.26747 9.68784L3.27072 9.01672L2.79947 8.53897C2.04222 7.77116 1.625 6.75878 1.625 5.6875C1.625 3.44662 3.44662 1.625 5.6875 1.625ZM5.6875 0C2.54719 0 0 2.54719 0 5.6875C0 7.24425 0.628469 8.65191 1.64247 9.68012L1.625 13L4.34809 11.1987C4.77994 11.3051 5.22397 11.375 5.6875 11.375C8.82781 11.375 11.375 8.82781 11.375 5.6875C11.375 2.54719 8.82781 0 5.6875 0Z" fill="url(#paint0_linear)"/>
<defs>
<linearGradient id="paint0_linear" x1="8.47504e-08" y1="6.5" x2="11.375" y2="6.5" gradientUnits="userSpaceOnUse">
<stop stop-color="#FF2517"/>
<stop offset="1" stop-color="#FF5F1B"/>
</linearGradient>
</defs>
</svg>
