<svg width="28" height="28" viewBox="0 0 28 28" fill="none" xmlns="http://www.w3.org/2000/svg">
<path d="M14.0008 25.4382C11.7386 25.4382 9.52733 24.7671 7.64645 23.5099C5.76556 22.2527 4.29959 20.4657 3.43392 18.375C2.56824 16.2843 2.34174 13.9838 2.78306 11.7643C3.22438 9.54481 4.31369 7.50609 5.91325 5.90594C7.51281 4.30578 9.55077 3.21607 11.7694 2.77459C13.9881 2.3331 16.2878 2.55969 18.3777 3.42568C20.4676 4.29168 22.2539 5.75819 23.5107 7.63977C24.7675 9.52135 25.4382 11.7335 25.4382 13.9964C25.4349 17.0299 24.2288 19.9382 22.0846 22.0833C19.9404 24.2283 17.0331 25.4348 14.0008 25.4382ZM14.0008 3.57937C11.9412 3.57937 9.92794 4.19032 8.21549 5.33496C6.50304 6.4796 5.16836 8.10653 4.3802 10.01C3.59205 11.9135 3.38583 14.008 3.78763 16.0287C4.18943 18.0494 5.18119 19.9056 6.63751 21.3624C8.09382 22.8193 9.94928 23.8114 11.9692 24.2134C13.9892 24.6153 16.083 24.409 17.9857 23.6206C19.8885 22.8321 21.5148 21.4969 22.659 19.7839C23.8033 18.0708 24.414 16.0568 24.414 13.9964C24.4109 11.2346 23.3129 8.58675 21.3607 6.63383C19.4085 4.68091 16.7616 3.58242 14.0008 3.57937Z" fill="url(#paint0_linear)"/>
<path d="M27.1482 18.0523C27.1166 18.0524 27.0851 18.0479 27.0548 18.039C27.0116 18.0269 26.9712 18.0064 26.936 17.9786C26.9008 17.9508 26.8714 17.9163 26.8496 17.8771C26.8278 17.8379 26.8139 17.7948 26.8089 17.7502C26.8038 17.7056 26.8076 17.6605 26.8201 17.6174C27.6357 14.7261 27.4506 11.644 26.2948 8.87124C25.1389 6.09849 23.0802 3.79792 20.4528 2.34298C17.8255 0.888047 14.7836 0.364153 11.8211 0.856342C8.85864 1.34853 6.1494 2.82791 4.13318 5.05434C4.07235 5.12139 3.98737 5.16152 3.89696 5.1659C3.80654 5.17028 3.71809 5.13855 3.65106 5.07768C3.58403 5.01682 3.54392 4.93182 3.53954 4.84137C3.53517 4.75092 3.56688 4.66244 3.62772 4.59538C5.74827 2.25726 8.59618 0.704297 11.7096 0.188349C14.8231 -0.327598 18.0194 0.223725 20.7804 1.75291C23.5413 3.28209 25.7049 5.69946 26.9203 8.61298C28.1357 11.5265 28.3316 14.7653 27.4762 17.8042C27.4561 17.8757 27.4131 17.9386 27.3539 17.9834C27.2947 18.0282 27.2224 18.0524 27.1482 18.0523Z" fill="url(#paint1_linear)"/>
<path d="M6.84943 4.23164C6.84361 4.20858 6.8333 4.1869 6.81909 4.16782C6.80488 4.14875 6.78706 4.13267 6.76663 4.12049C6.7462 4.10831 6.72358 4.10027 6.70004 4.09684C6.67651 4.09341 6.65253 4.09465 6.62948 4.10049L3.94358 4.77569L4.46737 2.05624C4.47203 2.03283 4.47201 2.00873 4.46732 1.98533C4.46264 1.96192 4.45337 1.93968 4.44005 1.91987C4.42673 1.90007 4.40963 1.88309 4.38973 1.86991C4.36982 1.85674 4.34751 1.84763 4.32408 1.84311C4.30064 1.83859 4.27654 1.83875 4.25317 1.84358C4.22979 1.84841 4.2076 1.85781 4.18788 1.87124C4.16815 1.88468 4.15127 1.90188 4.13822 1.92186C4.12516 1.94184 4.11619 1.96421 4.11181 1.98767L3.53427 4.98627C3.52852 5.01617 3.5304 5.04704 3.53974 5.07602C3.54908 5.105 3.56557 5.13116 3.5877 5.15207C3.60982 5.17299 3.63686 5.18799 3.66632 5.19569C3.69578 5.2034 3.7267 5.20354 3.75623 5.19613L6.7178 4.45166C6.76438 4.43987 6.80438 4.4101 6.82905 4.36888C6.85373 4.32765 6.86105 4.27826 6.84943 4.23164Z" fill="url(#paint2_linear)"/>
<path d="M13.9981 28C11.5713 27.9992 9.18638 27.3674 7.07718 26.1667C4.96797 24.966 3.20692 23.2376 1.9667 21.1508C0.726473 19.0641 0.0496622 16.6908 0.00263047 14.2635C-0.0444013 11.8363 0.539961 9.43848 1.69842 7.30524C1.71971 7.26553 1.74864 7.23042 1.78355 7.20194C1.81846 7.17345 1.85866 7.15216 1.90183 7.13927C1.94499 7.12639 1.99028 7.12217 2.03509 7.12686C2.07989 7.13156 2.12332 7.14507 2.16289 7.16661C2.20245 7.18816 2.23737 7.21732 2.26562 7.25242C2.29388 7.28752 2.31492 7.32787 2.32753 7.37113C2.34014 7.41439 2.34407 7.45972 2.3391 7.50451C2.33413 7.5493 2.32036 7.59267 2.29857 7.63211C0.628798 10.7054 0.234282 14.3124 1.20021 17.6742C2.16614 21.036 4.41501 23.8829 7.46123 25.6002C10.5075 27.3174 14.1066 27.7673 17.4816 26.8526C20.8565 25.938 23.7365 23.7321 25.4996 20.7114C25.5455 20.6338 25.6203 20.5775 25.7075 20.5548C25.7948 20.5321 25.8875 20.5449 25.9654 20.5904C26.0433 20.6359 26.1 20.7103 26.1232 20.7975C26.1464 20.8847 26.1341 20.9775 26.0891 21.0556C24.8515 23.1652 23.0853 24.9153 20.9649 26.1331C18.8445 27.351 16.4432 27.9944 13.9981 28Z" fill="url(#paint3_linear)"/>
<path d="M22.9853 22.0389C22.9955 22.0604 23.0097 22.0797 23.0274 22.0957C23.045 22.1117 23.0656 22.1241 23.088 22.1321C23.1103 22.1401 23.1341 22.1436 23.1579 22.1425C23.1816 22.1413 23.2049 22.1355 23.2264 22.1253L25.7324 20.9463L25.7411 23.7157C25.7407 23.7398 25.7451 23.7638 25.754 23.7861C25.763 23.8085 25.7763 23.8289 25.7932 23.8461C25.8101 23.8632 25.8303 23.8769 25.8525 23.8861C25.8747 23.8954 25.8986 23.9001 25.9227 23.9001C25.9468 23.9 25.9706 23.8951 25.9928 23.8857C26.015 23.8763 26.0351 23.8626 26.0519 23.8453C26.0687 23.828 26.0819 23.8076 26.0907 23.7852C26.0995 23.7627 26.1038 23.7388 26.1032 23.7147L26.0935 20.661C26.0934 20.6305 26.0856 20.6006 26.0709 20.5739C26.0561 20.5473 26.0349 20.5248 26.0092 20.5085C25.9834 20.4922 25.954 20.4827 25.9236 20.4808C25.8932 20.4789 25.8628 20.4847 25.8353 20.4977L23.0721 21.7976C23.0286 21.8181 22.9951 21.8551 22.9788 21.9003C22.9625 21.9455 22.9649 21.9954 22.9853 22.0389Z" fill="url(#paint4_linear)"/>
<path fill-rule="evenodd" clip-rule="evenodd" d="M14 26C20.6274 26 26 20.6274 26 14C26 7.37258 20.6274 2 14 2C7.37258 2 2 7.37258 2 14C2 20.6274 7.37258 26 14 26ZM14 28C21.732 28 28 21.732 28 14C28 6.26801 21.732 6.01131e-09 14 6.01131e-09C6.26801 6.01131e-09 0 6.26801 0 14C0 21.732 6.26801 28 14 28Z" fill="url(#paint5_linear)"/>
<path d="M9 11.7973H15.6662C15.824 11.6912 15.9441 11.2558 16.1103 10.8095C16.1103 10.1837 15.8715 9.94966 15.3925 9.56463C14.9134 9.18095 14.5656 8.98775 13.7947 8.98775C13.1061 8.98775 12.4497 9.12653 11.8254 9.40272C11.2011 9.67891 10.2291 10.3442 9.8338 10.7129V8.27755C10.3729 8.02313 11.2891 7.67755 11.9162 7.53877C12.5447 7.40272 13.2123 7.33333 13.919 7.33333C15.1578 7.33333 16.1746 7.68843 16.9721 8.39864C17.7682 9.10884 18.1662 9.98775 18.1662 11.0354C18.1662 11.5442 18.2556 11.4272 18.0279 11.7986H19V13.4218H16.6397C16.3142 13.6095 15.824 13.9429 15.3869 14.1306C14.8212 14.381 14.4022 14.3211 14 14.5034H19V16.1265H12.1941C11.9665 16.3918 11.8268 16.6626 11.8268 17.2109C11.8268 17.8585 11.9288 17.9592 12.4092 18.3252C12.8897 18.6912 13.324 19.0095 14.2654 19.0095C14.9204 19.0095 15.6034 18.8585 16.3142 18.5565C17.0237 18.2544 17.6061 17.8925 18.1648 17.3429V19.6422C17.5908 19.9211 17.155 20.1864 16.5042 20.3782C15.8534 20.5714 15.0642 20.6667 14.1383 20.6667C13.3589 20.6667 12.7095 20.5673 12.1899 20.3687C11.6704 20.1701 11.2053 19.8884 10.7947 19.5224C10.426 19.1891 10.1411 18.8095 9.93715 18.385C9.73464 17.9605 9.63268 17.502 9.63268 17.0095C9.63268 16.6367 9.72765 16.4327 9.8324 16.1279H9V14.5034H10.9441C11.4385 14.1279 11.9553 13.8544 13.0265 13.4218H9V11.7973Z" fill="url(#paint6_linear)"/>
<defs>
<linearGradient id="paint0_linear" x1="-0.0065247" y1="-0.295302" x2="35.0118" y2="17.6198" gradientUnits="userSpaceOnUse">
<stop stop-color="#0099F7"/>
<stop offset="1" stop-color="#F11712"/>
</linearGradient>
<linearGradient id="paint1_linear" x1="-0.0065247" y1="-0.295302" x2="35.0118" y2="17.6198" gradientUnits="userSpaceOnUse">
<stop stop-color="#0099F7"/>
<stop offset="1" stop-color="#F11712"/>
</linearGradient>
<linearGradient id="paint2_linear" x1="-0.0065247" y1="-0.295302" x2="35.0118" y2="17.6198" gradientUnits="userSpaceOnUse">
<stop stop-color="#0099F7"/>
<stop offset="1" stop-color="#F11712"/>
</linearGradient>
<linearGradient id="paint3_linear" x1="-0.0065247" y1="-0.295302" x2="35.0118" y2="17.6198" gradientUnits="userSpaceOnUse">
<stop stop-color="#0099F7"/>
<stop offset="1" stop-color="#F11712"/>
</linearGradient>
<linearGradient id="paint4_linear" x1="-0.0065247" y1="-0.295302" x2="35.0118" y2="17.6198" gradientUnits="userSpaceOnUse">
<stop stop-color="#0099F7"/>
<stop offset="1" stop-color="#F11712"/>
</linearGradient>
<linearGradient id="paint5_linear" x1="-0.0065247" y1="-0.295302" x2="35.0118" y2="17.6198" gradientUnits="userSpaceOnUse">
<stop stop-color="#0099F7"/>
<stop offset="1" stop-color="#F11712"/>
</linearGradient>
<linearGradient id="paint6_linear" x1="-0.0065247" y1="-0.295302" x2="35.0118" y2="17.6198" gradientUnits="userSpaceOnUse">
<stop stop-color="#0099F7"/>
<stop offset="1" stop-color="#F11712"/>
</linearGradient>
</defs>
</svg>
