<svg width="60" height="56" viewBox="0 0 60 56" fill="none" xmlns="http://www.w3.org/2000/svg">
<path d="M35.3733 0.371094C26.7889 0.371094 19.2318 4.23453 14.8242 10.091L45.0506 41.9427C53.8398 38.6362 59.9987 30.9636 59.9987 22.0254C59.9987 10.066 48.9735 0.371094 35.3733 0.371094Z" fill="#8D9CA8"/>
<path d="M49.1849 29.9417C49.1849 17.9984 38.1744 8.31641 24.5924 8.31641C11.0104 8.31641 0 17.9983 0 29.9417C0 39.5257 7.09066 47.6521 16.91 50.4894L15.4337 55.0135C15.3146 55.3786 15.6604 55.7244 16.0254 55.6052L30.0281 51.0359C40.9944 48.86 49.1849 40.2424 49.1849 29.9417Z" fill="#EFF2F4"/>
<path d="M35.3733 0.371094C26.7889 0.371094 19.2318 4.23453 14.8242 10.091C30.9898 3.93231 49.1836 14.3636 49.1836 29.9421C49.1836 34.3823 47.6606 38.5091 45.0506 41.9427C53.8398 38.6362 59.9987 30.9636 59.9987 22.0254C59.9987 10.066 48.9735 0.371094 35.3733 0.371094Z" fill="#8D9CA8"/>
<path d="M24.5917 33.1248C26.2711 33.1248 27.6326 31.7633 27.6326 30.0839C27.6326 28.4044 26.2711 27.043 24.5917 27.043C22.9122 27.043 21.5508 28.4044 21.5508 30.0839C21.5508 31.7633 22.9122 33.1248 24.5917 33.1248Z" fill="#7A8C98"/>
<path d="M12.2284 33.1248C13.9078 33.1248 15.2693 31.7633 15.2693 30.0839C15.2693 28.4044 13.9078 27.043 12.2284 27.043C10.549 27.043 9.1875 28.4044 9.1875 30.0839C9.1875 31.7633 10.549 33.1248 12.2284 33.1248Z" fill="#7A8C98"/>
<path d="M36.9559 33.1248C38.6354 33.1248 39.9968 31.7633 39.9968 30.0839C39.9968 28.4044 38.6354 27.043 36.9559 27.043C35.2765 27.043 33.915 28.4044 33.915 30.0839C33.915 31.7633 35.2765 33.1248 36.9559 33.1248Z" fill="#7A8C98"/>
<path d="M31.2178 9.11133C39.419 12.6172 45.0722 20.0132 45.0722 28.5708C45.0722 38.8714 36.8817 47.4891 25.9154 49.665L16.1384 52.8554L15.4341 55.0137C15.315 55.3787 15.6607 55.7245 16.0257 55.6053L30.0285 51.0361C40.9948 48.8603 49.1852 40.2427 49.1852 29.9419C49.1851 20.017 41.5815 11.6548 31.2178 9.11133Z" fill="#DFE2E6"/>
</svg>
