<svg width="20" height="21" viewBox="0 0 20 21" fill="none" xmlns="http://www.w3.org/2000/svg">
<path d="M19.8234 4.63359L10.1359 0.0305771C10.05 -0.0101924 9.94999 -0.0101924 9.86415 0.0305771L0.176649 4.63359C0.0686342 4.6849 0 4.79257 0 4.91061V16.0894C0 16.2074 0.0686342 16.3151 0.176649 16.3664L9.86411 20.9694C9.90703 20.9898 9.95354 21 10 21C10.0465 21 10.0929 20.9898 10.1359 20.9694L19.8234 16.3664C19.9314 16.3151 20 16.2074 20 16.0894V4.91065C20 4.79253 19.9313 4.68494 19.8234 4.63359ZM10 0.649215L18.9686 4.91061L16.3688 6.14592C16.3523 6.13357 16.3349 6.12217 16.3158 6.11311L7.4082 1.88071L10 0.649215ZM6.70235 2.22852L15.6579 6.48372L13.8237 7.35526L4.87186 3.10178L6.70235 2.22852ZM15.8674 7.06729V10.2889L14.1541 11.103V7.88137L15.8674 7.06729ZM19.3749 15.8963L10.3125 20.2022V9.70669L12.4742 8.67957C12.6296 8.60571 12.6948 8.42183 12.6198 8.2688C12.5447 8.11586 12.3579 8.05163 12.2024 8.12554L10 9.17205L9.13338 8.76025C8.97791 8.6863 8.79109 8.75053 8.71604 8.90352C8.64099 9.05651 8.70616 9.24042 8.8616 9.31429L9.68746 9.70669V20.2022L0.625083 15.8963V5.40071L7.526 8.6797C7.5698 8.70053 7.6161 8.71038 7.66165 8.71038C7.77783 8.71038 7.88943 8.64631 7.94331 8.53643C8.01836 8.38344 7.95319 8.19953 7.79775 8.12566L1.03143 4.91061L4.13622 3.43536L13.5247 7.89634C13.5261 7.89823 13.5276 7.89991 13.5291 7.90176V11.5931C13.5291 11.699 13.5844 11.7974 13.6754 11.8537C13.726 11.8849 13.7838 11.9007 13.8416 11.9007C13.888 11.9007 13.9344 11.8906 13.9775 11.8701L16.3158 10.7591C16.4239 10.7078 16.4925 10.6001 16.4925 10.482V6.77034L19.3749 5.40075V15.8963Z" fill="#545468"/>
<path d="M3.20434 14.7032L1.7827 14.0278C1.62718 13.9538 1.4404 14.018 1.36535 14.171C1.2903 14.324 1.35547 14.5079 1.51091 14.5818L2.93256 15.2573C2.97636 15.2781 3.02265 15.288 3.0682 15.288C3.18438 15.288 3.29598 15.2239 3.34986 15.114C3.42496 14.961 3.35978 14.7772 3.20434 14.7032Z" fill="#545468"/>
<path d="M4.51273 13.865L1.78465 12.5688C1.62918 12.4949 1.44236 12.559 1.36731 12.7121C1.2923 12.8651 1.35747 13.049 1.51291 13.1228L4.24098 14.4191C4.28478 14.4399 4.33108 14.4498 4.37663 14.4498C4.49281 14.4498 4.60441 14.3857 4.65829 14.2758C4.73334 14.1228 4.66816 13.9388 4.51273 13.865Z" fill="#545468"/>
</svg>
