<svg width="22" height="16" viewBox="0 0 22 16" fill="none" xmlns="http://www.w3.org/2000/svg">
<path d="M19.6175 0H2.38249C1.06729 0.0014881 0.00138609 1.14583 0 2.55782V13.4422C0.00138609 14.8542 1.06729 15.9985 2.38249 16H19.6175C20.9327 15.9985 21.9986 14.8542 22 13.4422V2.55782C21.9986 1.14583 20.9327 0.0014881 19.6175 0ZM0.709677 4.16114H21.2903V5.74362H0.709677V4.16114ZM2.38249 0.761905H19.6175C20.5408 0.762968 21.2893 1.56654 21.2903 2.55782V3.39923H0.709677V2.55782C0.710667 1.56654 1.45916 0.762968 2.38249 0.761905ZM19.6175 15.2381H2.38249C1.45916 15.237 0.710667 14.4335 0.709677 13.4422V6.50553H21.2903V13.4422C21.2893 14.4335 20.5408 15.237 19.6175 15.2381Z" fill="#545468"/>
<path d="M17.4962 8.67411C17.1259 8.67368 16.7608 8.76913 16.4317 8.95196C15.4557 8.4105 14.2597 8.67836 13.5666 9.59375C12.8736 10.5089 12.8736 11.8208 13.5666 12.736C14.2597 13.6514 15.4557 13.9192 16.4317 13.3778C17.2865 13.8518 18.3253 13.7102 19.0425 13.0219C19.7599 12.3335 20.007 11.2413 19.6638 10.2764C19.3207 9.31144 18.4583 8.67389 17.4962 8.67411ZM13.7569 11.1648C13.7569 10.21 14.4779 9.43622 15.3672 9.43622C16.2564 9.43622 16.9774 10.2102 16.9774 11.165C16.9774 12.1197 16.2564 12.8937 15.3672 12.8937C14.4783 12.8926 13.7579 12.1193 13.7569 11.1648ZM17.4962 12.8937C17.3582 12.8935 17.2208 12.8741 17.0873 12.8363C17.8873 11.8875 17.8873 10.4422 17.0873 9.49341C17.6916 9.32292 18.3332 9.54315 18.7332 10.0585C19.1332 10.5738 19.2195 11.291 18.9546 11.8984C18.6894 12.506 18.1211 12.8939 17.4962 12.8937Z" fill="#545468"/>
</svg>
