<svg width="18" height="18" viewBox="0 0 18 18" fill="none" xmlns="http://www.w3.org/2000/svg">
<g clip-path="url(#clip0)">
<path d="M17.3311 0H0.738159C0.349793 0 0.0350342 0.314758 0.0350342 0.703125C0.0350342 2.66116 0.87439 4.53049 2.33791 5.83141L5.41724 8.56838C5.95117 9.04299 6.25742 9.72496 6.25742 10.4395V17.2961C6.25742 17.8564 6.88364 18.1923 7.35042 17.8809L11.4987 15.1155C11.6943 14.9851 11.8118 14.7656 11.8118 14.5305V10.4395C11.8118 9.72496 12.1181 9.04299 12.652 8.56838L15.7312 5.83141C17.1947 4.53049 18.0341 2.66116 18.0341 0.703125C18.0341 0.314758 17.7193 0 17.3311 0ZM14.797 4.78029L11.7178 7.5174C10.8839 8.2587 10.4056 9.32369 10.4056 10.4393V14.1542L7.66353 15.9822V10.4395C7.66353 9.32369 7.18521 8.2587 6.35135 7.5174L3.27216 4.78043C2.28531 3.90303 1.65538 2.70085 1.48674 1.40611H16.5824C16.4137 2.70085 15.7839 3.90303 14.797 4.78029Z" fill="#545468"/>
</g>
<defs>
<clipPath id="clip0">
<rect width="18" height="18" fill="white"/>
</clipPath>
</defs>
</svg>
