<svg width="22" height="20" viewBox="0 0 22 20" fill="none" xmlns="http://www.w3.org/2000/svg">
<path d="M3.88559 11.2534L4.00162 11.1583C5.1372 12.5445 6.82962 14.0042 8.80622 15.7082C8.80643 15.7084 8.80663 15.7086 8.80684 15.7088L8.80923 15.7108L8.8105 15.7119C9.47224 16.2824 10.2195 16.9266 10.9985 17.6144C11.782 16.9253 12.5304 16.28 13.1936 15.7084L3.88559 11.2534ZM3.88559 11.2534L4.00162 11.1583C2.83146 9.73004 2.32142 8.47549 2.32142 7.08032C2.32142 5.74912 2.76378 4.53811 3.55867 3.66586L3.88559 11.2534ZM10.2356 4.69345L10.2356 4.69342C9.9786 4.25764 9.54253 3.63961 8.92042 3.15289L10.2356 4.69345ZM10.2356 4.69345C10.3971 4.96723 10.6834 5.13228 11 5.13228C11.3166 5.13228 11.6029 4.96723 11.7644 4.69345C12.0216 4.25764 12.4576 3.6396 13.0796 3.15288L10.2356 4.69345ZM7.8536 16.84L7.85359 16.84L7.85473 16.841C8.54205 17.4335 9.32032 18.1045 10.1275 18.8185C10.3687 19.0322 10.6785 19.15 11 19.15C11.3214 19.15 11.6313 19.0322 11.8724 18.8187C12.6814 18.1031 13.4609 17.431 14.1494 16.8376L14.1494 16.8376L14.1585 16.8298C16.1659 15.0991 17.9137 13.5923 19.1325 12.1045C20.5022 10.4327 21.15 8.83394 21.15 7.08032C21.15 5.38434 20.5752 3.81348 19.5244 2.6605L19.4135 2.76153L19.5244 2.66049C18.4605 1.49321 16.9994 0.85 15.413 0.85C14.2242 0.85 13.1345 1.23097 12.1782 1.97919C11.7466 2.31677 11.3525 2.72118 11 3.18631C10.6476 2.72117 10.2534 2.31676 9.82199 1.9792L9.82198 1.97919C8.86563 1.23097 7.77599 0.85 6.58716 0.85C5.00055 0.85 3.53963 1.49321 2.47575 2.66049L2.47574 2.6605C1.425 3.81347 0.85 5.38433 0.85 7.08032C0.85 8.83394 1.49794 10.4327 2.86761 12.1046L2.98364 12.0096L2.86761 12.1046C4.08676 13.5927 5.83528 15.1 7.84369 16.8314L7.85009 16.8369L7.85122 16.8379L7.8536 16.84Z" fill="#222235" stroke="#222235" stroke-width="0.3"/>
</svg>
