<svg width="13" height="15" viewBox="0 0 13 15" fill="none" xmlns="http://www.w3.org/2000/svg">
<path d="M6.58705 0.291016C3.20995 0.291016 0.472656 3.02831 0.472656 6.40541C0.472656 8.71567 1.75325 10.7236 3.64236 11.7641L3.57045 14.291L6.45547 12.513C6.499 12.5139 6.54253 12.5198 6.58705 12.5198C9.96415 12.5198 12.7014 9.78251 12.7014 6.40541C12.7014 3.02831 9.96415 0.291016 6.58705 0.291016ZM7.36578 9.96839H5.79902V4.92524H7.36578V9.96839ZM6.57188 4.30744C6.07637 4.30744 5.74669 3.95623 5.75745 3.52284C5.74717 3.0694 6.07637 2.72846 6.58216 2.72846C7.08745 2.72846 7.40833 3.0694 7.4186 3.52284C7.41812 3.95623 7.08647 4.30744 6.57188 4.30744Z" fill="#AAAAB2"/>
</svg>
