<svg width="24" height="24" viewBox="0 0 24 24" fill="none" xmlns="http://www.w3.org/2000/svg">
<path d="M4.16165 22.043C4.06074 22.0179 3.95935 21.9941 3.85892 21.9668C3.29622 21.812 2.80377 21.5351 2.3959 21.1205C1.69231 20.4052 1.31124 19.5528 1.27342 18.5591C1.25966 18.1857 1.30158 17.8188 1.38879 17.4565C1.49018 17.0313 1.65004 16.6298 1.86005 16.2468C2.19536 15.6354 2.63293 15.1045 3.15127 14.6355C3.54193 14.2821 3.96804 13.9749 4.42496 13.7088C4.85258 13.4595 5.25161 13.1712 5.63287 12.8585C6.11266 12.4643 6.5594 12.0353 7.00223 11.6022C7.39369 11.2193 7.78037 10.8326 8.18863 10.4678C8.49583 10.1924 8.81473 9.93143 9.15936 9.7024C9.59048 9.41634 10.0504 9.19102 10.5649 9.08347C10.951 9.00267 11.3392 8.9926 11.7306 9.05415C12.1732 9.12286 12.6013 9.24338 13.0121 9.42295C13.6407 9.69846 14.1546 10.1137 14.5645 10.6578C14.8446 11.0314 15.0661 11.437 15.2649 11.8556C15.4757 12.2995 15.6612 12.7537 15.8557 13.2046C16.075 13.7125 16.3052 14.2148 16.5759 14.6993C16.8454 15.1822 17.156 15.6387 17.5074 16.0683C17.9322 16.588 18.2924 17.1463 18.5765 17.7519C18.8183 18.2708 18.9953 18.8085 19.0862 19.3715C19.157 19.8101 19.173 20.2486 19.1197 20.6893C19.0393 21.3587 18.8123 21.9719 18.4024 22.5138C18.0229 23.016 17.5356 23.3867 16.9593 23.6474C16.5357 23.8391 16.0931 23.9631 15.6244 23.9925C15.4584 24.0033 15.2918 24.0027 15.1257 23.989C15.1025 23.9871 15.0799 23.9874 15.0574 23.9868C15.034 23.9949 15.0119 23.9818 14.9889 23.9806C14.9699 23.9798 14.9517 23.968 14.9319 23.9764C14.7925 23.9515 14.6525 23.9266 14.513 23.9017C14.4985 23.8868 14.4782 23.8918 14.4608 23.8864C14.4446 23.8835 14.4291 23.8807 14.413 23.8779C14.3998 23.8756 14.3855 23.873 14.3726 23.8706C14.0172 23.7956 13.683 23.6605 13.3509 23.52C12.7883 23.281 12.2447 23.0019 11.6872 22.7519C11.2357 22.55 10.7763 22.3694 10.3014 22.2285C9.97223 22.1307 9.63644 22.0666 9.29866 22.018C9.02866 21.979 8.755 21.9721 8.48253 21.9734C7.94444 21.9769 7.40946 22.0238 6.8744 22.0698C6.30819 22.1194 5.74223 22.1681 5.17308 22.1584C4.94163 22.1539 4.71073 22.1444 4.48223 22.1013C4.4354 22.0924 4.38753 22.091 4.34022 22.0814C4.28033 22.0673 4.21884 22.0672 4.16165 22.043ZM17.9553 1.50875C18.6934 1.73218 19.2033 2.21144 19.5395 2.88382C19.77 3.34488 19.8798 3.83548 19.9122 4.34477C19.9393 4.78325 19.9028 5.21696 19.8131 5.64631C19.6484 6.43517 19.3274 7.15513 18.8524 7.80774C18.5234 8.25999 18.1323 8.65095 17.6659 8.96521C17.2504 9.24435 16.8004 9.44639 16.3011 9.53323C15.9503 9.59413 15.6009 9.59284 15.253 9.50971C14.6505 9.36664 14.1755 9.03666 13.8138 8.54389C13.5056 8.12345 13.328 7.64984 13.2361 7.14425C13.172 6.79068 13.1554 6.43501 13.1767 6.07813C13.191 5.83348 13.2219 5.59152 13.2716 5.35292C13.3883 4.78955 13.588 4.25636 13.8686 3.75416C14.1668 3.21944 14.5402 2.74404 15.0067 2.34256C15.3993 2.00487 15.8358 1.73801 16.3327 1.57202C16.6978 1.44983 17.0734 1.39565 17.4609 1.42114C17.6734 1.4371 17.7574 1.45369 17.9553 1.50875ZM0.131816 7.26509C0.183061 7.04098 0.263097 6.82637 0.361635 6.61868C0.552594 6.21508 0.811515 5.8624 1.1676 5.58433C1.56552 5.27411 2.01942 5.10844 2.53003 5.1C2.94451 5.09353 3.33429 5.19755 3.70265 5.3847C4.12605 5.6002 4.48111 5.90163 4.78018 6.26487C5.24516 6.82757 5.53666 7.47003 5.69348 8.17372C5.77544 8.54219 5.8116 8.91502 5.80196 9.29107C5.79742 9.47354 5.77887 9.65471 5.75123 9.83509C5.69818 10.1775 5.60484 10.5069 5.46124 10.8218C5.26969 11.2418 5.00662 11.6083 4.63889 11.8965C4.21685 12.2272 3.73356 12.3936 3.19077 12.3838C2.79254 12.3766 2.41884 12.2669 2.06657 12.0821C1.59317 11.8326 1.21145 11.4811 0.895024 11.0577C0.586189 10.6457 0.363013 10.1913 0.212363 9.70345C0.0647152 9.22493 -0.00933964 8.73505 0.000942653 8.23534C0.00299752 8.14705 0.00730636 8.05916 0.0104444 7.97135C0.00800724 7.93043 0.0186557 7.89095 0.015892 7.85027C0.0142354 7.83311 0.0194602 7.81813 0.0215629 7.80113C0.0220806 7.77978 0.0355007 7.7594 0.0261822 7.73636C0.0445007 7.63123 0.0627637 7.5265 0.0811301 7.42113C0.106107 7.39592 0.101862 7.36208 0.10946 7.33179C0.115147 7.30916 0.11349 7.28378 0.131816 7.26509ZM5.95026 3.17449C6.06193 2.5492 6.25085 2.00098 6.55836 1.49587C6.79045 1.11388 7.07638 0.777693 7.4398 0.509206C7.83126 0.219226 8.26772 0.0390391 8.762 0.00573596C9.25645 -0.0281069 9.71616 0.0886715 10.1455 0.333176C10.5237 0.548873 10.8359 0.838346 11.0984 1.18026C11.5177 1.72546 11.7788 2.33997 11.9255 3.0028C12.0188 3.42428 12.0593 3.85006 12.05 4.27977C12.0446 4.52343 12.0237 4.76633 11.9868 5.00807C11.9393 5.31208 11.8672 5.61058 11.7643 5.90066C11.5495 6.50703 11.2323 7.05088 10.7579 7.49718C10.463 7.7739 10.1265 7.98609 9.73679 8.11281C9.30137 8.25411 8.85933 8.26676 8.41403 8.15197C8.01134 8.04853 7.65803 7.85035 7.34279 7.58314C6.9315 7.23496 6.62359 6.80945 6.38887 6.33133C6.11067 5.76367 5.95608 5.16332 5.90104 4.53795C5.87078 4.19584 5.87301 3.85382 5.90646 3.51251C5.91833 3.38434 5.93179 3.25559 5.95026 3.17449ZM23.9114 11.8823C23.9072 11.9063 23.9029 11.9306 23.8987 11.9549C23.7654 12.5533 23.5022 13.0919 23.1426 13.5864C22.86 13.9736 22.5263 14.313 22.1369 14.5971C21.6373 14.9624 21.0867 15.2186 20.4673 15.3208C20.0962 15.3821 19.7257 15.3788 19.3572 15.2922C18.8134 15.1638 18.3681 14.8826 18.0291 14.4423C17.7493 14.0785 17.5949 13.6649 17.5301 13.2189C17.4714 12.819 17.4889 12.4206 17.5707 12.0264C17.7499 11.1594 18.1684 10.4169 18.7804 9.77821C18.9872 9.56191 19.2148 9.36873 19.4619 9.19891C19.9698 8.8513 20.5228 8.61292 21.1424 8.53245C21.4947 8.48749 21.8444 8.50054 22.1895 8.58972C22.7166 8.72571 23.1479 9.00758 23.4756 9.43978C23.7711 9.82977 23.9231 10.2734 23.9784 10.7509C24.009 11.0146 24.0076 11.2787 23.9708 11.5416C23.9665 11.5659 23.9623 11.5905 23.958 11.6149C23.9397 11.7034 23.9244 11.7924 23.9114 11.8823Z" fill="black"/>
</svg>
