<svg width="60" height="60" viewBox="0 0 60 60" fill="none" xmlns="http://www.w3.org/2000/svg">
<g clip-path="url(#clip0)">
<path d="M21.0715 47.0409L12.1202 51.9235C11.5949 52.2099 11.1228 52.562 10.6836 52.9458C15.9025 57.3461 22.6394 60.0009 30.0002 60.0009C37.3066 60.0009 44.0006 57.3858 49.2047 53.0454C48.7247 52.6401 48.204 52.2756 47.6266 51.988L38.0413 47.1959C36.8028 46.5767 36.0206 45.311 36.0206 43.9265V40.1658C36.29 39.859 36.5979 39.465 36.9274 38.9997C38.2338 37.1544 39.2221 35.1246 39.907 32.9952C41.1364 32.616 42.0421 31.4805 42.0421 30.131V26.1167C42.0421 25.2337 41.6492 24.4446 41.0391 23.8922V18.0892C41.0391 18.0892 42.2311 9.05859 30.0013 9.05859C17.7715 9.05859 18.9636 18.0892 18.9636 18.0892V23.8922C18.3523 24.4446 17.9606 25.2337 17.9606 26.1167V30.131C17.9606 31.1884 18.5164 32.119 19.3485 32.6567C20.3515 37.0231 22.9779 40.1658 22.9779 40.1658V43.8337C22.9768 45.1695 22.2455 46.4001 21.0715 47.0409Z" fill="white"/>
<path d="M30.5128 0.00446735C13.9471 -0.278552 0.287489 12.9214 0.00447031 29.4871C-0.156284 38.8799 4.03013 47.3218 10.6958 52.9358C11.1316 52.5554 11.5992 52.2067 12.1188 51.9237L21.0701 47.0411C22.2441 46.4003 22.9754 45.1697 22.9754 43.8316V40.1637C22.9754 40.1637 20.3479 37.0211 19.346 32.6547C18.515 32.1169 17.9581 31.1875 17.9581 30.129V26.1147C17.9581 25.2316 18.3509 24.4426 18.9611 23.8901V18.0871C18.9611 18.0871 17.769 9.05654 29.9988 9.05654C42.2286 9.05654 41.0365 18.0871 41.0365 18.0871V23.8901C41.6479 24.4426 42.0396 25.2316 42.0396 26.1147V30.129C42.0396 31.4784 41.1339 32.6139 39.9045 32.9931C39.2196 35.1226 38.2313 37.1524 36.9249 38.9977C36.5954 39.463 36.2875 39.8569 36.0181 40.1637V43.9245C36.0181 45.309 36.8003 46.5758 38.0388 47.1939L47.6241 51.986C48.1992 52.2735 48.7188 52.6369 49.1977 53.0411C55.6618 47.6501 59.8381 39.5897 59.9931 30.5128C60.2784 13.9471 47.0796 0.287486 30.5128 0.00446735Z" fill="#CFCFDC"/>
</g>
<defs>
<clipPath id="clip0">
<rect width="60" height="60" fill="white"/>
</clipPath>
</defs>
</svg>
